<svg width="45" height="32" viewBox="0 0 45 32" fill="none" xmlns="http://www.w3.org/2000/svg">
<path d="M2.93846 0H41.8935C43.4294 0 44.6759 1.2465 44.6759 2.78383V29.2175C44.6759 30.7535 43.4294 32 41.8935 32H2.93846C1.40113 32.0002 0.156006 30.7535 0.156006 29.2177V2.78383C0.156006 1.2465 1.4025 0 2.93846 0Z" fill="#26A6D1"/>
<path d="M7.33485 11.1299L2.93846 20.8589H8.20155L8.85402 19.3077H10.3454L10.9979 20.8589H16.7911V19.675L17.3073 20.8589H20.304L20.8202 19.65V20.8589H32.8684L34.3335 19.348L35.7052 20.8589L41.8935 20.8715L37.4832 16.0216L41.8935 11.1299H35.8012L34.3751 12.6129L33.0465 11.1299H19.9396L18.8141 13.641L17.6622 11.1299H12.4101V12.2735L11.8258 11.1299H7.33485ZM8.35323 12.5114H10.9187L13.8348 19.1088V12.5114H16.6452L18.8976 17.2417L20.9734 12.5114H23.7697V19.4927H22.0682L22.0543 14.0222L19.5737 19.4927H18.0516L15.5571 14.0222V19.4927H12.0567L11.3931 17.9276H7.80788L7.14564 19.4913H5.27017L8.35323 12.5114ZM25.3264 12.5114H32.2451L34.3612 14.7972L36.5455 12.5114H38.6616L35.4464 16.0202L38.6616 19.4885H36.4496L34.3335 17.1762L32.138 19.4885H25.3264V12.5114ZM9.60125 13.6926L8.42006 16.4807H10.7811L9.60125 13.6926ZM27.035 13.9569V15.2313H30.8094V16.6518H27.035V18.0431H31.2686L33.2357 15.9938L31.352 13.9557L27.035 13.9569Z" fill="white"/>
</svg>
