<svg width="159" height="32" viewBox="0 0 159 32" fill="none" xmlns="http://www.w3.org/2000/svg">
<path fill-rule="evenodd" clip-rule="evenodd" d="M11.2985 31.9844H9.87028C8.72774 31.9844 7.69628 31.4534 7.01393 30.6101L0.253898 22.0673C0.11108 21.8643 0 21.6144 0 21.3333C0 21.0522 0.11108 20.8023 0.253898 20.5993L7.06153 12.0254C7.74388 11.182 8.74361 10.651 9.91788 10.651H24.9613L16.4081 21.2084L10.1559 28.9702L11.2985 31.9844Z" fill="url(#paint0_linear_0_32)"/>
<path fill-rule="evenodd" clip-rule="evenodd" d="M16.5034 21.3177L16.4399 21.2084L10.1559 28.9702C9.90201 29.2826 9.69572 29.7042 9.69572 30.407C9.69572 31.1098 10.3781 31.9844 11.7269 31.9844H24.9455L16.5034 21.3177Z" fill="url(#paint1_linear_0_32)"/>
<path fill-rule="evenodd" clip-rule="evenodd" d="M34.3238 3.01415L33.1813 0H34.6094C35.752 0 36.7834 0.530991 37.4658 1.37433L44.2734 9.93265C44.4162 10.1357 44.5273 10.3856 44.5273 10.6667C44.5273 10.9478 44.4162 11.1977 44.2734 11.4007L37.4341 19.959C36.7517 20.8023 35.752 21.3333 34.5777 21.3333H19.5343L28.0874 10.7604L34.3238 3.01415Z" fill="url(#paint2_linear_0_32)"/>
<path fill-rule="evenodd" clip-rule="evenodd" d="M28.0081 10.6667L28.0716 10.776L34.3079 3.02977C34.5618 2.71742 34.7681 2.29575 34.7681 1.59297C34.7681 0.89019 34.0858 0.0156174 32.7369 0.0156174H19.5184L28.0081 10.6667Z" fill="url(#paint3_linear_0_32)"/>
<path d="M34.6729 2.8736C34.9268 2.56125 35.0696 2.20205 35.0696 1.78038C35.0696 0.812103 34.2445 0 33.2447 0H32.7846C33.7843 0 34.5618 0.812103 34.5618 1.796C34.5618 2.21767 34.419 2.6081 34.1651 2.88921L27.9922 10.6823L19.5501 21.3021L34.6729 2.8736Z" fill="#0BBBEF"/>
<path d="M9.83854 29.1108C9.58464 29.4231 9.44182 29.7823 9.44182 30.204C9.44182 31.1879 10.267 32 11.2667 32H11.7269C10.7272 32 9.90201 31.1879 9.90201 30.204C9.90201 29.7823 10.0448 29.3919 10.2987 29.1108L16.5034 21.3177L24.9455 10.6979L9.83854 29.1108Z" fill="#FFD500"/>
<path d="M100.924 8.33843C100.067 8.33843 99.3851 8.44775 98.6869 8.65077C97.5444 8.99436 96.6875 9.60343 96.0527 10.4468C94.9419 11.8523 94.9895 13.539 94.9895 13.539V25.252H98.1632C98.3695 25.252 98.5123 25.0803 98.5123 24.9085V13.7889C98.5123 13.5859 98.5441 12.805 98.9725 12.4146C99.3216 12.1022 99.7977 11.9617 100.258 11.8836C100.75 11.8211 101.258 11.8523 101.512 11.8836H101.575C101.829 11.8836 102.003 11.743 102.115 11.5712L103.733 8.79133C102.876 8.47898 101.956 8.30719 100.924 8.33843Z" fill="#06416A"/>
<path d="M91.5778 8.33844C90.7209 8.33844 90.0068 8.44776 89.3403 8.65079C88.1977 8.99437 87.3409 9.60345 86.7061 10.4468C85.5953 11.8524 85.6429 13.539 85.6429 13.539V25.2521H88.8166C89.0229 25.2521 89.1657 25.0803 89.1657 24.9085V13.7889C89.1657 13.5859 89.1975 12.805 89.6259 12.4146C89.975 12.1022 90.4511 11.9617 90.9113 11.8836C91.4032 11.8211 91.911 11.8524 92.1649 11.8836H92.2284C92.4347 11.8836 92.6568 11.743 92.7679 11.5712L94.45 8.76011C93.5137 8.479 92.6251 8.30721 91.5778 8.33844Z" fill="#06416A"/>
<path d="M63.8553 20.926C63.7442 20.7854 63.5379 20.6761 63.3158 20.6761C63.2047 20.6761 63.0619 20.7074 62.9984 20.7854C61.9352 21.4101 60.6498 21.8006 59.2851 21.8006C55.2862 21.8006 52.049 18.6146 52.049 14.6478C52.049 10.7122 55.2862 7.5263 59.2851 7.5263C60.634 7.5263 61.9193 7.86988 62.9984 8.54143C63.1095 8.6039 63.2047 8.65075 63.3475 8.65075C63.5538 8.65075 63.7442 8.54143 63.887 8.40087L65.7119 6.0895C63.9346 4.79326 61.713 4.02801 59.301 4.02801C53.3185 4.02801 48.4627 8.79131 48.4627 14.6947C48.4627 20.598 53.3185 25.3457 59.301 25.3457C61.6813 25.3457 63.9029 24.5805 65.7119 23.2842L63.8553 20.926Z" fill="#06416A"/>
<path d="M112.001 11.4619C114.349 11.4619 116.349 12.9768 117.063 15.0383H106.97C107.684 12.9768 109.684 11.4619 112.001 11.4619ZM112.001 8.08858C107.192 8.08858 103.273 11.9461 103.273 16.6781C103.273 21.379 107.192 25.2365 112.001 25.2677H112.255C114.143 25.2677 115.682 25.0178 117.713 23.7216L118.031 23.5185C118.031 23.5185 116.253 21.2384 116.206 21.2072C116.095 21.0666 115.888 20.9573 115.714 20.9573C115.603 20.9573 115.508 20.9885 115.397 21.0198C114.936 21.2696 113.54 21.8631 112.017 21.8631C109.7 21.8631 107.748 20.4263 106.986 18.396H120.363C120.57 18.396 120.713 18.2243 120.713 18.0525L120.744 17.0686V16.6781C120.776 11.9461 116.856 8.08858 112.001 8.08858Z" fill="#06416A"/>
<path d="M123.156 25.3145C122.95 25.3145 122.807 25.1739 122.807 24.9709V9.00992C122.807 8.83813 122.95 8.66634 123.156 8.66634H125.965C126.171 8.66634 126.314 8.83813 126.314 9.00992V24.9709C126.314 25.1739 126.14 25.3145 125.965 25.3145H123.156Z" fill="#06416A"/>
<path d="M75.0903 11.3993C72.1704 11.3993 69.8219 13.7107 69.8219 16.5843C69.8219 19.4579 72.1704 21.7692 75.0903 21.7692C78.0101 21.7692 80.3586 19.4579 80.3586 16.5843C80.3586 13.7107 78.0101 11.3993 75.0903 11.3993ZM75.0903 25.3144C70.2027 25.3144 66.2514 21.4257 66.2514 16.6155C66.2514 11.8053 70.2027 7.91662 75.0903 7.91662C79.9778 7.91662 83.9291 11.8053 83.9291 16.6155C83.9291 21.3944 79.9619 25.3144 75.0903 25.3144Z" fill="#06416A"/>
<path d="M136.883 11.54C133.995 11.54 131.646 13.8513 131.646 16.6937C131.646 19.5361 133.995 21.8162 136.883 21.8162C139.771 21.8162 142.119 19.5048 142.119 16.6937C142.119 13.8513 139.771 11.54 136.883 11.54ZM136.883 25.2833C132.043 25.2833 128.123 21.4258 128.123 16.6625C128.123 11.8992 132.043 8.04168 136.883 8.04168C141.723 8.04168 145.642 11.8992 145.642 16.6625C145.642 21.4258 141.723 25.2833 136.883 25.2833Z" fill="#06416A"/>
<path d="M155.592 15.3506C154.989 15.0695 154.195 14.8977 153.354 14.6791C152.101 14.3667 150.926 14.2886 150.498 13.6327C150.101 13.008 150.323 12.3052 150.847 11.9148C152.101 11.0714 153.767 11.4306 154.703 11.8523C154.878 11.9148 155.56 12.3052 155.56 12.3052C155.671 12.3677 155.766 12.4145 155.877 12.4145C156.084 12.4145 156.274 12.3052 156.417 12.1334L158.194 9.88452L157.909 9.63464C157.734 9.49408 157.48 9.35353 157.226 9.21297C156.687 8.93186 155.084 8.02605 152.767 8.02605H152.561C147.467 8.13537 146.753 11.6805 146.753 12.9299C146.753 14.8196 147.753 16.1939 149.244 17.0373C150.45 17.7088 152.704 18.0836 153.846 18.4428C154.449 18.6146 154.878 19.0363 155.052 19.4267C155.116 19.5985 155.163 19.7703 155.163 19.989C155.195 20.6605 154.846 21.3945 153.846 21.7069C152.735 22.0192 151.037 21.8787 149.466 20.6917C149.435 20.6605 149.26 20.5199 149.181 20.4887C149.117 20.4575 149.038 20.4575 148.927 20.4575C148.721 20.4575 148.53 20.5668 148.387 20.7386C148.356 20.7698 146.642 22.9406 146.642 22.9406C146.642 22.9406 147.245 23.4248 147.467 23.5653C148.467 24.2994 150.244 25.2832 152.561 25.2832H152.624C157.544 25.2832 158.686 21.8474 158.686 19.9577C158.686 18.0524 157.512 16.1939 155.592 15.3506Z" fill="#06416A"/>
<defs>
<linearGradient id="paint0_linear_0_32" x1="155.928" y1="-0.771598" x2="138.503" y2="57.8527" gradientUnits="userSpaceOnUse">
<stop stop-color="#FFDD00"/>
<stop offset="0.9" stop-color="#D49F00"/>
<stop offset="1" stop-color="#FFDD00"/>
</linearGradient>
<linearGradient id="paint1_linear_0_32" x1="158.68" y1="16.0184" x2="-0.0310758" y2="16.0184" gradientUnits="userSpaceOnUse">
<stop stop-color="#D49F00"/>
<stop offset="1" stop-color="#AB5808"/>
</linearGradient>
<linearGradient id="paint2_linear_0_32" x1="2.47639" y1="32.7373" x2="20.003" y2="-25.9438" gradientUnits="userSpaceOnUse">
<stop stop-color="#00537E"/>
<stop offset="0.9" stop-color="#18AAE2"/>
<stop offset="1" stop-color="#107BC0"/>
</linearGradient>
<linearGradient id="paint3_linear_0_32" x1="137.347" y1="-4.41489" x2="120.207" y2="43.1937" gradientUnits="userSpaceOnUse">
<stop stop-color="#002542"/>
<stop offset="1" stop-color="#004169"/>
</linearGradient>
</defs>
</svg>
