<svg width="52" height="32" viewBox="0 0 52 32" fill="none" xmlns="http://www.w3.org/2000/svg">
<path d="M49.1761 0H3.65592C2.15501 0 0.938293 1.21672 0.938293 2.71762V29.2824C0.938293 30.7833 2.15501 32 3.65592 32H49.1761C50.677 32 51.8937 30.7833 51.8937 29.2824V2.71762C51.8937 1.21672 50.677 0 49.1761 0Z" fill="#0079BE"/>
<path d="M40.679 16.1659C40.679 9.41157 35.0413 4.74287 28.8645 4.74512H23.5487C17.298 4.74287 12.153 9.41297 12.153 16.1659C12.153 22.3438 17.298 27.4196 23.5487 27.39H28.8645C35.0413 27.4196 40.679 22.3425 40.679 16.1659Z" fill="white"/>
<path d="M23.5815 5.70215C17.8698 5.70395 13.2414 10.343 13.24 16.0685C13.2414 21.793 17.8697 26.4316 23.5815 26.4334C29.2947 26.4316 33.924 21.793 33.9248 16.0685C33.924 10.343 29.2947 5.70395 23.5815 5.70215Z" fill="#0079BE"/>
<path d="M17.0447 16.0404C17.0501 13.2426 18.7939 10.8568 21.253 9.90869V22.1706C18.7939 21.2231 17.05 18.8386 17.0447 16.0404ZM25.9449 22.1737V9.90869C28.4048 10.8545 30.1514 13.2416 30.1559 16.0408C30.1514 18.8408 28.4048 21.2261 25.9449 22.1737Z" fill="white"/>
</svg>
