<svg width="52" height="32" viewBox="0 0 52 32" fill="none" xmlns="http://www.w3.org/2000/svg">
<path d="M3.65592 0H49.1761C50.6776 0 51.8937 1.21614 51.8937 2.71762V29.2824C51.8937 30.7839 50.6776 32 49.1761 32H3.65592C2.15443 32 0.938293 30.7839 0.938293 29.2824V2.71762C0.938293 1.21614 2.15443 0 3.65592 0Z" fill="#2B2B2F"/>
<path d="M11.1769 11.5907C11.6389 11.4344 12.1349 11.3529 12.6512 11.3529C14.9069 11.3529 16.7888 12.9563 17.2169 15.0828L20.4101 14.4306C19.6763 10.8161 16.4831 8.09172 12.6512 8.09172C11.7748 8.09172 10.9324 8.23439 10.1442 8.49936L11.1769 11.5907Z" fill="#FFF100"/>
<path d="M7.40623 21.9448L9.56674 19.4989C8.60199 18.6429 7.99732 17.3996 7.99732 16.0068C7.99732 14.6208 8.60199 13.3707 9.56674 12.5214L7.40623 10.0824C5.76887 11.5363 4.73617 13.6493 4.73617 16.0136C4.73617 18.3711 5.76887 20.4909 7.40623 21.9448Z" fill="#00A3DF"/>
<path d="M17.2169 16.9444C16.782 19.0709 14.9069 20.6675 12.6512 20.6675C12.1349 20.6675 11.6389 20.586 11.1701 20.4297L10.1374 23.521C10.9256 23.786 11.7748 23.9287 12.6512 23.9287C16.4831 23.9287 19.6763 21.211 20.4101 17.5966L17.2169 16.9444Z" fill="#EE4023"/>
<path d="M31.0496 19.1321C30.5196 19.6484 29.8062 19.9609 29.0181 19.9473C28.4746 19.9406 27.9718 19.7775 27.5506 19.5057L26.4907 21.1907C27.2177 21.6459 28.067 21.9176 28.991 21.9312C30.3294 21.9516 31.5523 21.4217 32.4423 20.5588L31.0496 19.1321ZM29.1336 12.2633C26.4704 12.2225 24.2691 14.3558 24.2283 17.0191C24.2147 18.0178 24.5001 18.9554 25.0096 19.7299L33.7604 15.9864C33.2712 13.887 31.396 12.304 29.1336 12.2633ZM26.2326 17.3996C26.219 17.2909 26.2122 17.1754 26.2122 17.0599C26.2394 15.4904 27.5302 14.2335 29.0997 14.2607C29.9557 14.2743 30.7166 14.6616 31.2262 15.273L26.2326 17.3996ZM36.512 10.0892V19.4174L38.129 20.09L37.3612 21.9312L35.7578 21.2654C35.3977 21.1091 35.1532 20.8713 34.9697 20.5996C34.7931 20.3278 34.6572 19.9473 34.6572 19.4446V10.0892H36.512Z" fill="white"/>
<path d="M42.3481 14.4034C42.6334 14.3083 42.9324 14.2607 43.2517 14.2607C44.6309 14.2607 45.7723 15.2391 46.0372 16.5367L47.9871 16.1359C47.5387 13.9278 45.5888 12.2701 43.2517 12.2701C42.7149 12.2701 42.1986 12.3584 41.723 12.5146L42.3481 14.4034ZM40.0449 20.7151L41.3629 19.2272C40.7718 18.704 40.405 17.9431 40.405 17.0938C40.405 16.2446 40.7786 15.4837 41.3629 14.9673L40.0449 13.4794C39.0462 14.3626 38.4143 15.6603 38.4143 17.1006C38.4143 18.541 39.0462 19.8318 40.0449 20.7151ZM46.0372 17.6713C45.7723 18.969 44.6241 19.9473 43.2517 19.9473C42.9391 19.9473 42.6334 19.893 42.3481 19.7979L41.7162 21.6866C42.1986 21.8497 42.7149 21.938 43.2517 21.938C45.5888 21.938 47.5387 20.2803 47.9871 18.0722L46.0372 17.6713Z" fill="white"/>
</svg>
