<svg width="177" height="32" viewBox="0 0 177 32" fill="none" xmlns="http://www.w3.org/2000/svg">
<g clip-path="url(#clip0_4_109)">
<path d="M23.2139 5.3071C23.2154 7.49027 23.2277 9.67344 23.217 11.8566C23.2063 14.1939 23.101 16.5235 22.6479 18.8257C21.8958 22.6565 19.9079 25.7245 16.9009 28.1686C15.273 29.4913 13.572 30.7118 11.8434 31.8972C11.7733 31.9445 11.7107 32.0193 11.6085 31.9979C11.6131 30.4906 11.6161 28.9818 11.6207 27.4744C12.353 26.7589 13.0624 26.0236 13.7581 25.273C13.9427 25.0731 13.9473 24.9755 13.7062 24.826C13.0639 24.4293 12.3682 24.2462 11.6222 24.2233C11.6207 23.7778 11.6176 23.3324 11.6161 22.8869C12.5406 22.8289 13.3828 23.0959 14.1959 23.5109C14.4355 23.6329 14.6582 23.9731 14.8886 23.8679C15.1159 23.7641 15.2242 23.4132 15.4073 23.1905C15.5949 22.9632 15.5278 22.8457 15.302 22.6947C14.1837 21.9547 12.9541 21.6008 11.6222 21.5748L11.6161 20.1606C12.9999 20.1072 14.2783 20.4764 15.4912 21.1172C15.7414 21.2499 16.0023 21.584 16.225 21.4894C16.4676 21.3872 16.4615 20.9646 16.5988 20.6991C16.7514 20.4001 16.6598 20.243 16.3776 20.0782C14.9054 19.2223 13.3141 18.818 11.6207 18.7829C11.6207 18.0568 11.6207 17.3321 11.6207 16.6059C11.7702 16.5845 11.9197 16.5677 12.0692 16.5403C13.6528 16.2489 14.7269 15.3411 15.1693 13.7987C15.6178 12.238 15.1708 10.8894 13.9625 9.80617C13.2989 9.21117 12.4857 8.9625 11.6161 8.87249C11.6146 7.7603 11.6131 6.64812 11.6115 5.53594C11.6161 5.45966 11.6192 5.38185 11.6237 5.30557C15.4866 5.30557 19.351 5.30557 23.2139 5.30557V5.3071Z" fill="#388E3C"/>
<path d="M11.6176 22.8869C11.6192 23.3324 11.6222 23.7779 11.6237 24.2233C10.8533 24.263 10.1378 24.4659 9.4955 24.9114C9.29411 25.0518 9.21325 25.154 9.42989 25.3676C10.0676 25.9961 10.684 26.6445 11.3125 27.2807C11.398 27.3677 11.4742 27.4806 11.6207 27.4744C11.6161 28.9818 11.6131 30.4906 11.6085 31.9979C10.8701 31.6074 10.2232 31.081 9.54889 30.5989C8.16362 29.6057 6.79056 28.5943 5.52429 27.45C2.97192 25.1463 1.41273 22.2812 0.70484 18.9325C0.245627 16.7615 0.09459 14.56 0.0427187 12.3509C-0.0106782 10.0549 -0.00915253 7.75574 0.0244112 5.45815C0.230371 5.52375 0.440907 5.53595 0.65602 5.53595C4.30837 5.53443 7.96072 5.53595 11.6115 5.53595C11.6131 6.64813 11.6146 7.76031 11.6161 8.8725C11.5414 8.87707 11.4651 8.88317 11.3903 8.88775C8.4062 9.04642 6.67461 12.1678 8.18193 14.7034C8.94932 15.9941 10.1393 16.5784 11.6222 16.6059C11.6222 17.3321 11.6222 18.0568 11.6222 18.783C10.0859 18.8226 8.61826 19.1506 7.27571 19.9119C6.15743 20.5466 6.3283 20.2201 6.75852 21.4162C6.85311 21.6801 6.94465 21.6939 7.1796 21.5352C8.51757 20.6305 9.98675 20.1301 11.6176 20.1606C11.6192 20.632 11.6207 21.1034 11.6237 21.5749C10.4566 21.6084 9.34598 21.8724 8.35433 22.4979C7.35809 23.1279 7.50913 22.8716 8.09192 23.7931C8.23991 24.0281 8.3528 24.0464 8.58775 23.8755C9.48634 23.2195 10.4887 22.8533 11.6176 22.8854V22.8869Z" fill="#66BA6A"/>
<path d="M0.0213581 4.39478C0.0213581 3.56179 0.0564475 2.72574 0.0106787 1.89428C-0.0381413 0.969749 0.668223 0.28932 1.48138 0.0909885C1.76057 0.0238609 2.05044 0.000976562 2.34183 0.000976562C8.45502 0.00555344 14.5667 0.000976562 20.6799 0.00860469C21.6273 0.00860469 22.4618 0.299999 23.0293 1.12994C23.1254 1.2703 23.2032 1.42133 23.2048 1.58152C23.2185 2.51978 23.2154 3.45804 23.2185 4.3963C19.8316 4.3963 16.4432 4.39478 13.0563 4.39478C12.5788 4.39478 12.0997 4.40393 11.6222 4.41004C11.4712 4.40546 11.3201 4.3963 11.1691 4.3963C7.45268 4.3963 3.73626 4.3963 0.0213581 4.39478ZM5.31375 1.51745C4.9293 1.50677 4.59671 1.80427 4.57688 2.17652C4.55857 2.50758 4.92014 2.87068 5.27409 2.87983C5.59599 2.88746 5.924 2.57013 5.93621 2.24212C5.95147 1.79359 5.72415 1.52813 5.31375 1.51745ZM3.43418 2.18262C3.43876 1.83783 3.11838 1.52203 2.75833 1.51897C2.40133 1.51592 2.08095 1.82868 2.07332 2.1872C2.0657 2.53657 2.41659 2.87983 2.78121 2.88136C3.11685 2.88136 3.42655 2.5503 3.43266 2.18415L3.43418 2.18262Z" fill="#DFDFDF"/>
<path d="M37.5472 14.7919C38.31 14.7919 39.0743 14.827 39.8326 14.7797C40.4092 14.7446 40.5694 14.9719 40.5999 15.5151C40.844 19.9897 36.7447 22.9937 32.4455 21.4177C29.9755 20.5115 28.4514 18.7051 28.1554 16.0704C27.861 13.457 28.9426 11.3806 31.1563 9.99993C33.4204 8.58872 35.7622 8.58109 38.0644 9.99993C38.2581 10.1189 38.4275 10.2776 38.6151 10.4073C38.9492 10.6346 38.9736 10.8619 38.6426 11.1167C38.5236 11.2097 38.4046 11.3165 38.3207 11.4401C37.9713 11.9527 37.6601 11.9115 37.1673 11.5439C35.7195 10.4683 33.6034 10.4881 32.0778 11.5057C30.4789 12.5721 29.707 14.5432 30.1403 16.4457C30.5674 18.3161 32.0625 19.7166 33.904 19.9699C36.1375 20.2765 38.0628 19.2117 38.6212 17.3855C38.7936 16.8195 38.7997 16.5037 38.0369 16.5555C37.0758 16.6211 36.107 16.551 35.1413 16.5799C34.7019 16.5922 34.5829 16.4365 34.5737 16.0124C34.5463 14.7934 34.528 14.7934 35.7179 14.7934C36.3282 14.7934 36.9369 14.7934 37.5472 14.7934V14.7919Z" fill="#7A7A7A"/>
<path d="M65.4127 20.957C63.8749 22.1195 62.3661 22.06 60.9365 20.9875C59.5833 19.9714 59.0265 18.5648 59.3652 16.8866C59.7084 15.1901 60.7458 14.0932 62.4271 13.6416C63.3074 13.4051 64.1388 13.5607 64.9139 14.0352C65.1351 14.171 65.2571 14.4761 65.5531 13.9635C65.7835 13.5638 66.4944 13.7758 66.9719 13.8506C67.3289 13.9071 67.1657 14.319 67.1657 14.5692C67.1748 16.9324 67.2145 19.2971 67.1504 21.6588C67.0726 24.5285 64.6331 26.196 61.9557 25.2836C61.0784 24.9846 60.4194 24.4186 59.9083 23.6543C59.6459 23.2622 59.6138 23.0379 60.1402 22.8091C60.7825 22.5299 61.2142 22.4078 61.7085 23.1264C62.2257 23.8801 63.0892 24.0097 63.9786 23.7641C64.8132 23.5338 65.219 22.9403 65.3853 22.1317C65.457 21.7808 65.4982 21.4314 65.4143 20.9554L65.4127 20.957ZM63.4065 15.1886C62.1128 15.1748 61.0906 16.2672 61.08 17.6769C61.0693 19.056 62.125 20.1896 63.4081 20.1774C64.6087 20.1652 65.5851 19.0652 65.5943 17.712C65.6034 16.2901 64.6591 15.2008 63.4065 15.1886Z" fill="#7A7A7A"/>
<path d="M121.841 15.7576C123.15 16.4365 123.864 17.3717 123.65 18.8043C123.42 20.3513 122.134 21.4833 120.466 21.5504C119.148 21.6038 117.827 21.5535 116.507 21.5748C116.088 21.5825 115.999 21.3994 115.999 21.0271C116.009 17.6525 116.01 14.2778 115.996 10.9031C115.995 10.4698 116.138 10.331 116.567 10.3386C117.784 10.363 119.003 10.3173 120.221 10.3584C122.071 10.421 123.397 11.8597 123.293 13.6248C123.237 14.5768 122.691 15.2084 121.84 15.7576H121.841ZM117.473 18.3192C117.473 18.8013 117.473 19.2834 117.473 19.7655C117.473 19.9851 117.504 20.1911 117.784 20.1835C118.822 20.156 119.87 20.3147 120.895 20.0813C121.65 19.9089 122.216 19.1018 122.21 18.3192C122.204 17.5121 121.583 16.7188 120.779 16.5754C120.309 16.4915 119.821 16.4854 119.341 16.4838C117.473 16.4747 117.473 16.4808 117.475 18.3192H117.473ZM117.475 13.4387C117.475 13.8689 117.475 14.2991 117.475 14.7294C117.475 14.9384 117.482 15.1657 117.769 15.1581C118.727 15.1337 119.698 15.2969 120.64 15.0558C121.356 14.8728 121.887 14.113 121.87 13.4082C121.852 12.653 121.277 11.9375 120.508 11.7986C120.09 11.7224 119.653 11.7315 119.225 11.7285C118.058 11.7234 117.475 12.294 117.475 13.4402V13.4387Z" fill="#7C7C7C"/>
<path d="M174.684 20.5588C172.956 22.3621 170.733 21.9456 169.57 20.7144C168.055 19.111 168 16.4182 169.499 14.8117C170.934 13.2709 172.789 13.2571 174.663 14.8056C174.788 14.4151 174.495 13.7774 175.337 13.8445C175.92 13.8903 176.114 14.0077 176.103 14.618C176.063 16.9553 176.114 19.294 176.063 21.6313C176.027 23.3003 175.023 24.5178 173.444 24.9907C171.744 25.4988 170.118 25.0136 169.164 23.6665C169.009 23.4453 168.472 23.1188 169.021 22.835C169.395 22.6428 169.846 22.0829 170.335 22.8747C170.93 23.8404 171.924 23.9792 172.969 23.7443C173.895 23.5368 174.55 22.7618 174.678 21.7259C174.721 21.3811 174.684 21.0271 174.684 20.5573V20.5588ZM174.707 17.7226C174.707 15.9407 173.453 14.7126 171.917 14.9918C170.547 15.2404 169.669 16.5647 169.859 18.0934C170.04 19.558 171.143 20.5801 172.437 20.4825C173.793 20.3818 174.706 19.2712 174.707 17.7211V17.7226Z" fill="#7A7A7A"/>
<path d="M11.6222 4.41003C12.0997 4.40545 12.5788 4.39478 13.0563 4.39478C16.4432 4.39478 19.8316 4.39478 23.2185 4.3963C23.217 4.6999 23.2154 5.0035 23.2124 5.3071C19.3495 5.3071 15.4851 5.3071 11.6222 5.3071C11.6192 5.23234 11.6146 5.15759 11.6115 5.08283C11.6146 4.85857 11.6176 4.63582 11.6207 4.41156L11.6222 4.41003Z" fill="#357D3C"/>
<path d="M141.227 19.4588C141.772 17.7989 142.316 16.2153 142.803 14.6149C142.966 14.0764 143.178 13.8369 143.789 13.846C144.368 13.8537 144.631 14.0199 144.8 14.5814C145.287 16.2016 145.841 17.8004 146.44 19.6312C146.846 18.2627 147.191 17.1048 147.534 15.9468C147.685 15.4357 147.859 14.9292 147.969 14.409C148.062 13.9711 148.292 13.8552 148.716 13.8598C149.627 13.8704 149.635 13.8552 149.351 14.7355C148.681 16.8134 147.996 18.8852 147.35 20.9692C147.202 21.4452 146.973 21.6038 146.486 21.5794C146.012 21.5565 145.632 21.584 145.452 20.9737C144.959 19.2971 144.391 17.6433 143.827 15.901C143.453 16.3847 143.394 16.8957 143.238 17.3626C142.837 18.5663 142.423 19.767 142.072 20.986C141.927 21.4909 141.657 21.5962 141.192 21.5764C140.748 21.5581 140.393 21.5855 140.219 21.0073C139.572 18.8699 138.855 16.7539 138.193 14.621C138.126 14.4059 137.727 13.9681 138.242 13.9101C138.676 13.8628 139.351 13.5104 139.587 14.3052C140.007 15.7164 140.412 17.1307 140.837 18.5404C140.922 18.8241 140.94 19.1415 141.226 19.4573L141.227 19.4588Z" fill="#7C7C7C"/>
<path d="M86.7166 21.7823C84.988 21.7762 83.4319 20.7434 82.8689 19.3383C82.7057 18.9294 82.7103 18.6624 83.1969 18.5541C83.557 18.4733 83.8896 18.0171 84.213 18.7189C84.8965 20.2079 86.3001 20.7769 87.664 20.2155C88.2834 19.9592 88.7472 19.5488 88.8311 18.8333C88.9196 18.0873 88.677 17.4862 88.0439 17.0559C87.5114 16.6944 86.9118 16.4869 86.3092 16.2855C85.6822 16.075 85.0582 15.8583 84.4968 15.4998C82.6035 14.293 82.5989 11.878 84.4861 10.6559C86.1658 9.56818 88.7411 10.1281 89.7266 11.8093C89.8471 12.0138 90.1767 12.3509 89.7236 12.4684C89.3467 12.566 88.9806 13.2312 88.5015 12.5599C87.7235 11.4706 86.4175 11.1823 85.3542 11.8169C84.3427 12.4211 84.2923 13.5607 85.252 14.2473C85.67 14.5463 86.1475 14.7187 86.6235 14.8987C87.217 15.123 87.8226 15.3259 88.3871 15.6127C89.9585 16.4106 90.5962 17.6525 90.2881 19.2132C90.015 20.5954 88.7563 21.616 87.1392 21.764C86.9622 21.7808 86.7837 21.7808 86.7181 21.7839L86.7166 21.7823Z" fill="#7A7A7A"/>
<path d="M54.3992 21.7808C52.0604 21.79 50.2587 20.037 50.2358 17.7303C50.2129 15.3747 52.0009 13.5546 54.3489 13.5424C56.7029 13.5318 58.5291 15.3457 58.5138 17.6815C58.4986 20.0157 56.735 21.7717 54.3992 21.7808ZM56.6785 17.6998C56.6892 16.2504 55.7235 15.1916 54.3886 15.1886C53.0552 15.184 52.0513 16.2535 52.0559 17.6738C52.0604 19.0698 53.0231 20.1209 54.323 20.1453C55.6747 20.1713 56.6678 19.14 56.6785 17.7013V17.6998Z" fill="#7A7A7A"/>
<path d="M75.1935 21.7823C72.7983 21.7701 71.0743 19.9638 71.1231 17.5167C71.1689 15.2038 72.9188 13.4753 75.1447 13.544C76.6901 13.5928 78.1868 14.8148 78.6124 16.3175C78.7421 16.7752 78.4172 16.7707 78.1898 16.8652C76.7649 17.4648 75.3323 18.0507 73.9044 18.6456C73.2102 18.934 73.1858 19.0957 73.7365 19.6144C74.5604 20.3925 75.938 20.3116 76.9022 19.4344C77.0594 19.2925 77.1784 19.0072 77.4591 19.1857C77.8405 19.4283 78.2905 19.5992 78.5453 19.9882C78.6384 20.1316 78.4111 20.2918 78.2951 20.4169C77.4606 21.3201 76.443 21.8144 75.195 21.7823H75.1935ZM72.9539 17.5258C74.0173 17.0865 74.9937 16.6883 75.9655 16.2748C76.1608 16.1909 76.4781 16.1802 76.4735 15.901C76.4689 15.6325 76.2111 15.4784 75.9838 15.3686C75.3232 15.0497 74.658 15.0665 74.031 15.4479C73.3155 15.8827 72.9112 16.5098 72.9539 17.5243V17.5258Z" fill="#7A7A7A"/>
<path d="M45.3355 21.7808C42.9662 21.7778 41.2026 19.9943 41.2178 17.6189C41.2331 15.3076 43.0288 13.5394 45.3553 13.544C47.7063 13.5485 49.4882 15.3533 49.4745 17.715C49.4608 20.0309 47.6758 21.7854 45.3355 21.7808ZM43.0348 17.6509C43.0287 19.0911 44.0067 20.1469 45.3477 20.1453C46.6597 20.1453 47.6361 19.1201 47.656 17.7242C47.6773 16.2825 46.7116 15.2069 45.3813 15.1901C44.0402 15.1718 43.041 16.2214 43.0348 17.6525V17.6509Z" fill="#7A7A7A"/>
<path d="M109.029 18.0049C108.191 18.0049 107.352 18.014 106.515 18.0018C106.132 17.9957 106.022 18.1452 106.109 18.5129C106.335 19.4573 106.881 20.1347 107.822 20.3681C108.757 20.6 109.694 20.5069 110.275 19.619C110.776 18.8562 111.244 19.4374 111.601 19.6434C112.043 19.8982 111.567 20.2109 111.404 20.4245C110.382 21.761 108.577 22.1836 106.93 21.5062C105.355 20.8578 104.376 19.0988 104.6 17.2787C104.789 15.7363 105.489 14.4898 106.972 13.9055C108.271 13.3929 109.577 13.5195 110.713 14.4258C111.702 15.213 112.027 16.3145 112.105 17.5213C112.129 17.8874 111.973 18.0171 111.616 18.011C110.753 17.9973 109.889 18.0064 109.026 18.0079L109.029 18.0049ZM108.344 16.7768C108.899 16.7768 109.454 16.7615 110.01 16.7813C110.503 16.7981 110.574 16.6044 110.388 16.1863C110.043 15.4083 109.245 14.9216 108.306 14.9445C107.43 14.9658 106.597 15.5532 106.298 16.3221C106.165 16.6639 106.248 16.7829 106.603 16.7783C107.183 16.7691 107.764 16.7752 108.345 16.7768H108.344Z" fill="#7B7B7B"/>
<path d="M96.656 20.6991C95.9207 21.5855 94.9443 21.8784 93.8199 21.7717C92.6177 21.6572 91.6245 20.8273 91.4338 19.7609C91.2095 18.5083 91.7603 17.4526 92.9594 16.9186C94.0243 16.4442 95.1273 16.4686 96.2365 16.7615C96.3951 16.8042 96.5706 16.9827 96.7216 16.8179C96.8757 16.6532 96.7842 16.4274 96.7323 16.2382C96.3906 14.9948 94.3874 14.4746 93.469 15.4891C92.9548 16.0567 92.6085 15.9316 92.0761 15.689C91.6993 15.5181 91.7099 15.3488 91.9098 15.065C92.8114 13.7896 94.0792 13.4814 95.5362 13.698C96.833 13.8903 97.8765 14.766 98.0916 15.9819C98.3983 17.715 98.1725 19.4741 98.2228 21.2224C98.2335 21.6145 97.9284 21.5977 97.6858 21.5596C97.3807 21.5108 96.9337 21.7976 96.8162 21.2377C96.7811 21.0744 96.8711 20.8837 96.656 20.6991ZM94.5003 20.481C95.4309 20.4733 96.4592 19.7319 96.7231 18.8897C96.8681 18.429 96.7857 18.1056 96.2746 17.9484C95.5515 17.7257 94.8207 17.6876 94.0945 17.8783C93.2905 18.0903 92.8191 18.7494 92.9213 19.4329C93.0128 20.0355 93.6932 20.4886 94.4988 20.481H94.5003Z" fill="#7C7C7C"/>
<path d="M11.6222 4.41003C11.6192 4.6343 11.6161 4.85704 11.6131 5.08131C7.75018 5.08131 3.88729 5.08131 0.02441 5.08131C0.02441 4.85246 0.02441 4.62515 0.0228844 4.3963C3.73931 4.3963 7.45573 4.3963 11.1706 4.39783C11.3217 4.39783 11.4727 4.40698 11.6237 4.41156L11.6222 4.41003Z" fill="#5A9F60"/>
<path d="M133.66 21.7823C131.388 21.7778 129.736 20.0782 129.727 17.7379C129.718 15.3564 131.376 13.6492 133.692 13.6538C136.005 13.6584 137.631 15.3656 137.614 17.7715C137.598 20.1118 135.947 21.7854 133.659 21.7823H133.66ZM136.15 17.7532C136.161 16.136 135.111 14.946 133.674 14.943C132.293 14.9414 131.207 16.1421 131.196 17.6799C131.186 19.2773 132.256 20.4871 133.678 20.4825C135.099 20.4779 136.141 19.3276 136.15 17.7532Z" fill="#7B7B7B"/>
<path d="M161.97 14.7523C162.702 14.1573 163.292 13.7408 164.063 13.6523C165.695 13.4677 166.948 14.3083 167.218 15.9285C167.508 17.6647 167.306 19.4268 167.328 21.1767C167.335 21.8388 166.769 21.497 166.456 21.5596C166.072 21.6359 165.848 21.5123 165.857 21.0394C165.881 19.6419 165.883 18.2444 165.854 16.8485C165.832 15.8217 165.356 15.2008 164.548 15.0314C163.527 14.8163 162.738 15.1901 162.267 16.1101C162.064 16.5037 161.999 16.9247 162 17.3641C162.003 18.5328 161.968 19.7029 162.014 20.87C162.037 21.4635 161.829 21.6008 161.274 21.5886C160.76 21.5779 160.497 21.523 160.51 20.8944C160.551 18.8623 160.51 16.8302 160.54 14.798C160.545 14.4761 160.226 13.9132 160.944 13.8735C161.475 13.843 162.07 13.7362 161.971 14.7538L161.97 14.7523Z" fill="#7D7D7D"/>
<path d="M153.412 21.7762C151.913 21.822 150.906 21.2804 150.198 20.1942C150.05 19.9684 149.719 19.6449 150.228 19.4771C150.591 19.3581 150.959 18.815 151.397 19.4619C152.026 20.391 152.859 20.6839 153.826 20.423C154.331 20.2872 154.723 20.037 154.743 19.4558C154.761 18.8989 154.39 18.635 153.922 18.4977C153.264 18.3054 152.585 18.1834 151.937 17.9637C150.567 17.5014 149.922 16.5952 150.18 15.5013C150.419 14.4883 151.206 14.0322 152.128 13.7728C153.505 13.3853 155.034 13.7987 155.736 14.766C155.875 14.9582 156.337 15.245 155.876 15.4907C155.536 15.6707 155.126 16.1589 154.677 15.6158C154.078 14.888 153.299 14.824 152.462 15.036C152.022 15.1474 151.643 15.3686 151.638 15.898C151.632 16.3999 152.003 16.6028 152.405 16.7203C152.965 16.8836 153.54 16.998 154.105 17.1475C155.637 17.5518 156.371 18.4275 156.23 19.6709C156.102 20.812 154.994 21.6984 153.6 21.7732C153.473 21.7793 153.345 21.7732 153.414 21.7732L153.412 21.7762Z" fill="#7B7B7B"/>
<path d="M100.745 18.3558C100.745 17.5441 100.71 16.7295 100.757 15.9194C100.79 15.3488 100.612 15.1169 100.038 15.2054C99.5593 15.2786 99.3091 15.1596 99.3076 14.5753C99.3076 13.994 99.4861 13.7758 100.046 13.8704C100.633 13.9696 100.758 13.7011 100.758 13.1488C100.758 11.164 101.863 10.1708 103.849 10.3234C104.119 10.3447 104.62 10.2791 104.534 10.6651C104.452 11.0389 104.505 11.7391 103.764 11.6537C102.598 11.5179 102.107 12.1953 102.218 13.4997C102.24 13.7484 102.322 13.8735 102.582 13.8674C102.861 13.8613 103.14 13.8674 103.419 13.8704C104.17 13.875 104.428 14.2442 104.209 14.9582C104.11 15.2847 103.866 15.1977 103.657 15.2069C102.7 15.2516 102.221 15.7536 102.22 16.7127C102.22 18.1086 102.186 19.5061 102.235 20.9005C102.258 21.5352 101.976 21.5764 101.468 21.5901C100.911 21.6054 100.696 21.4619 100.732 20.87C100.783 20.0355 100.745 19.1949 100.745 18.3573V18.3558Z" fill="#7D7D7D"/>
<path d="M70.2307 15.5761C70.2307 17.329 70.2108 19.082 70.2429 20.8349C70.252 21.3765 70.1452 21.6069 69.5395 21.581C68.1909 21.523 68.4167 21.6923 68.4121 20.4352C68.4014 17.0056 68.4365 13.576 68.3877 10.1464C68.3755 9.32561 68.8088 9.41562 69.3305 9.40799C69.8737 9.39884 70.281 9.36375 70.252 10.1647C70.1849 11.9665 70.2307 13.7713 70.2307 15.5746V15.5761Z" fill="#7B7B7B"/>
<path d="M0.0244102 5.07979C3.88729 5.07979 7.75018 5.07979 11.6131 5.07979C11.6161 5.15454 11.6207 5.2293 11.6237 5.30405C11.6192 5.38034 11.6161 5.45814 11.6115 5.53442C7.95919 5.53442 4.30684 5.5329 0.656019 5.53442C0.440906 5.53442 0.23037 5.52222 0.0244102 5.45662C0.0244102 5.32999 0.0244102 5.20336 0.0244102 5.07674V5.07979Z" fill="#5FAD64"/>
<path d="M126.415 14.9506C127.121 14.081 127.905 13.6157 128.929 13.7133C129.188 13.7377 129.689 13.6614 129.59 14.0825C129.495 14.4837 129.526 15.1215 128.871 15.1749C126.963 15.3305 126.438 15.8766 126.433 17.7699C126.432 18.786 126.398 19.8036 126.445 20.8166C126.474 21.4314 126.261 21.5886 125.669 21.5901C125.085 21.5932 124.946 21.4086 124.953 20.8487C124.985 18.7677 124.975 16.6852 124.959 14.6027C124.956 14.1451 124.97 13.843 125.582 13.8521C126.152 13.8598 126.461 13.9711 126.351 14.6027C126.34 14.6683 126.374 14.7416 126.412 14.9521L126.415 14.9506Z" fill="#7C7C7C"/>
<path d="M158.827 17.7501C158.827 18.8394 158.802 19.9287 158.837 21.0165C158.854 21.5428 158.593 21.6038 158.188 21.5687C157.815 21.5367 157.348 21.7244 157.355 21.0333C157.376 18.8303 157.377 16.6272 157.355 14.4242C157.348 13.8216 157.702 13.8643 158.098 13.872C158.473 13.8781 158.862 13.7835 158.841 14.409C158.802 15.5212 158.83 16.6364 158.83 17.7516L158.827 17.7501Z" fill="#7A7A7A"/>
<path d="M158.09 12.2746C157.541 12.2624 157.075 11.7849 157.081 11.2372C157.088 10.691 157.574 10.215 158.116 10.2272C158.662 10.2395 159.129 10.7231 159.12 11.2677C159.111 11.8292 158.644 12.2853 158.09 12.2746Z" fill="#7C7C7C"/>
<path d="M11.6207 16.6059C10.1378 16.5784 8.94779 15.9941 8.1804 14.7034C6.67309 12.1678 8.40467 9.04642 11.3888 8.88775C11.4636 8.88318 11.5398 8.8786 11.6146 8.8725C12.4842 8.96251 13.2974 9.21119 13.961 9.80618C15.1693 10.8878 15.6163 12.238 15.1678 13.7987C14.7238 15.3412 13.6513 16.2489 12.0677 16.5403C11.9197 16.5678 11.7687 16.5845 11.6192 16.6059H11.6207Z" fill="#F8F8F8"/>
<path d="M11.6192 20.1606C9.98827 20.1301 8.51909 20.632 7.18112 21.5352C6.94617 21.6939 6.85616 21.6801 6.76005 21.4162C6.32982 20.2201 6.15895 20.5466 7.27723 19.9119C8.61978 19.1506 10.0874 18.8226 11.6237 18.783C13.3172 18.818 14.9084 19.2223 16.3806 20.0782C16.6629 20.2415 16.7544 20.3986 16.6019 20.6991C16.4661 20.9646 16.4722 21.3872 16.2281 21.4894C16.0053 21.5825 15.746 21.2499 15.4943 21.1172C14.2799 20.4764 13.0029 20.1072 11.6192 20.1606Z" fill="#F6F7F6"/>
<path d="M11.6176 22.8869C10.4902 22.8548 9.48634 23.221 8.58775 23.877C8.3528 24.0479 8.23991 24.0296 8.09192 23.7946C7.50761 22.8716 7.35809 23.1279 8.35433 22.4994C9.34598 21.8723 10.4566 21.6099 11.6237 21.5764C12.9556 21.6023 14.1853 21.9563 15.3036 22.6962C15.5309 22.8472 15.5965 22.9647 15.4088 23.192C15.2257 23.4147 15.1174 23.7656 14.8901 23.8694C14.6597 23.9747 14.437 23.6344 14.1975 23.5124C13.3858 23.0974 12.5422 22.832 11.6176 22.8884V22.8869Z" fill="#F6F7F6"/>
<path d="M11.6222 27.4729C11.4742 27.4805 11.3995 27.3661 11.314 27.2792C10.6855 26.6414 10.0691 25.9931 9.43142 25.366C9.21478 25.1524 9.29564 25.0502 9.49702 24.9099C10.1393 24.4644 10.8548 24.2615 11.6253 24.2218C12.3713 24.2447 13.067 24.4278 13.7093 24.8244C13.9488 24.9724 13.9457 25.0701 13.7611 25.2714C13.0655 26.022 12.356 26.7574 11.6237 27.4729H11.6222Z" fill="#F7F8F7"/>
<path d="M5.31375 1.51744C5.72415 1.52812 5.95146 1.79358 5.93621 2.24212C5.924 2.57013 5.59599 2.88746 5.27409 2.87983C4.91862 2.8722 4.55704 2.50758 4.57688 2.17652C4.59823 1.80426 4.93082 1.50677 5.31375 1.51744Z" fill="#FEFEFE"/>
<path d="M3.43418 2.18262C3.42961 2.54877 3.11838 2.88136 2.78274 2.87983C2.41812 2.87983 2.06722 2.53504 2.07485 2.18567C2.08248 1.82715 2.40134 1.5144 2.75986 1.51745C3.11838 1.5205 3.44029 1.8363 3.43571 2.18109L3.43418 2.18262Z" fill="#FEFEFE"/>
</g>
<defs>
<clipPath id="clip0_4_109">
<rect width="176.103" height="32" fill="white" transform="translate(0 0.000976562)"/>
</clipPath>
</defs>
</svg>
