<svg width="80" height="32" viewBox="0 0 80 32" fill="none" xmlns="http://www.w3.org/2000/svg">
<path d="M13.7726 11.9818C12.7676 11.9818 11.7626 11.9818 10.7574 11.9818C10.5641 11.9818 10.4675 11.8839 10.4675 11.688C10.4675 10.9845 10.4675 10.2809 10.4675 9.5774C10.4675 9.50568 10.4733 9.43374 10.4701 9.36223C10.4651 9.25367 10.533 9.22869 10.6189 9.23084C12.8144 9.2862 15.0103 9.24053 17.2062 9.25389C17.9958 9.25863 18.7856 9.25432 19.5752 9.2541C19.7618 9.2541 19.7697 9.27047 19.8189 9.44752C19.8755 9.65085 19.8512 9.85999 19.8854 10.065C19.9569 10.4913 19.9296 10.9227 19.9309 11.3524C19.9315 11.5523 19.9302 11.7503 19.8936 11.9501C19.8395 12.2439 19.8238 12.5448 19.7721 12.839C19.6536 13.5121 19.4854 14.1717 19.2265 14.8073C18.9702 15.4369 18.6577 16.0346 18.2508 16.5791C18.0589 16.836 17.8487 17.079 17.6367 17.3211C17.4005 17.5912 17.1336 17.826 16.8693 18.0631C16.6179 18.2886 16.3446 18.4917 16.07 18.6892C15.6612 18.9835 15.2127 19.2118 14.757 19.4231C14.2575 19.6548 13.7434 19.8504 13.2051 19.9736C12.8482 20.0553 12.4915 20.1507 12.1292 20.1907C11.8753 20.2189 11.6183 20.2605 11.3603 20.2515C11.1447 20.2439 10.9319 20.2737 10.7176 20.2818C10.1295 20.304 9.5439 20.2497 8.96084 20.1925C8.68945 20.1657 8.40664 20.1347 8.1499 20.0077C8.05577 19.9611 7.93968 19.9943 7.835 19.9635C7.34822 19.8203 6.86057 19.6768 6.39813 19.467C6.06255 19.3145 5.72439 19.1646 5.40906 18.9682C5.2598 18.8751 5.09481 18.8062 4.94662 18.7078C4.61837 18.4898 4.29873 18.2598 3.99072 18.0144C3.40895 17.5511 2.88491 17.0314 2.42118 16.4479C2.22216 16.1976 2.02852 15.9435 1.84544 15.6826C1.70027 15.4756 1.57879 15.2506 1.46118 15.0259C1.38903 14.8881 1.31041 14.7534 1.23761 14.616C1.0093 14.1857 0.860677 13.7245 0.682119 13.2746C0.526823 12.8834 0.471252 12.4686 0.349988 12.0699C0.32371 11.9837 0.352788 11.8819 0.332111 11.7929C0.155706 11.0397 0.206969 10.2742 0.205246 9.51235C0.2046 9.2918 0.235831 9.06994 0.267063 8.85068C0.32048 8.47612 0.378635 8.10349 0.468452 7.73388C0.579378 7.27833 0.727997 6.83958 0.908924 6.40837C1.01748 6.14947 1.11742 5.88713 1.25462 5.64115C1.38494 5.40746 1.51395 5.1729 1.64706 4.94071C1.83079 4.62064 2.04769 4.32448 2.27126 4.03047C2.59198 3.60874 2.94888 3.22254 3.32474 2.85186C3.65837 2.52253 4.02238 2.22809 4.40018 1.95347C4.98216 1.53023 5.60313 1.166 6.26201 0.879104C6.88427 0.608359 7.52914 0.397923 8.1947 0.247581C8.60437 0.154963 9.01749 0.0946542 9.43168 0.053084C9.96477 -0.000332659 10.5007 -0.0186408 11.0391 0.0265911C11.3527 0.0528686 11.6655 0.0733306 11.978 0.116409C12.395 0.173702 12.8058 0.254904 13.2098 0.36863C13.8474 0.548265 14.4647 0.782824 15.0497 1.09557C15.6732 1.42856 16.2658 1.80786 16.8058 2.26837C16.9352 2.37886 17.0582 2.49797 17.1969 2.59921C17.3393 2.70302 17.3341 2.78379 17.2185 2.91303C16.7159 3.47412 16.1725 3.99515 15.6433 4.53017C15.608 4.56593 15.572 4.60082 15.5367 4.63679C15.4699 4.70486 15.4025 4.70356 15.3306 4.64325C15.2048 4.53836 15.073 4.44014 14.9513 4.33094C14.6112 4.02573 14.209 3.81207 13.8235 3.57708C13.6068 3.44504 13.3498 3.38107 13.1189 3.26971C12.8603 3.14522 12.5813 3.08276 12.3121 2.99272C12.1225 2.9294 11.9194 2.88718 11.7213 2.85983C11.199 2.78724 10.6728 2.73835 10.1435 2.76441C9.76683 2.78293 9.38882 2.8202 9.02244 2.89817C8.51369 3.00651 8.01485 3.16051 7.53539 3.37181C6.97559 3.61865 6.46318 3.93591 5.97791 4.31026C5.50922 4.6719 5.09739 5.08717 4.7308 5.5438C4.25587 6.13569 3.88949 6.80124 3.63059 7.51225C3.42188 8.08518 3.26917 8.67987 3.22049 9.29438C3.16298 10.0235 3.16255 10.7472 3.29394 11.4726C3.38698 11.9857 3.52806 12.4828 3.70511 12.9689C3.80699 13.2483 3.95755 13.5115 4.09949 13.7745C4.40922 14.3481 4.79843 14.8628 5.25226 15.3322C5.78664 15.8849 6.39749 16.3275 7.07273 16.6922C7.47487 16.9093 7.89638 17.0745 8.3263 17.2173C8.59425 17.3062 8.87813 17.3493 9.15684 17.4032C9.64944 17.4986 10.1511 17.538 10.6486 17.5165C11.0001 17.5012 11.3581 17.5216 11.7081 17.4256C11.8951 17.3743 12.0956 17.3629 12.2893 17.3258C12.6266 17.2612 12.9494 17.152 13.2695 17.0323C13.8153 16.8276 14.318 16.5371 14.7822 16.192C15.1287 15.9342 15.4441 15.6337 15.7357 15.3087C15.9892 15.0261 16.1889 14.7142 16.3713 14.3847C16.6442 13.8921 16.8101 13.3601 16.9505 12.8212C17.0013 12.6265 17.0638 12.4311 17.0858 12.2278C17.1073 12.0272 17.0759 11.9833 16.8743 11.9831C15.8404 11.9822 14.8065 11.9818 13.7726 11.9818Z" fill="#3075F1"/>
<path d="M61.8599 14.0714C61.8599 15.9664 61.8591 17.8616 61.8604 19.7566C61.861 20.5415 61.7204 21.3031 61.5017 22.054C61.3292 22.6467 61.0763 23.202 60.7322 23.7127C60.5084 24.0446 60.2428 24.3431 59.9524 24.6212C59.6526 24.9085 59.3127 25.1342 58.9604 25.3488C58.5386 25.6057 58.0762 25.7658 57.612 25.9103C57.3546 25.9906 57.0809 26.0406 56.8043 26.0621C56.4125 26.0929 56.0237 26.1472 55.6281 26.1461C55.2964 26.1453 54.972 26.0964 54.6461 26.0578C54.1921 26.0042 53.7509 25.9012 53.3258 25.7203C52.931 25.5523 52.5497 25.3643 52.1943 25.1248C52.0535 25.0298 51.9076 24.938 51.7827 24.8245C51.5197 24.5859 51.2485 24.3582 51.0153 24.0836C50.7381 23.7573 50.4846 23.4174 50.2629 23.0536C50.1576 22.8806 50.0527 22.7049 49.9885 22.5099C49.9282 22.3271 49.9512 22.2624 50.1236 22.1903C50.5425 22.015 50.9623 21.8412 51.3842 21.6734C51.6502 21.5676 51.9085 21.442 52.1844 21.3602C52.3714 21.3046 52.3923 21.3005 52.4715 21.4659C52.6559 21.8511 52.8963 22.197 53.1909 22.5035C53.7051 23.0383 54.3088 23.4049 55.0553 23.5307C55.7267 23.644 56.3824 23.602 57.0221 23.3859C57.8931 23.0917 58.5022 22.5097 58.844 21.6529C59.0693 21.0881 59.1796 20.5016 59.1762 19.8936C59.1744 19.5778 59.1764 19.2621 59.1749 18.9461C59.1749 18.9062 59.1913 18.8558 59.1421 18.8313C59.0911 18.8057 59.0446 18.8229 59.0045 18.8597C58.9834 18.8791 58.9623 18.8985 58.9431 18.9196C58.3312 19.5903 57.5541 19.9651 56.6841 20.1622C55.8374 20.3539 54.998 20.3041 54.1604 20.0745C53.4408 19.8772 52.7897 19.5505 52.165 19.1494C51.7577 18.8877 51.4043 18.5705 51.0792 18.22C50.8335 17.9549 50.6287 17.6548 50.4247 17.3554C50.0434 16.7961 49.791 16.1753 49.6049 15.5335C49.5246 15.2567 49.4625 14.9644 49.4427 14.6648C49.4199 14.3215 49.3975 13.9794 49.3962 13.6352C49.3945 13.2051 49.4625 12.7838 49.534 12.3614C49.6661 11.5821 49.9801 10.8774 50.3975 10.2148C50.7176 9.70652 51.0876 9.23396 51.5434 8.84216C51.9578 8.48612 52.3858 8.14688 52.895 7.91965C53.116 7.821 53.3299 7.7062 53.5579 7.61832C53.9935 7.45053 54.4417 7.34111 54.9035 7.28296C55.3384 7.22825 55.7739 7.21985 56.2096 7.27219C56.9783 7.3648 57.6898 7.61143 58.3342 8.04759C58.549 8.19298 58.7411 8.36141 58.9196 8.54751C58.9494 8.57853 58.9769 8.61363 59.0118 8.63733C59.1027 8.69893 59.1766 8.65843 59.1816 8.54148C59.1854 8.44865 59.1764 8.35517 59.176 8.26212C59.1751 8.10424 59.1704 7.94593 59.179 7.78848C59.1861 7.65773 59.2199 7.63103 59.3524 7.63081C60.1204 7.62973 60.8885 7.6293 61.6566 7.63081C61.8418 7.63124 61.8584 7.64998 61.8593 7.84749C61.861 8.25673 61.8597 8.66576 61.8597 9.075C61.8597 10.7404 61.8599 12.406 61.8599 14.0714ZM55.8755 17.7095C56.5958 17.7457 57.2351 17.5034 57.819 17.0933C58.3551 16.7168 58.7307 16.2072 59.0006 15.6175C59.168 15.2517 59.2832 14.8696 59.3201 14.4658C59.3524 14.1106 59.3666 13.7567 59.3521 13.3992C59.3295 12.8387 59.1867 12.3108 58.9504 11.8094C58.6903 11.2571 58.3181 10.7938 57.8222 10.4248C57.0436 9.84566 56.1708 9.68498 55.2389 9.84265C54.7667 9.92256 54.3228 10.1078 53.9215 10.3915C53.3884 10.7684 52.9725 11.2401 52.6811 11.8204C52.4515 12.2772 52.3136 12.7653 52.2546 13.2725C52.2156 13.6072 52.2176 13.9471 52.2527 14.2808C52.2915 14.6497 52.3948 15.0066 52.5273 15.3571C52.794 16.062 53.2306 16.6363 53.8397 17.067C54.443 17.4937 55.115 17.7434 55.8755 17.7095Z" fill="#3075F1"/>
<path d="M35.1098 14.2519C35.1081 13.9015 35.1042 13.5512 35.1122 13.2006C35.1148 13.0927 35.174 12.9968 35.1546 12.8891C35.1721 12.8766 35.1772 12.8605 35.1686 12.8404C35.2031 12.4349 35.2862 12.0379 35.4131 11.6528C35.5087 11.3624 35.6104 11.0697 35.751 10.7998C35.9063 10.5017 36.0786 10.2116 36.2747 9.93354C36.5547 9.53658 36.8771 9.17774 37.2305 8.85465C37.5989 8.518 38.0195 8.24747 38.4639 8.00322C39.1141 7.64589 39.8109 7.45828 40.5217 7.30686C40.8338 7.24031 41.161 7.24483 41.4813 7.21726C41.5013 7.22588 41.5172 7.22071 41.5295 7.20305C42.3626 7.22006 43.1805 7.3312 43.9643 7.62478C44.4427 7.8042 44.9051 8.01679 45.3329 8.30498C45.7079 8.55763 46.068 8.82579 46.3788 9.15383C46.8572 9.6587 47.2735 10.2084 47.5615 10.8474C47.672 11.0928 47.7836 11.3372 47.8745 11.5907C47.8656 11.6103 47.8755 11.6222 47.8917 11.631C48.0158 12.0541 48.1163 12.4838 48.1715 12.9199C48.2264 13.3537 48.2122 13.7929 48.1971 14.2301C48.1939 14.3232 48.1915 14.4162 48.1887 14.5091C48.1579 14.5502 48.1622 14.5944 48.1782 14.6394C48.0851 14.917 48.0638 15.2102 47.9897 15.4932C47.8738 15.9349 47.7097 16.3554 47.5107 16.7635C47.1271 17.5506 46.5772 18.2148 45.9155 18.7751C45.6027 19.04 45.2527 19.269 44.8879 19.4738C44.4956 19.6941 44.0812 19.8553 43.6642 20.0037C43.3362 20.1204 42.9795 20.1562 42.6355 20.2279C42.6177 20.2171 42.6037 20.2229 42.5925 20.2386C42.4923 20.2475 42.3919 20.2563 42.2918 20.2649C42.2715 20.2563 42.2543 20.2602 42.2401 20.2774C41.7163 20.2921 41.1931 20.2828 40.671 20.2343C40.657 20.2171 40.6397 20.2134 40.6195 20.2218C40.4037 20.182 40.1823 20.1611 39.9731 20.0989C39.4486 19.9429 38.9289 19.7743 38.446 19.5052C38.1108 19.3185 37.7919 19.1126 37.4957 18.869C37.3214 18.7257 37.1649 18.5646 37.0012 18.4115C36.6736 18.1048 36.4028 17.7576 36.1579 17.389C35.9882 17.1334 35.8381 16.865 35.7037 16.5852C35.5389 16.2425 35.4534 15.8768 35.3181 15.527C35.3058 15.4951 35.2856 15.4684 35.2836 15.4307C35.2696 15.1632 35.1583 14.9103 35.1641 14.6396C35.1783 14.6081 35.1775 14.5782 35.154 14.5509C35.1426 14.4658 35.1311 14.3807 35.1197 14.2956C35.1219 14.2904 35.1271 14.284 35.1258 14.2801C35.1221 14.27 35.1154 14.2614 35.1098 14.2519ZM45.3469 13.7412C45.3583 13.5303 45.3501 13.2908 45.3092 13.0595C45.215 12.5283 45.0419 12.0207 44.7616 11.5554C44.5491 11.2024 44.2861 10.8864 43.9686 10.6269C43.5021 10.2456 42.9711 9.98523 42.3751 9.86634C42.1063 9.81271 41.8362 9.79612 41.5633 9.80301C41.2465 9.81098 40.9406 9.87366 40.6331 9.95163C40.1176 10.0824 39.6819 10.3548 39.2905 10.6917C39.0105 10.9327 38.7781 11.2235 38.5782 11.5453C38.2002 12.1546 38.0352 12.8178 37.9851 13.5198C37.9652 13.7991 37.9926 14.0763 38.0251 14.3546C38.0729 14.7645 38.1668 15.1632 38.3458 15.5311C38.7391 16.339 39.3134 16.9744 40.145 17.3625C41.0955 17.806 42.0505 17.8261 43.0176 17.4382C43.7691 17.1366 44.349 16.6235 44.7627 15.9354C45.1612 15.2724 45.3658 14.5478 45.3469 13.7412Z" fill="#FBB006"/>
<path d="M21.0257 15.2808C20.9529 15.1483 20.993 14.9952 20.9484 14.8576C20.951 14.852 20.957 14.8449 20.9553 14.8408C20.9507 14.8298 20.9432 14.8203 20.9367 14.8102C20.8775 14.4839 20.8857 14.1528 20.8678 13.8235C20.8678 13.7828 20.8678 13.7421 20.8678 13.7016C20.8715 13.5885 20.8797 13.4756 20.8779 13.3625C20.8749 13.1711 20.901 12.9824 20.9219 12.7928C20.924 12.7791 20.9264 12.7653 20.9286 12.7515C20.9318 12.7254 20.935 12.6994 20.938 12.6733C20.9568 12.6606 20.9626 12.6444 20.9501 12.624C20.9783 12.4969 21.016 12.3715 21.0223 12.2401C21.0397 12.2279 21.0475 12.2134 21.0328 12.1938C21.0808 11.8408 21.1827 11.4992 21.3272 11.1783C21.4354 10.9381 21.548 10.6971 21.6835 10.4664C21.8517 10.1802 22.0337 9.90554 22.2392 9.64729C22.4068 9.43664 22.5937 9.24128 22.771 9.03817C22.8098 8.99358 22.8613 8.97118 22.9117 8.94598C22.9325 8.94813 22.9427 8.93758 22.944 8.91733C23.4607 8.36895 24.1165 8.0282 24.7905 7.73226C25.3684 7.47831 25.9919 7.362 26.6174 7.2752L26.6377 7.28037L26.6562 7.27089C26.7159 7.27089 26.7764 7.27972 26.8341 7.25582C26.8537 7.2668 26.8681 7.25969 26.8796 7.24246C27.1927 7.24182 27.5059 7.24095 27.8191 7.24031C27.8574 7.27498 27.9007 7.2724 27.9457 7.25732C28.0728 7.26809 28.1999 7.27886 28.327 7.28942C28.3406 7.30815 28.3578 7.31203 28.3785 7.30191C28.436 7.31009 28.4937 7.31806 28.5512 7.32625C28.5615 7.34197 28.5738 7.3508 28.5919 7.3368C29.1394 7.4572 29.6781 7.60065 30.1903 7.83823C31.068 8.24532 31.8232 8.80554 32.4452 9.55079C32.8909 10.0847 33.2379 10.6749 33.491 11.3172C33.6333 11.6791 33.747 12.0549 33.8084 12.4428C33.8272 12.5617 33.8547 12.6791 33.8784 12.7971C33.8756 12.8025 33.8692 12.8092 33.8707 12.8131C33.8748 12.8239 33.8821 12.8331 33.8881 12.8432C33.8881 12.9152 33.8929 12.9867 33.9161 13.0554C33.9041 13.0886 33.9028 13.1202 33.9286 13.1484C33.9409 13.5433 33.9415 13.9383 33.9286 14.3331C33.9028 14.3611 33.9041 14.3928 33.9159 14.4257C33.906 14.5101 33.8963 14.5944 33.8864 14.6788C33.8675 14.6913 33.8623 14.7079 33.8718 14.7285C33.8636 14.8729 33.7987 15.0081 33.8015 15.1542C33.7835 15.1662 33.7776 15.1819 33.7867 15.2024C33.581 16.1055 33.2107 16.9369 32.6613 17.6815C32.4767 17.9316 32.2559 18.1567 32.0414 18.3852C31.7536 18.6921 31.4267 18.9482 31.0855 19.1794C30.6424 19.4794 30.1662 19.7299 29.6495 19.8895C29.5273 19.9272 29.4054 19.9662 29.2835 20.0047C29.2622 19.9963 29.2473 20.0045 29.2366 20.0233C29.1371 20.047 29.0376 20.0706 28.938 20.0943C28.9174 20.0831 28.9031 20.0918 28.8924 20.1096C28.5245 20.1915 28.1523 20.2414 27.7762 20.2645C27.7622 20.2561 27.7495 20.2578 27.7385 20.2699C27.7062 20.2705 27.6741 20.271 27.6418 20.2716C27.5813 20.2488 27.5212 20.2464 27.4622 20.2763C27.3999 20.2763 27.3377 20.2763 27.2757 20.2763C27.2166 20.246 27.1566 20.2492 27.0958 20.271C26.9388 20.2593 26.7818 20.2477 26.6248 20.2363C26.6123 20.2173 26.5959 20.2122 26.5752 20.2221C26.1608 20.1658 25.7477 20.1101 25.3468 19.9782C24.9283 19.8406 24.5256 19.6733 24.1377 19.4637C23.4928 19.1152 22.9356 18.657 22.4555 18.1093C22.1115 17.7167 21.8 17.2986 21.5795 16.8167C21.4429 16.5184 21.2738 16.2361 21.1838 15.9158C21.1293 15.7219 21.0834 15.5264 21.0363 15.331C21.0388 15.325 21.0449 15.3176 21.0431 15.3131C21.0391 15.3015 21.0317 15.2916 21.0257 15.2808ZM23.7036 13.8009C23.6991 14.3088 23.7861 14.8485 23.9976 15.3683C24.3074 16.1292 24.7993 16.7411 25.4937 17.1775C26.169 17.6018 26.9106 17.7823 27.7103 17.7132C28.6147 17.635 29.3746 17.2533 29.9995 16.608C30.4921 16.0991 30.8214 15.4958 30.9774 14.7973C31.1008 14.2448 31.1301 13.6927 31.0551 13.1325C30.9117 12.0594 30.4391 11.1727 29.5691 10.5147C28.6389 9.81098 27.5992 9.62295 26.4764 9.90425C25.6053 10.1224 24.9227 10.6254 24.4131 11.3583C23.9145 12.0756 23.689 12.8792 23.7036 13.8009Z" fill="#E73225"/>
<path d="M75.1598 20.2404C75.0011 20.2509 74.8426 20.2615 74.6838 20.2718C74.6377 20.2505 74.5925 20.249 74.5488 20.2781C74.4411 20.2789 74.3334 20.2798 74.2257 20.2806C74.169 20.2455 74.1104 20.2505 74.0508 20.2714C73.8935 20.2399 73.7333 20.2539 73.575 20.2404C73.564 20.2238 73.5511 20.2143 73.5317 20.2287C73.2383 20.1568 72.9346 20.1514 72.64 20.0717C72.3886 20.0039 72.1457 19.9149 71.9023 19.8292C71.4239 19.6605 70.9897 19.4016 70.5808 19.104C69.9362 18.6349 69.4087 18.0598 68.9784 17.3839C68.6951 16.9393 68.4894 16.4637 68.3061 15.9776C68.2077 15.7165 68.1217 15.4428 68.1082 15.1563C68.1056 15.0997 68.089 15.0437 68.0791 14.9877C68.0881 14.9674 68.0825 14.9515 68.0645 14.9394C68.0386 14.6965 68.0125 14.4533 67.9867 14.2103C67.9897 14.2054 67.9964 14.1985 67.9951 14.1955C67.9904 14.1853 67.9828 14.1765 67.9761 14.1672C67.9779 13.8855 67.9796 13.6038 67.9813 13.3221C68.0007 13.3087 68.005 13.2913 67.9957 13.2699C68.0186 13.0132 68.0416 12.7564 68.0645 12.4997C68.0825 12.4876 68.0884 12.4719 68.0793 12.4514C68.0881 12.3946 68.0968 12.3379 68.1056 12.2811C68.1226 12.2703 68.131 12.2567 68.12 12.2367C68.2109 11.5852 68.4487 10.9825 68.75 10.4046C68.8995 10.1181 69.0824 9.85126 69.2717 9.58676C69.4809 9.29427 69.7296 9.04247 69.9795 8.79284C70.3571 8.41548 70.7988 8.12039 71.2794 7.88454C71.6649 7.69543 72.0597 7.52225 72.4765 7.42576C72.8358 7.34262 73.2019 7.27176 73.5741 7.25797C73.5948 7.26917 73.6092 7.26099 73.6204 7.24289C73.9047 7.24203 74.1891 7.24139 74.4734 7.24052C74.4973 7.26572 74.5257 7.27025 74.5574 7.25775C74.6569 7.26745 74.7564 7.27714 74.8559 7.28683C74.8684 7.30385 74.883 7.31053 74.902 7.29653C74.9455 7.31613 74.9912 7.31871 75.0377 7.31548L75.0564 7.3241L75.0765 7.31849C75.4329 7.41068 75.7954 7.48628 76.1351 7.63103C76.5995 7.82897 77.0423 8.06676 77.4414 8.38187C77.7501 8.6257 78.0396 8.89019 78.2978 9.18528C78.6638 9.60335 78.9739 10.0632 79.2432 10.5483C79.4362 10.8959 79.5673 11.2733 79.7244 11.6381C79.7855 11.7803 79.8437 11.9237 79.9033 12.0663C79.884 12.0704 79.8762 12.0838 79.8751 12.1021C79.8353 12.1294 79.8146 12.1736 79.7597 12.1908C79.4284 12.2951 79.115 12.445 78.796 12.5805C78.3853 12.7551 77.97 12.9195 77.5565 13.0879C76.8741 13.366 76.1907 13.6415 75.5094 13.9223C74.9535 14.1515 74.4004 14.3882 73.8451 14.6193C73.1705 14.9002 72.4948 15.1783 71.8198 15.4581C71.6677 15.521 71.5161 15.5849 71.3649 15.6498C71.1708 15.7329 71.1663 15.7364 71.2791 15.927C71.5029 16.3048 71.759 16.6571 72.0963 16.9451C72.6673 17.4326 73.3292 17.6837 74.0771 17.7143C74.1057 17.739 74.1361 17.741 74.1682 17.7216C74.2726 17.7524 74.3773 17.7384 74.4818 17.722C74.5276 17.7434 74.572 17.7429 74.614 17.7123C75.4978 17.6809 76.2521 17.346 76.8903 16.7399C76.9071 16.7403 76.9155 16.7321 76.915 16.7153C76.9534 16.6877 76.9984 16.6668 77.0156 16.6175C77.0341 16.6154 77.0451 16.6059 77.0453 16.5863C77.206 16.442 77.3376 16.274 77.4593 16.0961C77.5629 15.9446 77.6015 15.9388 77.7555 16.0416C78.3353 16.4282 78.9134 16.8172 79.4926 17.2049C79.5456 17.2402 79.5999 17.2736 79.6544 17.3065C79.7853 17.3858 79.7961 17.414 79.6981 17.5329C79.3218 17.99 78.9352 18.4352 78.4738 18.8141C78.1356 19.0917 77.7777 19.3273 77.3938 19.5373C77.0003 19.7525 76.5887 19.9013 76.1633 20.0299C75.9464 20.0956 75.7248 20.1303 75.5062 20.1822C75.4864 20.171 75.4728 20.1796 75.462 20.1966C75.3754 20.2022 75.2878 20.2005 75.2038 20.2281C75.1844 20.2137 75.1708 20.2238 75.1598 20.2404ZM70.7202 13.1476C70.7202 13.2409 70.7178 13.3341 70.7209 13.4272C70.7241 13.5256 70.7747 13.5517 70.8634 13.5131C70.9029 13.4961 70.9442 13.4834 70.9838 13.4668C71.745 13.1515 72.5067 12.8366 73.2674 12.5202C73.9224 12.2479 74.5765 11.9739 75.2309 11.7006C75.6141 11.5406 75.9981 11.3825 76.38 11.2194C76.5751 11.1361 76.5855 11.102 76.478 10.9155C76.4104 10.7979 76.344 10.6797 76.2467 10.5804C75.5615 9.88185 74.717 9.64298 73.7701 9.758C73.1632 9.83166 72.6195 10.0809 72.1297 10.4576C71.243 11.1399 70.8051 12.0487 70.7202 13.1476Z" fill="#E73225"/>
<path d="M63.8277 10.2502C63.8277 7.15652 63.8277 4.06266 63.8277 0.96902C63.8277 0.682552 63.7885 0.680398 64.1232 0.681044C64.8913 0.682552 65.6594 0.681044 66.4275 0.68169C66.6655 0.68169 66.6821 0.699783 66.6847 0.940158C66.6849 0.968805 66.6847 0.997667 66.6847 1.02631C66.6847 7.20671 66.6847 13.3869 66.6851 19.5673C66.6851 19.9128 66.6847 19.8645 66.3782 19.8649C65.6172 19.8662 64.8564 19.8654 64.0955 19.8654C64.0379 19.8654 63.9807 19.866 63.9231 19.8634C63.8639 19.8609 63.8314 19.8275 63.8294 19.7685C63.8273 19.7038 63.8277 19.6392 63.8277 19.5746C63.8277 16.4665 63.8277 13.3582 63.8277 10.2502Z" fill="#239B41"/>
<path d="M4.33731 28.4945C4.33731 27.4826 4.33731 26.471 4.33731 25.4591C4.33731 25.4089 4.33903 25.3585 4.33731 25.3083C4.33386 25.2023 4.37995 25.1465 4.49002 25.1502C4.5402 25.1519 4.59039 25.15 4.64079 25.15C5.57364 25.15 6.50649 25.1485 7.43935 25.1504C7.9957 25.1517 8.5079 25.3001 8.95548 25.6376C9.19327 25.817 9.36946 26.0518 9.48878 26.3238C9.82673 27.0934 9.80368 27.8466 9.33112 28.5531C9.12391 28.8629 8.84584 29.1112 8.47343 29.2266C8.42756 29.2409 8.37888 29.2475 8.33451 29.2775C8.29445 29.3044 8.27571 29.3117 8.29229 29.3682C8.31297 29.4377 8.34075 29.5008 8.3778 29.562C8.74913 30.1774 9.11982 30.7934 9.49137 31.4088C9.53897 31.4878 9.58915 31.5651 9.63869 31.6431C9.72334 31.7762 9.70396 31.8251 9.55447 31.8262C9.10237 31.8298 8.65027 31.8273 8.19817 31.8305C8.13269 31.8309 8.08853 31.8092 8.05773 31.7545C7.92634 31.5212 7.78225 31.2942 7.66895 31.0525C7.60541 30.9168 7.52658 30.7904 7.44969 30.6663C7.24119 30.3299 7.07491 29.971 6.87481 29.6305C6.80976 29.5198 6.73847 29.4627 6.6045 29.4687C6.38975 29.4784 6.17393 29.4698 5.95876 29.4718C5.75199 29.4737 5.73002 29.4961 5.72958 29.7126C5.72851 30.3297 5.72915 30.9468 5.72915 31.5641C5.72915 31.6142 5.72829 31.6644 5.72851 31.7148C5.72851 31.7962 5.68608 31.8281 5.60724 31.8277C5.21976 31.826 4.83227 31.8251 4.44478 31.8266C4.37026 31.8268 4.34183 31.7911 4.34011 31.7237C4.33838 31.659 4.33752 31.5946 4.33752 31.53C4.33752 30.5181 4.33731 29.5064 4.33731 28.4945ZM6.64111 28.2091C6.84186 28.2091 7.04239 28.2059 7.24313 28.2102C7.38852 28.2135 7.52637 28.1846 7.66292 28.1383C8.02607 28.0146 8.24254 27.7314 8.25826 27.3562C8.2742 26.9704 8.09069 26.6775 7.74908 26.514C7.60175 26.4434 7.44559 26.4208 7.29202 26.4169C6.84078 26.405 6.38911 26.4102 5.93787 26.4137C5.77223 26.415 5.73712 26.4509 5.74208 26.6174C5.74919 26.8615 5.7438 27.1059 5.74854 27.35C5.75285 27.5742 5.72592 27.7995 5.75134 28.0246C5.77159 28.2048 5.77094 28.207 5.95359 28.2087C6.18298 28.2109 6.41172 28.2089 6.64111 28.2091Z" fill="#6D6E71"/>
<path d="M28.6901 27.0157C29.1084 27.0157 29.5099 27.0178 29.9114 27.0139C29.9967 27.0131 30.0309 27.0641 30.0441 27.1262C30.1393 27.5785 30.3051 28.011 30.412 28.4607C30.51 28.8738 30.6476 29.2773 30.7658 29.6856C30.8042 29.8179 30.8126 29.9613 30.9188 30.083C31.0407 29.9734 31.0456 29.8224 31.0917 29.6981C31.2272 29.3324 31.3394 28.9583 31.4585 28.5865C31.5604 28.2688 31.6461 27.9451 31.7653 27.6343C31.8206 27.4897 31.8648 27.3424 31.9124 27.1964C31.9759 27.0012 31.9766 27.017 32.1422 27.0157C32.4149 27.0137 32.688 27.0202 32.9604 27.0129C33.0716 27.0099 33.1315 27.0506 33.1649 27.1529C33.2489 27.4098 33.3385 27.6651 33.4229 27.9218C33.6469 28.602 33.8694 29.2829 34.0938 29.9631C34.1078 30.0057 34.0971 30.071 34.172 30.0723C34.2459 30.0736 34.2312 30.0139 34.2502 29.9702C34.3422 29.758 34.3859 29.5314 34.4503 29.3115C34.58 28.8695 34.6922 28.4226 34.8122 27.978C34.883 27.715 34.9972 27.4645 35.0219 27.1882C35.0331 27.0639 35.0941 27.017 35.2141 27.0163C35.5658 27.0142 35.9175 27.0137 36.2693 27.0163C36.397 27.0172 36.3996 27.0228 36.3627 27.1501C36.1592 27.852 35.9468 28.5514 35.7243 29.2478C35.5346 29.842 35.3633 30.4423 35.1824 31.0394C35.1189 31.2494 35.0512 31.4583 34.9855 31.6677C34.9496 31.7822 34.8862 31.8363 34.7521 31.8318C34.415 31.8204 34.0775 31.8292 33.7399 31.8273C33.6034 31.8264 33.5476 31.784 33.5134 31.6552C33.3811 31.157 33.2066 30.6719 33.0567 30.1793C32.9268 29.7526 32.8026 29.3244 32.6591 28.9018C32.6453 28.8613 32.6322 28.8232 32.6111 28.7862C32.5928 28.7539 32.6182 28.689 32.5503 28.6957C32.5025 28.7002 32.4806 28.739 32.4724 28.7853C32.4375 28.983 32.3554 29.1663 32.2962 29.3565C32.0599 30.1151 31.82 30.8724 31.58 31.6297C31.5197 31.8197 31.5083 31.827 31.3095 31.8277C30.9864 31.8288 30.6633 31.8288 30.3404 31.8277C30.1703 31.827 30.1668 31.8266 30.1102 31.6487C29.9515 31.1505 29.7979 30.6508 29.6385 30.1528C29.4492 29.5616 29.2917 28.9611 29.0903 28.3733C28.9417 27.939 28.8293 27.4923 28.6901 27.0157Z" fill="#6E6F72"/>
<path d="M13.3029 29.8032C12.8075 29.8032 12.3121 29.8032 11.8167 29.8032C11.7736 29.8032 11.7303 29.8013 11.6875 29.8039C11.5561 29.8114 11.5195 29.8517 11.5518 29.9796C11.5759 30.0751 11.6119 30.1707 11.6601 30.2564C11.9991 30.8591 12.6675 31.1275 13.3294 30.9235C13.5631 30.8513 13.7916 30.7656 13.9939 30.6166C14.1655 30.4899 14.2166 30.5158 14.3503 30.6978C14.4643 30.8531 14.544 31.0305 14.6721 31.1764C14.7456 31.2599 14.737 31.3351 14.6465 31.4144C14.5274 31.5193 14.3908 31.5992 14.2526 31.664C14.004 31.7807 13.746 31.8738 13.4694 31.9207C13.2575 31.9567 13.0434 31.9556 12.8327 31.9957C12.7267 32.0159 12.6216 31.9718 12.5137 31.9668C11.877 31.9371 11.3131 31.7194 10.8688 31.2543C10.6198 30.9937 10.4486 30.6833 10.3279 30.3344C10.1718 29.8827 10.1726 29.4239 10.2144 28.9677C10.2515 28.5622 10.4106 28.187 10.653 27.8469C10.9784 27.3896 11.4122 27.0979 11.944 26.9485C12.4123 26.8169 12.8891 26.7947 13.3589 26.9336C13.8009 27.0646 14.1929 27.2802 14.4914 27.6519C14.6586 27.86 14.8022 28.0767 14.9007 28.3229C15.0672 28.7392 15.1232 29.1758 15.1193 29.621C15.118 29.7765 15.0848 29.8022 14.897 29.8028C14.3656 29.8048 13.8343 29.8032 13.3029 29.8032ZM12.7239 28.9413C12.8958 28.9413 13.0675 28.9413 13.2394 28.9413C13.4112 28.9413 13.5829 28.9395 13.7548 28.9413C13.8373 28.9421 13.8735 28.9025 13.8696 28.8237C13.8677 28.781 13.8672 28.7362 13.8545 28.6964C13.747 28.3616 13.5562 28.0986 13.2217 27.9552C13.0322 27.874 12.8357 27.8589 12.6337 27.8637C12.0756 27.877 11.7034 28.2275 11.5503 28.714C11.4969 28.8842 11.5391 28.9391 11.7146 28.9406C12.0511 28.9434 12.3875 28.9413 12.7239 28.9413Z" fill="#6E6F72"/>
<path d="M26.4891 29.8032C26.0081 29.8032 25.5271 29.803 25.0462 29.8035C24.9744 29.8035 24.9025 29.8054 24.831 29.8099C24.7371 29.816 24.7147 29.8575 24.7388 29.9536C24.9249 30.6939 25.5696 31.0305 26.2211 30.973C26.5789 30.9414 26.9134 30.813 27.2162 30.6116C27.3838 30.5 27.4124 30.5048 27.5262 30.6657C27.6494 30.8401 27.7644 31.0202 27.8854 31.1962C27.9356 31.2692 27.9218 31.3256 27.8611 31.3849C27.6899 31.5507 27.487 31.659 27.2668 31.7478C26.8705 31.9072 26.454 31.986 26.0355 31.9912C25.0625 32.0037 24.2441 31.6737 23.726 30.7986C23.5919 30.5718 23.5214 30.3142 23.4581 30.0527C23.3859 29.7554 23.3911 29.461 23.3928 29.1638C23.3946 28.8883 23.4732 28.6296 23.5705 28.3722C23.6935 28.0463 23.891 27.7788 24.1305 27.5315C24.4291 27.2231 24.7959 27.0404 25.2004 26.931C25.6555 26.8076 26.1201 26.8057 26.5718 26.936C27.1449 27.1014 27.6063 27.4245 27.9087 27.9584C28.1523 28.3884 28.3065 28.8383 28.3042 29.3367C28.3039 29.4 28.3248 29.4634 28.3311 29.5271C28.3511 29.7356 28.2947 29.8007 28.0832 29.8028C27.796 29.8056 27.5089 29.8037 27.2218 29.8037C26.9778 29.8037 26.7331 29.8032 26.4891 29.8032ZM25.8914 28.9413C26.2284 28.9413 26.5653 28.9432 26.9024 28.9404C27.0674 28.9389 27.1006 28.8896 27.0551 28.7265C26.9513 28.3528 26.7378 28.0799 26.3633 27.9375C26.1823 27.8688 26.0006 27.865 25.8147 27.8645C25.3805 27.8637 24.8876 28.1721 24.7444 28.7334C24.7015 28.9014 24.7293 28.9395 24.9019 28.9406C25.2316 28.943 25.5616 28.9413 25.8914 28.9413Z" fill="#6E6F72"/>
<path d="M73.3456 31.4977C73.3445 31.5119 73.3419 31.5264 73.3428 31.5406C73.3637 31.8673 73.368 31.8572 73.0606 31.7299C72.741 31.5974 72.4401 31.4301 72.1336 31.2729C72.0091 31.2091 71.8695 31.1811 71.7476 31.1074C71.6871 31.0708 71.6121 31.0868 71.5447 31.1176C71.3832 31.1912 71.2182 31.2554 71.0597 31.3377C70.771 31.4874 70.4729 31.6192 70.177 31.7551C70.0266 31.824 69.9696 31.7894 69.9978 31.6285C70.0456 31.3556 70.0269 31.0762 70.0891 30.8059C70.093 30.802 70.1003 30.7979 70.1003 30.794C70.1003 30.7837 70.0969 30.7736 70.0947 30.7632C70.1229 30.5435 70.152 30.3241 70.1789 30.1044C70.1925 29.9937 70.129 29.9193 70.0579 29.8446C69.7389 29.5095 69.4229 29.1713 69.1056 28.8344C69.086 28.8135 69.0613 28.7965 69.0453 28.7735C68.9652 28.6578 68.9934 28.5792 69.1364 28.549C69.5276 28.467 69.92 28.3914 70.3118 28.313C70.3816 28.299 70.4516 28.2701 70.5208 28.2716C70.7116 28.2761 70.7982 28.1484 70.8695 28.0071C71.0829 27.5847 71.314 27.1723 71.5479 26.7613C71.6218 26.6318 71.6912 26.6346 71.7644 26.7667C71.9893 27.1712 72.2182 27.5737 72.4358 27.9823C72.5258 28.1514 72.6324 28.2518 72.8388 28.2817C73.2265 28.3379 73.6081 28.436 73.9926 28.5141C74.0482 28.5253 74.1068 28.5228 74.1639 28.5264C74.1761 28.5441 74.1925 28.5486 74.2125 28.5424C74.3764 28.6104 74.387 28.635 74.275 28.756C73.9894 29.0647 73.6973 29.3673 73.4115 29.676C73.3172 29.7778 73.1957 29.8638 73.1735 30.0173C73.1524 30.0363 73.1522 30.055 73.1739 30.0736C73.1715 30.2909 73.2224 30.5024 73.2422 30.7174C73.236 30.7374 73.2409 30.7535 73.2588 30.7656C73.2568 30.9965 73.3036 31.2222 73.3301 31.4499C73.3221 31.4699 73.3281 31.4854 73.3456 31.4977Z" fill="#FBB107"/>
<path d="M50.7135 31.2789C50.7635 30.903 50.813 30.5272 50.8643 30.1517C50.8725 30.0927 50.866 30.0397 50.832 29.9902C50.7398 29.856 50.6597 29.7102 50.5358 29.6034C50.3349 29.43 50.1522 29.2424 49.9939 29.0287C49.9312 28.9441 49.8412 28.8799 49.7652 28.8045C49.735 28.7745 49.702 28.7437 49.6835 28.7069C49.6439 28.6283 49.6727 28.577 49.7639 28.5587C50.1694 28.4769 50.5754 28.3967 50.9812 28.3155C51.0441 28.3028 51.1066 28.2761 51.1695 28.2759C51.3726 28.2751 51.4708 28.1465 51.5566 27.9879C51.7741 27.5856 51.9938 27.1843 52.2189 26.7861C52.3117 26.6219 52.3826 26.6245 52.4687 26.783C52.6824 27.1766 52.8963 27.5699 53.1056 27.9658C53.1961 28.137 53.3047 28.2449 53.519 28.2811C53.9534 28.3547 54.3829 28.4605 54.8184 28.5329C54.8535 28.5387 54.8876 28.5505 54.9218 28.5607C55.0506 28.5984 55.0642 28.6345 54.978 28.731C54.8589 28.8648 54.7366 28.9957 54.6147 29.1267C54.385 29.3733 54.158 29.6223 53.923 29.8638C53.8431 29.9458 53.8289 30.0307 53.8436 30.1367C53.9095 30.6191 53.9709 31.102 54.0348 31.5847C54.0415 31.6347 54.0568 31.689 54.0318 31.7321C54.0073 31.7741 53.9846 31.8324 53.9032 31.7909C53.8358 31.7564 53.7602 31.7377 53.6893 31.7034C53.2984 31.5145 52.8986 31.3433 52.5142 31.1406C52.3761 31.0678 52.2439 31.0928 52.1105 31.1578C51.7282 31.3437 51.3446 31.5272 50.9614 31.7114C50.9358 31.7237 50.9072 31.7312 50.8835 31.7465C50.8262 31.7835 50.7577 31.8087 50.7021 31.7758C50.6258 31.7306 50.6648 31.6453 50.6735 31.5785C50.6844 31.4934 50.7099 31.4103 50.704 31.3232C50.7195 31.3114 50.7241 31.2968 50.7135 31.2789Z" fill="#FBB107"/>
<path d="M44.2949 31.1927C44.3207 30.9493 44.3464 30.7062 44.3722 30.4628C44.3884 30.4503 44.3933 30.4352 44.3828 30.4167C44.4127 30.3411 44.3927 30.2592 44.4095 30.183C44.4405 30.0413 44.3841 29.9355 44.2904 29.8371C44.0649 29.6006 43.8488 29.3548 43.616 29.1256C43.4734 28.9852 43.359 28.823 43.2253 28.6763C43.168 28.6134 43.221 28.5792 43.2901 28.5658C43.5701 28.5113 43.8497 28.4538 44.1295 28.3985C44.3604 28.3528 44.5913 28.3074 44.8228 28.2643C44.9286 28.2447 45.0117 28.185 45.0604 28.0982C45.2418 27.7743 45.4186 27.4473 45.5875 27.1167C45.6549 26.9851 45.7561 26.875 45.8039 26.7294C45.8354 26.6336 45.9431 26.6402 45.9989 26.7378C46.1193 26.9476 46.231 27.1621 46.348 27.3741C46.4751 27.6043 46.6026 27.8346 46.7323 28.0633C46.8012 28.1848 46.8882 28.2531 47.0461 28.2783C47.5247 28.3541 47.9979 28.4631 48.4726 28.5615C48.5973 28.5874 48.6145 28.6324 48.5394 28.7306C48.4916 28.7931 48.4364 28.8499 48.3821 28.907C48.117 29.1877 47.8508 29.4677 47.5852 29.7479C47.5458 29.7895 47.5025 29.8282 47.4695 29.8745C47.412 29.9549 47.37 30.0318 47.409 30.1457C47.4764 30.343 47.4467 30.5569 47.4837 30.7609C47.4758 30.7809 47.4807 30.7971 47.4982 30.8095C47.5021 30.8806 47.5044 30.9521 47.5307 31.0198C47.5288 31.0254 47.524 31.032 47.5255 31.0364C47.5294 31.0469 47.5365 31.0564 47.5421 31.0663C47.5389 31.2171 47.5453 31.3668 47.5805 31.5147C47.5936 31.5699 47.5985 31.6289 47.5962 31.6858C47.5908 31.8212 47.5438 31.8503 47.4226 31.7881C47.0463 31.5951 46.648 31.4477 46.2823 31.2336C46.1852 31.1768 46.0725 31.1619 45.973 31.1059C45.9118 31.0715 45.8259 31.0952 45.7488 31.1292C45.4559 31.2582 45.1705 31.4023 44.8842 31.5449C44.7259 31.6237 44.5622 31.692 44.4017 31.7665C44.3373 31.7965 44.2759 31.799 44.2225 31.7486C44.1678 31.697 44.2122 31.6506 44.2283 31.5961C44.2628 31.4803 44.2904 31.3607 44.2848 31.2373C44.3003 31.2255 44.3055 31.2106 44.2949 31.1927Z" fill="#FBB107"/>
<path d="M66.916 31.6282C66.9177 31.7771 66.8809 31.8068 66.7452 31.7853C66.673 31.7738 66.6185 31.7256 66.555 31.6965C66.1651 31.5175 65.7733 31.3426 65.394 31.1415C65.2736 31.0775 65.153 31.0822 65.0305 31.1412C64.6979 31.3011 64.3606 31.4514 64.033 31.6207C63.9324 31.6726 63.8241 31.7028 63.725 31.7607C63.5917 31.8387 63.5279 31.7848 63.5477 31.6222C63.5893 31.2812 63.6345 30.9405 63.6847 30.6006C63.7078 30.4449 63.6963 30.2846 63.7448 30.1326C63.7648 30.0697 63.7349 30.0176 63.7047 29.9732C63.6334 29.8674 63.5647 29.7554 63.4732 29.6693C63.2283 29.4386 62.9864 29.2068 62.7915 28.9309C62.745 28.865 62.6756 28.8267 62.6149 28.7776C62.5604 28.7336 62.5371 28.6718 62.5556 28.6044C62.5731 28.5413 62.6409 28.5579 62.6836 28.549C63.1443 28.4532 63.605 28.3556 64.0685 28.2755C64.2346 28.2468 64.3307 28.1693 64.4078 28.025C64.6309 27.608 64.8648 27.1968 65.0981 26.7854C65.1892 26.6247 65.2622 26.6252 65.3479 26.7828C65.5625 27.1768 65.7768 27.5707 65.9859 27.9675C66.0766 28.1396 66.1873 28.2451 66.3999 28.2815C66.8344 28.356 67.2636 28.4618 67.6994 28.5329C67.7345 28.5387 67.7685 28.5508 67.8027 28.5609C67.932 28.599 67.9453 28.6341 67.8564 28.7308C67.638 28.968 67.4157 29.2012 67.1962 29.4373C67.0597 29.5842 66.9287 29.736 66.7891 29.8797C66.7219 29.9488 66.7038 30.0227 66.7168 30.1136C66.742 30.2902 66.7633 30.4673 66.7865 30.6441C66.8303 30.9778 66.8742 31.311 66.916 31.6282Z" fill="#FBB107"/>
<path d="M60.4649 31.4986C60.4646 31.5057 60.4644 31.5128 60.464 31.5199C60.458 31.6157 60.5288 31.7351 60.428 31.8008C60.3298 31.8645 60.2551 31.7484 60.1689 31.7159C59.736 31.5529 59.342 31.3052 58.9125 31.1324C58.8176 31.0941 58.7504 31.0883 58.6562 31.1212C58.4074 31.208 58.1837 31.345 57.9459 31.4531C57.7348 31.5492 57.5259 31.65 57.3148 31.7465C57.1429 31.8249 57.1035 31.7952 57.1211 31.6007C57.1347 31.4516 57.1519 31.303 57.1677 31.1542C57.1851 31.1419 57.1901 31.1255 57.1821 31.1055C57.2028 30.9931 57.2138 30.88 57.2103 30.7658C57.228 30.754 57.2329 30.7378 57.2269 30.7178C57.2357 30.6189 57.2448 30.5201 57.2536 30.4212C57.2711 30.4091 57.2762 30.3932 57.2683 30.3734C57.2751 30.3096 57.2749 30.2439 57.2902 30.1821C57.3234 30.049 57.2775 29.94 57.1851 29.8549C56.9226 29.6135 56.7255 29.3113 56.4543 29.0778C56.3462 28.9845 56.2572 28.8734 56.1825 28.7489C56.0955 28.604 56.098 28.5811 56.2706 28.5439C56.5148 28.4913 56.7606 28.4465 57.0057 28.3987C57.2368 28.3537 57.4677 28.3071 57.6992 28.2651C57.8141 28.2445 57.8922 28.1777 57.9454 28.081C58.1272 27.7501 58.3079 27.4184 58.4852 27.0852C58.5479 26.9674 58.6323 26.8638 58.6797 26.7344C58.7185 26.6282 58.8152 26.6435 58.8798 26.7499C59.1126 27.1337 59.311 27.5363 59.5266 27.9296C59.554 27.9793 59.5895 28.0248 59.6145 28.0756C59.6763 28.2016 59.7706 28.2499 59.9141 28.2744C60.3992 28.3567 60.8801 28.4627 61.3622 28.562C61.4722 28.5846 61.4929 28.635 61.4261 28.7207C61.3648 28.7995 61.2945 28.8719 61.2258 28.9447C60.9506 29.2359 60.6781 29.5295 60.397 29.8149C60.2921 29.9215 60.2576 30.026 60.2912 30.1752C60.335 30.3691 60.35 30.5694 60.3774 30.7669C60.375 30.7719 60.3697 30.7779 60.3709 30.7815C60.3744 30.7915 60.3804 30.8003 60.3856 30.8095C60.3787 31.026 60.4362 31.236 60.4509 31.4501C60.4429 31.4701 60.4474 31.4861 60.4649 31.4986Z" fill="#FBB107"/>
<path d="M38.802 31.9694C38.2894 31.9864 37.7847 31.8953 37.3021 31.6991C37.1005 31.617 36.9137 31.5005 36.7483 31.354C36.6533 31.27 36.6249 31.1985 36.691 31.1005C36.8056 30.9308 36.8762 30.7324 37.0233 30.5851C37.0858 30.5226 37.069 30.3801 37.1851 30.3865C37.2657 30.391 37.3242 30.4819 37.3962 30.5254C37.8963 30.8281 38.4221 31.0523 39.0254 31.0079C39.3032 30.9875 39.5212 30.8632 39.6683 30.6213C39.7215 30.5338 39.7151 30.4578 39.6647 30.3667C39.5583 30.1748 39.375 30.1063 39.1854 30.0615C38.6722 29.9404 38.1449 29.8698 37.6521 29.6742C37.295 29.5325 37.0139 29.2882 36.8672 28.9225C36.7983 28.7504 36.798 28.5585 36.7933 28.3763C36.7851 28.0566 36.884 27.7631 37.0832 27.5063C37.2704 27.2651 37.5151 27.1083 37.8005 27.0133C38.3219 26.8397 38.8464 26.7988 39.3935 26.9108C39.8473 27.0036 40.2619 27.155 40.6363 27.429C40.7315 27.4986 40.7358 27.5326 40.674 27.6272C40.5458 27.8234 40.4377 28.0325 40.3186 28.2348C40.2441 28.3612 40.2245 28.3647 40.1075 28.2781C39.8101 28.0579 39.4824 27.9261 39.1141 27.8589C38.83 27.807 38.5686 27.8137 38.3053 27.9207C38.2791 27.9315 38.2517 27.9427 38.2291 27.9593C38.1089 28.047 38.0182 28.1514 38.0247 28.3138C38.0309 28.4754 38.1444 28.549 38.2679 28.6102C38.4537 28.7026 38.6592 28.7306 38.8587 28.7778C39.2582 28.8721 39.6567 28.9598 40.0435 29.111C40.9999 29.4845 41.1679 30.7219 40.5342 31.3805C40.2329 31.6937 39.8674 31.8436 39.4521 31.9212C39.2382 31.9612 39.0265 31.9716 38.802 31.9694Z" fill="#6E6F72"/>
<path d="M20.6253 27.0152C20.4168 27.5313 20.2234 28.011 20.0289 28.4904C19.8264 28.9899 19.6218 29.4886 19.4198 29.988C19.1962 30.541 18.9733 31.0943 18.7527 31.6483C18.7019 31.776 18.6256 31.8359 18.4779 31.8314C18.1339 31.8206 17.7895 31.8258 17.4451 31.8292C17.3585 31.8301 17.3104 31.8081 17.2641 31.7232C17.1261 31.4699 17.0453 31.1944 16.932 30.9319C16.8293 30.6941 16.7304 30.4546 16.633 30.2146C16.5434 29.9943 16.4491 29.775 16.3731 29.5499C16.263 29.2241 16.0937 28.9236 15.9813 28.5984C15.8787 28.302 15.7493 28.0151 15.6371 27.7219C15.5643 27.5317 15.4624 27.3538 15.409 27.1552C15.373 27.0213 15.3672 27.0174 15.4882 27.0165C15.854 27.0137 16.2199 27.0191 16.5857 27.0131C16.6931 27.0114 16.7375 27.0615 16.7711 27.1511C17.0634 27.9289 17.358 28.7056 17.6516 29.4827C17.7216 29.6682 17.7897 29.8545 17.8597 30.0402C17.8771 30.0867 17.8965 30.1326 17.9178 30.1772C17.9336 30.2101 17.957 30.239 17.998 30.2383C18.0475 30.2377 18.038 30.194 18.0529 30.1642C18.1246 30.0199 18.1574 29.862 18.2194 29.7136C18.4423 29.1793 18.6172 28.6264 18.8432 28.0926C18.9655 27.8036 19.0622 27.5035 19.1673 27.2071C19.2328 27.0223 19.2377 27.0155 19.4357 27.0152C19.8223 27.015 20.2094 27.0152 20.6253 27.0152Z" fill="#6E6F72"/>
<path d="M21.2239 29.3992C21.2239 28.6893 21.2239 27.9795 21.2239 27.2696C21.2239 27.2194 21.2254 27.1692 21.2243 27.1191C21.2226 27.0484 21.2532 27.0152 21.3264 27.0155C21.6777 27.017 22.029 27.0165 22.3803 27.0159C22.4509 27.0159 22.4863 27.0482 22.4858 27.1193C22.4856 27.1624 22.4867 27.2052 22.4867 27.2483C22.4867 28.6824 22.4867 30.1162 22.4867 31.5503C22.4867 31.5933 22.4867 31.6362 22.486 31.6793C22.4848 31.7754 22.4348 31.826 22.3398 31.8262C22.0027 31.8273 21.6658 31.8262 21.3288 31.8266C21.2575 31.8266 21.2241 31.7922 21.2247 31.7219C21.2252 31.6718 21.2241 31.6216 21.2241 31.5714C21.2241 30.8472 21.2239 30.1233 21.2239 29.3992Z" fill="#6D6E71"/>
<path d="M21.0528 25.6895C21.0406 25.2734 21.3548 24.9154 21.7447 24.9012C22.155 24.8863 22.5576 25.2449 22.5731 25.6363C22.5888 26.0348 22.1918 26.4384 21.8168 26.4447C21.388 26.4518 21.066 26.1397 21.0528 25.6895Z" fill="#6E6F72"/>
<path d="M27.6418 20.2716C27.5813 20.2488 27.5212 20.2464 27.4622 20.2763C27.5225 20.2929 27.5826 20.3039 27.6418 20.2716Z" fill="#DADBDB"/>
<path d="M27.2757 20.2763C27.2166 20.246 27.1566 20.2492 27.0958 20.271C27.1548 20.3043 27.2151 20.2927 27.2757 20.2763Z" fill="#DADBDB"/>
<path d="M74.2257 20.2806C74.169 20.2455 74.1104 20.2505 74.0508 20.2714C74.1074 20.305 74.1667 20.2927 74.2257 20.2806Z" fill="#DADBDB"/>
<path d="M74.6838 20.2718C74.6377 20.2505 74.5925 20.249 74.5488 20.2781C74.5946 20.2927 74.6401 20.3007 74.6838 20.2718Z" fill="#DADBDB"/>
<path d="M20.8678 13.8235C20.8678 13.7828 20.8678 13.7421 20.8678 13.7016C20.8301 13.7421 20.8301 13.7828 20.8678 13.8235Z" fill="#DADBDB"/>
<path d="M48.1887 14.5091C48.1579 14.5502 48.1622 14.5944 48.1782 14.6394C48.2079 14.598 48.1999 14.5537 48.1887 14.5091Z" fill="#DADBDB"/>
<path d="M27.8191 7.24031C27.8574 7.27498 27.9007 7.2724 27.9457 7.25732C27.9074 7.22351 27.8632 7.23234 27.8191 7.24031Z" fill="#DADBDB"/>
<path d="M74.4818 17.722C74.5276 17.7434 74.572 17.7429 74.614 17.7123C74.5688 17.6999 74.524 17.6923 74.4818 17.722Z" fill="#DADBDB"/>
<path d="M74.0771 17.7143C74.1057 17.739 74.1361 17.741 74.1682 17.7216C74.1395 17.6992 74.1087 17.7014 74.0771 17.7143Z" fill="#DADBDB"/>
<path d="M74.4734 7.24052C74.4973 7.26572 74.5257 7.27025 74.5574 7.25775C74.5335 7.23191 74.5042 7.23234 74.4734 7.24052Z" fill="#DADBDB"/>
<path d="M33.9161 13.0554C33.9041 13.0886 33.9028 13.1202 33.9286 13.1484C33.9411 13.1151 33.9437 13.0834 33.9161 13.0554Z" fill="#DADBDB"/>
<path d="M35.1641 14.6396C35.1783 14.6081 35.1775 14.5782 35.154 14.5509C35.143 14.5821 35.1415 14.6122 35.1641 14.6396Z" fill="#DADBDB"/>
<path d="M33.9286 14.3331C33.9028 14.3611 33.9041 14.3928 33.9159 14.4257C33.9435 14.3981 33.9409 14.3663 33.9286 14.3331Z" fill="#DADBDB"/>
<path d="M26.8341 7.25582C26.8537 7.2668 26.8681 7.25969 26.8796 7.24246C26.861 7.23535 26.8457 7.23923 26.8341 7.25582Z" fill="#DADBDB"/>
<path d="M73.5741 7.25797C73.5948 7.26917 73.6092 7.26099 73.6204 7.24289C73.601 7.236 73.5855 7.24031 73.5741 7.25797Z" fill="#DADBDB"/>
<path d="M28.327 7.28942C28.3406 7.30815 28.3578 7.31203 28.3785 7.30191C28.3647 7.28339 28.3474 7.27994 28.327 7.28942Z" fill="#DADBDB"/>
<path d="M75.0765 7.31849L75.0564 7.3241L75.0377 7.31548C75.0523 7.29416 75.065 7.29674 75.0765 7.31849Z" fill="#DADBDB"/>
<path d="M28.5512 7.32625C28.5615 7.34197 28.5738 7.3508 28.5919 7.3368C28.5783 7.33336 28.5648 7.32991 28.5512 7.32625Z" fill="#DADBDB"/>
<path d="M22.9117 8.94598C22.9325 8.94813 22.9427 8.93758 22.944 8.91733C22.9332 8.92681 22.9224 8.9365 22.9117 8.94598Z" fill="#DADBDB"/>
<path d="M47.8745 11.5907C47.8656 11.6103 47.8755 11.6222 47.8917 11.631C47.8861 11.6177 47.8803 11.6043 47.8745 11.5907Z" fill="#DADBDB"/>
<path d="M79.9033 12.0663C79.884 12.0704 79.8762 12.0838 79.8751 12.1021C79.8937 12.0976 79.904 12.0864 79.9033 12.0663Z" fill="#DADBDB"/>
<path d="M21.0223 12.2401C21.0397 12.2279 21.0475 12.2134 21.0328 12.1938C21.0175 12.2065 21.0145 12.2221 21.0223 12.2401Z" fill="#DADBDB"/>
<path d="M68.1056 12.2811C68.1226 12.2703 68.131 12.2567 68.12 12.2367C68.1034 12.2477 68.0993 12.2628 68.1056 12.2811Z" fill="#DADBDB"/>
<path d="M28.938 20.0943C28.9174 20.0831 28.9031 20.0918 28.8924 20.1096C28.9116 20.1163 28.9268 20.1118 28.938 20.0943Z" fill="#DADBDB"/>
<path d="M75.5062 20.1822C75.4864 20.171 75.4728 20.1796 75.462 20.1966C75.4803 20.2029 75.4952 20.1988 75.5062 20.1822Z" fill="#DADBDB"/>
<path d="M26.6248 20.2363C26.6123 20.2173 26.5959 20.2122 26.5752 20.2221C26.5877 20.2406 26.6045 20.2447 26.6248 20.2363Z" fill="#DADBDB"/>
<path d="M40.671 20.2343C40.657 20.2171 40.6397 20.2134 40.6195 20.2218C40.6335 20.2395 40.6507 20.2427 40.671 20.2343Z" fill="#DADBDB"/>
<path d="M42.6355 20.2279C42.6177 20.2171 42.6037 20.2229 42.5925 20.2386C42.6067 20.235 42.6211 20.2315 42.6355 20.2279Z" fill="#DADBDB"/>
<path d="M73.575 20.2404C73.564 20.2238 73.5511 20.2143 73.5317 20.2287C73.5461 20.2326 73.5606 20.2365 73.575 20.2404Z" fill="#DADBDB"/>
<path d="M75.2038 20.2281C75.1844 20.2137 75.1708 20.2238 75.1598 20.2404C75.1742 20.2365 75.1893 20.232 75.2038 20.2281Z" fill="#DADBDB"/>
<path d="M76.8903 16.7399C76.9071 16.7403 76.9155 16.7321 76.915 16.7153C76.9036 16.7203 76.8954 16.7284 76.8903 16.7399Z" fill="#FCFCFC"/>
<path d="M42.2918 20.2649C42.2715 20.2563 42.2543 20.2602 42.2401 20.2774C42.2603 20.2858 42.2778 20.2826 42.2918 20.2649Z" fill="#DADBDB"/>
<path d="M77.0156 16.6175C77.0341 16.6154 77.0451 16.6059 77.0453 16.5863C77.0354 16.5966 77.0255 16.6072 77.0156 16.6175Z" fill="#FCFCFC"/>
<path d="M29.2835 20.0047C29.2622 19.9963 29.2473 20.0045 29.2366 20.0233C29.257 20.0293 29.273 20.0237 29.2835 20.0047Z" fill="#DADBDB"/>
<path d="M21.0257 15.2808C21.0317 15.2916 21.0391 15.3015 21.0431 15.3131C21.0449 15.3176 21.0388 15.325 21.0363 15.331C21.0307 15.32 21.024 15.3103 21.0203 15.2987C21.0188 15.2937 21.0235 15.2868 21.0257 15.2808Z" fill="#DADBDB"/>
<path d="M33.8015 15.1542C33.7835 15.1662 33.7776 15.1819 33.7867 15.2024C33.805 15.1903 33.8093 15.1742 33.8015 15.1542Z" fill="#DADBDB"/>
<path d="M68.0791 14.9877C68.0881 14.9674 68.0825 14.9515 68.0645 14.9394C68.0567 14.9594 68.0608 14.9756 68.0791 14.9877Z" fill="#DADBDB"/>
<path d="M27.7762 20.2645C27.7622 20.2561 27.7495 20.2578 27.7385 20.2699C27.7536 20.286 27.7659 20.2832 27.7762 20.2645Z" fill="#DADBDB"/>
<path d="M33.8864 14.6788C33.8675 14.6913 33.8623 14.7079 33.8718 14.7285C33.8905 14.7161 33.8948 14.6993 33.8864 14.6788Z" fill="#DADBDB"/>
<path d="M41.4813 7.21726C41.5013 7.22588 41.5172 7.22071 41.5295 7.20305C41.5099 7.19594 41.4938 7.20024 41.4813 7.21726Z" fill="#DADBDB"/>
<path d="M26.6562 7.27089L26.6377 7.28037L26.6174 7.2752C26.6282 7.25366 26.6409 7.25 26.6562 7.27089Z" fill="#DADBDB"/>
<path d="M35.1098 14.2519C35.1154 14.2614 35.1221 14.27 35.1258 14.2801C35.1271 14.284 35.1219 14.2904 35.1197 14.2956C35.115 14.2859 35.1092 14.2773 35.1062 14.2674C35.1049 14.2631 35.1083 14.2573 35.1098 14.2519Z" fill="#DADBDB"/>
<path d="M67.9761 14.1672C67.9828 14.1765 67.9904 14.1853 67.9951 14.1955C67.9964 14.1985 67.9897 14.2054 67.9867 14.2103C67.9817 14.2011 67.9755 14.1922 67.9723 14.1825C67.9707 14.1782 67.9746 14.1724 67.9761 14.1672Z" fill="#DADBDB"/>
<path d="M67.9813 13.3221C68.0007 13.3087 68.005 13.2913 67.9957 13.2699C67.9764 13.2833 67.9721 13.3009 67.9813 13.3221Z" fill="#DADBDB"/>
<path d="M20.9367 14.8102C20.9432 14.8203 20.9507 14.8298 20.9553 14.8408C20.957 14.8449 20.951 14.852 20.9484 14.8576C20.943 14.8474 20.9363 14.838 20.9327 14.8274C20.9311 14.8229 20.9352 14.816 20.9367 14.8102Z" fill="#DADBDB"/>
<path d="M35.1546 12.8891C35.1721 12.8766 35.1772 12.8605 35.1686 12.8404C35.1514 12.8531 35.1473 12.8695 35.1546 12.8891Z" fill="#DADBDB"/>
<path d="M33.8881 12.8432C33.8821 12.8331 33.8748 12.8239 33.8707 12.8131C33.8692 12.8092 33.8756 12.8025 33.8784 12.7971C33.8834 12.8071 33.8894 12.8172 33.8927 12.8275C33.8942 12.832 33.8899 12.8379 33.8881 12.8432Z" fill="#DADBDB"/>
<path d="M20.9286 12.7515C20.9264 12.7653 20.924 12.7791 20.9219 12.7928C20.9187 12.7823 20.9141 12.7722 20.9131 12.7614C20.9128 12.7588 20.9232 12.7547 20.9286 12.7515Z" fill="#DADBDB"/>
<path d="M74.1639 28.5264C74.1761 28.5441 74.1925 28.5486 74.2125 28.5424C74.2005 28.5243 74.1841 28.5195 74.1639 28.5264Z" fill="#DADBDB"/>
<path d="M20.938 12.6733C20.9568 12.6606 20.9626 12.6444 20.9501 12.624C20.9329 12.6371 20.9294 12.6537 20.938 12.6733Z" fill="#DADBDB"/>
<path d="M73.1735 30.0173C73.1524 30.0363 73.1522 30.055 73.1739 30.0736C73.1739 30.0548 73.1735 30.0361 73.1735 30.0173Z" fill="#DADBDB"/>
<path d="M57.2536 30.4212C57.2711 30.4091 57.2762 30.3932 57.2683 30.3734C57.2512 30.3854 57.2467 30.4016 57.2536 30.4212Z" fill="#DADBDB"/>
<path d="M44.3722 30.4628C44.3884 30.4503 44.3933 30.4352 44.3828 30.4167C44.3793 30.432 44.3759 30.4473 44.3722 30.4628Z" fill="#DADBDB"/>
<path d="M68.0645 12.4997C68.0825 12.4876 68.0884 12.4719 68.0793 12.4514C68.061 12.4635 68.0567 12.4797 68.0645 12.4997Z" fill="#DADBDB"/>
<path d="M74.8559 7.28683C74.8684 7.30385 74.883 7.31053 74.902 7.29653C74.8891 7.28145 74.8738 7.27865 74.8559 7.28683Z" fill="#DADBDB"/>
<path d="M57.2103 30.7658C57.228 30.754 57.2329 30.7378 57.2269 30.7178C57.2088 30.7294 57.2036 30.7456 57.2103 30.7658Z" fill="#DADBDB"/>
<path d="M73.2422 30.7174C73.236 30.7374 73.2409 30.7535 73.2588 30.7656C73.2652 30.7454 73.2603 30.7292 73.2422 30.7174Z" fill="#DADBDB"/>
<path d="M47.4837 30.7609C47.4758 30.7809 47.4807 30.7971 47.4982 30.8095C47.5053 30.7897 47.501 30.7734 47.4837 30.7609Z" fill="#DADBDB"/>
<path d="M60.3856 30.8095C60.3804 30.8003 60.3744 30.7915 60.3709 30.7815C60.3697 30.7779 60.375 30.7719 60.3774 30.7669C60.3802 30.7811 60.3828 30.7953 60.3856 30.8095Z" fill="#FCFCFC"/>
<path d="M70.0947 30.7632C70.0969 30.7736 70.1003 30.7837 70.1003 30.794C70.1003 30.7979 70.093 30.802 70.0891 30.8059C70.091 30.7917 70.0928 30.7775 70.0947 30.7632Z" fill="#DADBDB"/>
<path d="M47.5421 31.0663C47.5365 31.0564 47.5294 31.0469 47.5255 31.0364C47.524 31.032 47.5288 31.0254 47.5307 31.0198C47.5359 31.0297 47.5428 31.0387 47.5464 31.0493C47.5479 31.0538 47.5434 31.0607 47.5421 31.0663Z" fill="#DADBDB"/>
<path d="M57.1677 31.1542C57.1851 31.1419 57.1901 31.1255 57.1821 31.1055C57.1649 31.118 57.1606 31.1344 57.1677 31.1542Z" fill="#DADBDB"/>
<path d="M44.2848 31.2373C44.3003 31.2255 44.3055 31.2106 44.2949 31.1927C44.2917 31.2076 44.288 31.2227 44.2848 31.2373Z" fill="#DADBDB"/>
<path d="M50.704 31.3232C50.7195 31.3114 50.7241 31.2968 50.7135 31.2789C50.7103 31.2937 50.7073 31.3086 50.704 31.3232Z" fill="#DADBDB"/>
<path d="M60.4509 31.4501C60.4429 31.4701 60.4474 31.4861 60.4649 31.4986C60.472 31.4788 60.4681 31.4626 60.4509 31.4501Z" fill="#DADBDB"/>
<path d="M73.3301 31.4499C73.3221 31.4699 73.3281 31.4854 73.3456 31.4977C73.3527 31.4781 73.3471 31.4622 73.3301 31.4499Z" fill="#DADBDB"/>
</svg>
