<svg width="51" height="32" viewBox="0 0 51 32" fill="none" xmlns="http://www.w3.org/2000/svg">
<path d="M46.8132 0H4.01877C2.08172 0 0.505798 1.57592 0.505798 3.51297V28.487C0.505798 30.4241 2.08172 32 4.01877 32H46.8132C48.7501 32 50.3262 30.4241 50.3262 28.487V3.51297C50.3262 1.57592 48.7501 0 46.8132 0ZM47.3224 6.50794C47.3224 6.53215 47.2931 6.68921 47.2572 6.85694C47.2119 7.06919 47.1675 7.28157 47.1239 7.4942C47.0863 7.67693 47.0318 7.94111 47.0024 8.08118C46.9609 8.28046 46.9197 8.47981 46.879 8.67922C46.8404 8.86809 46.7811 9.15717 46.7472 9.32158C46.7133 9.48605 46.6583 9.75521 46.6251 9.91962C46.5919 10.0842 46.5366 10.3532 46.5023 10.5177C46.4623 10.7096 46.4228 10.9016 46.3838 11.0937C46.3531 11.2459 46.2974 11.52 46.2602 11.7027C46.2229 11.8855 46.163 12.1746 46.1271 12.3451C46.0912 12.5156 46.0366 12.7798 46.0056 12.9321C45.9747 13.0844 45.919 13.3584 45.8819 13.5412C45.8447 13.7239 45.785 14.013 45.7491 14.1836C45.7132 14.3541 45.6598 14.6133 45.6302 14.7595C45.5483 15.1656 45.4657 15.5717 45.3828 15.9778C45.3527 16.1239 45.2993 16.3832 45.264 16.5536C45.2187 16.7713 45.1738 16.9891 45.1293 17.2071C45.0907 17.3959 45.0354 17.665 45.0065 17.8052C44.9775 17.9452 44.9234 18.2093 44.8861 18.392C44.8424 18.6062 44.7985 18.8203 44.7543 19.0344C44.7191 19.205 44.6639 19.4741 44.6316 19.6325C44.5994 19.7909 44.5433 20.065 44.5071 20.2416C44.4708 20.4182 44.4115 20.7073 44.3754 20.8839C44.3392 21.0606 44.2851 21.3248 44.255 21.471C44.214 21.6702 44.1733 21.8695 44.1328 22.069C44.0892 22.2825 44.0445 22.4958 43.9986 22.7089L43.9319 23.0166L43.8524 23.2294C43.8088 23.3465 43.743 23.5021 43.7064 23.5752C43.6699 23.6483 43.5954 23.7772 43.5408 23.8618C43.4863 23.9462 43.4103 24.0545 43.3719 24.1024C43.3335 24.1502 43.2182 24.2738 43.1153 24.377L42.9286 24.5644L42.7489 24.6922C42.65 24.7625 42.5434 24.834 42.5122 24.851C42.4809 24.8681 42.3618 24.929 42.2474 24.9861C42.1331 25.0433 41.9717 25.1162 41.8886 25.1479C41.8056 25.1798 41.6411 25.2339 41.5231 25.2682C41.4052 25.3026 41.2787 25.3365 41.2422 25.3435C41.2056 25.3505 41.0788 25.3767 40.9603 25.4019C40.8418 25.427 40.6026 25.4644 40.4288 25.4851L40.1126 25.5228L3.50997 25.5359V25.4919C3.50997 25.4677 3.53916 25.3106 3.5748 25.1428C3.6105 24.9751 3.66594 24.7082 3.69813 24.5499C3.7302 24.3915 3.78513 24.1224 3.82007 23.9518C3.90604 23.5349 3.99099 23.1177 4.07485 22.7004C4.10787 22.5359 4.16287 22.2667 4.19723 22.1024C4.24105 21.892 4.28435 21.6816 4.32734 21.471C4.36451 21.2884 4.42104 21.0092 4.45298 20.8508C4.48491 20.6924 4.53563 20.4482 4.56571 20.3082C4.59573 20.1681 4.63412 19.9787 4.65085 19.8873C4.66765 19.7959 4.72201 19.5267 4.77163 19.2892C4.81341 19.0901 4.85403 18.8908 4.89331 18.6912C4.91062 18.5999 4.96561 18.3306 5.01556 18.0932C5.06545 17.8557 5.12025 17.5865 5.13737 17.4951C5.15448 17.4038 5.20961 17.1346 5.25981 16.8971C5.31014 16.6595 5.36443 16.3954 5.3804 16.3102C5.3965 16.2249 5.44044 16.0056 5.47813 15.8229C5.51575 15.6401 5.58703 15.2963 5.63646 15.0587C5.68597 14.8211 5.77053 14.4075 5.82438 14.1394C5.87835 13.8714 5.9428 13.5525 5.96764 13.4307C6.04065 13.0725 6.11429 12.7143 6.1887 12.3564C6.22537 12.1797 6.28496 11.8907 6.32118 11.714C6.35745 11.5374 6.41328 11.2632 6.44528 11.1049C6.47728 10.9465 6.53189 10.6824 6.56664 10.5179C6.60138 10.3534 6.66117 10.0644 6.69949 9.87554C6.73781 9.68668 6.80201 9.39765 6.84212 9.23318C6.88223 9.06871 6.93895 8.86937 6.9682 8.79023C6.99739 8.71096 7.07806 8.5394 7.14743 8.40872L7.27357 8.17131L7.38823 8.02108C7.4512 7.93856 7.56381 7.80806 7.63835 7.73116C7.71289 7.65426 7.83859 7.53852 7.91785 7.47401C7.99699 7.40944 8.11164 7.32232 8.17251 7.28042C8.23345 7.23852 8.35308 7.16513 8.43835 7.11735C8.52362 7.06957 8.64332 7.00704 8.70419 6.97836C8.76512 6.94968 8.88973 6.89725 8.98107 6.86192C9.07241 6.82667 9.24684 6.76746 9.36865 6.73047C9.49045 6.69343 9.71918 6.63761 9.87688 6.6065C10.0346 6.57533 10.2837 6.53368 10.4307 6.51395L10.6977 6.47805L47.3233 6.46406L47.3224 6.50794Z" fill="#AD121A"/>
<path d="M17.5348 18.2234L17.9107 18.0955L17.9919 18.0349C18.0461 17.994 18.099 17.9516 18.1506 17.9077C18.1932 17.8712 18.265 17.7897 18.3099 17.727C18.3549 17.6643 18.4333 17.534 18.4841 17.4377L18.5766 17.2626L18.652 17.0461C18.6935 16.9272 18.7531 16.7178 18.7844 16.581L18.8412 16.3322L18.864 15.4904L18.8269 15.3481C18.8065 15.2697 18.7664 15.1597 18.7379 15.1034L18.6861 15.0012L18.4939 14.808L18.2648 14.7025L17.9402 14.6333L17.5415 14.6567L17.2314 14.7527L17.1126 14.8202C17.0472 14.8572 16.9366 14.9351 16.8667 14.9932L16.7397 15.0988L16.6818 15.4054C16.6499 15.574 16.593 15.8864 16.5556 16.0996C16.5152 16.3288 16.4734 16.5576 16.4304 16.7863L16.3733 17.0854L16.3507 17.4671L16.3789 17.5862C16.3944 17.6518 16.4293 17.7553 16.4566 17.8163L16.5061 17.927L16.6776 18.0907L16.9232 18.2028L17.0441 18.2242L17.165 18.2456L17.5348 18.2234Z" fill="#AD121A"/>
<path d="M33.0909 18.2068L33.4501 18.0931L33.5317 18.0378C33.5766 18.0073 33.6214 17.9823 33.6312 17.9823C33.6411 17.9823 33.709 17.9231 33.7819 17.8508L33.9147 17.7192L33.9956 17.5833C34.0401 17.5086 34.0765 17.4415 34.0765 17.434C34.0765 17.4267 34.106 17.3451 34.1419 17.2529C34.1778 17.1607 34.2327 16.9907 34.2637 16.8748C34.2948 16.7591 34.3335 16.5862 34.3497 16.4906L34.3792 16.3167L34.3091 16.2877H33.2016L32.8472 16.3719L32.5621 16.5092L32.2935 16.7759L32.2234 16.9207C32.1848 17.0002 32.1363 17.1236 32.1156 17.1946L32.078 17.3238L32.0967 17.7496L32.1442 17.8408C32.1703 17.8909 32.2163 17.9612 32.2463 17.997L32.3011 18.0621L32.4014 18.1137C32.4565 18.1421 32.5545 18.1788 32.619 18.1951L32.7364 18.2251L32.9136 18.2158L33.0909 18.2068Z" fill="#AD121A"/>
<path d="M23.4819 15.7228L23.5287 15.2908L23.4878 15.0312L23.457 14.9727C23.4398 14.9406 23.3954 14.8814 23.3581 14.8412L23.2903 14.7681L23.043 14.6549L22.7028 14.6112L22.4812 14.6254C22.3594 14.6331 22.2199 14.6497 22.1711 14.6623C22.1225 14.6748 22.0178 14.716 21.9386 14.7539L21.7946 14.8227L21.5016 15.1142L21.4349 15.2469C21.3983 15.3198 21.3421 15.4523 21.3101 15.5413C21.2781 15.6304 21.252 15.7077 21.252 15.713C21.252 15.7185 21.7537 15.7228 22.3668 15.7228H23.4819Z" fill="#AD121A"/>
<path d="M11.5985 7.06114L11.3474 7.09487C11.2093 7.11345 10.975 7.15261 10.8268 7.18193C10.6785 7.21118 10.4635 7.26362 10.349 7.29843C10.2345 7.33324 10.0705 7.38887 9.98463 7.42202C9.89872 7.45523 9.78158 7.50454 9.72429 7.5315C9.66706 7.55845 9.55458 7.61728 9.47442 7.66218C9.3942 7.70708 9.28178 7.77606 9.22449 7.81547C9.16726 7.85488 9.05944 7.93677 8.98503 7.99745C8.91056 8.05812 8.79239 8.1669 8.72226 8.2392C8.65219 8.31151 8.54636 8.4342 8.48715 8.51181L8.37933 8.65303L8.26078 8.8762C8.19557 8.99909 8.11969 9.16037 8.09229 9.23491C8.06476 9.30925 8.01143 9.49672 7.97374 9.65129C7.92584 9.85185 7.88113 10.0532 7.83967 10.2552C7.80359 10.4327 7.74744 10.7045 7.71474 10.8591C7.6761 11.0429 7.63803 11.2269 7.60066 11.411C7.57058 11.5598 7.51808 11.8175 7.48397 11.9836C7.44993 12.1497 7.39391 12.4214 7.35942 12.5876C7.32499 12.7536 7.2737 13.0019 7.24541 13.1393C7.21711 13.2767 7.17489 13.483 7.15164 13.5975C7.12826 13.712 7.06765 14.0118 7.01694 14.2638C6.95888 14.552 6.89999 14.8401 6.84026 15.128C6.79377 15.3514 6.72676 15.6746 6.69138 15.8465C6.65983 15.999 6.62923 16.1516 6.59953 16.3045C6.58452 16.3847 6.53349 16.6331 6.48616 16.8564C6.43896 17.0797 6.38716 17.3328 6.37106 17.4187C6.35496 17.5046 6.30342 17.7576 6.25654 17.9809C6.20959 18.2042 6.15785 18.4573 6.14163 18.5432C6.10465 18.7309 6.06652 18.9183 6.02723 19.1055C5.98054 19.3288 5.92945 19.5819 5.91367 19.6677C5.88857 19.8 5.86187 19.9319 5.83364 20.0634C5.79742 20.2332 5.76204 20.4033 5.72761 20.5735C5.69759 20.7224 5.64445 20.9848 5.60951 21.1566C5.57451 21.3284 5.51945 21.5955 5.48719 21.7501C5.45488 21.9046 5.4032 22.1577 5.37216 22.3124C5.29328 22.7048 5.21344 23.0968 5.13264 23.4888C5.09981 23.6493 5.04814 23.9023 5.01799 24.0512C4.98771 24.2001 4.93559 24.4509 4.90206 24.6086C4.86853 24.7663 4.84106 24.914 4.84106 24.9368V24.9782L39.2529 24.9659L39.5501 24.9304C39.7136 24.911 39.9385 24.8758 40.0498 24.8521C40.1612 24.8285 40.2805 24.8039 40.3148 24.7973C40.3492 24.7907 40.4681 24.7589 40.579 24.7266C40.6899 24.6943 40.8445 24.6434 40.9226 24.6135C41.0007 24.5837 41.1525 24.5152 41.2599 24.4613C41.3434 24.4199 41.4263 24.3775 41.5088 24.3344C41.5382 24.3183 41.6382 24.2511 41.7312 24.1851L41.9002 24.065L42.0757 23.8887C42.1724 23.7916 42.2809 23.6756 42.3169 23.6306C42.3529 23.5856 42.4245 23.4838 42.4757 23.4044C42.5269 23.3249 42.597 23.2035 42.6313 23.1349C42.6658 23.0662 42.7276 22.9199 42.7686 22.8098L42.8433 22.6097L42.906 22.3205C42.9405 22.1614 42.9973 21.8907 43.0322 21.7189C43.0671 21.5471 43.1187 21.294 43.147 21.1566C43.1753 21.0191 43.2262 20.7708 43.2602 20.6047C43.2941 20.4386 43.3498 20.1669 43.384 20.0009C43.418 19.8348 43.4708 19.5771 43.5011 19.4283C43.5394 19.2408 43.5779 19.0533 43.6165 18.8659C43.6497 18.7055 43.7053 18.4339 43.7403 18.262C43.7754 18.0903 43.8263 17.8418 43.8535 17.7102C43.8807 17.5785 43.9325 17.3255 43.969 17.1479C44.0052 16.9704 44.0622 16.694 44.0955 16.5336C44.1288 16.3733 44.1791 16.1297 44.2073 15.9923C44.2355 15.8548 44.2879 15.597 44.3241 15.4195C44.3628 15.2287 44.4014 15.0378 44.4399 14.8469C44.4765 14.6663 44.5137 14.4859 44.5516 14.3055C44.5938 14.1043 44.6354 13.903 44.6765 13.7016C44.7113 13.5297 44.7636 13.2721 44.7928 13.1289C44.8219 12.9858 44.8732 12.7374 44.907 12.5771C44.9407 12.4168 44.997 12.145 45.0321 11.9732C45.0671 11.8014 45.1194 11.5437 45.1483 11.4006C45.1773 11.2574 45.2272 11.0137 45.2596 10.8591C45.2918 10.7045 45.3439 10.4515 45.3751 10.2968C45.4063 10.1423 45.4581 9.88921 45.4899 9.73458C45.5218 9.58001 45.5776 9.30823 45.6137 9.13073C45.65 8.95317 45.7022 8.70023 45.7298 8.56846C45.7574 8.43676 45.8087 8.18842 45.844 8.01661C45.8792 7.84486 45.9356 7.57519 45.9694 7.41755C46.003 7.25985 46.0307 7.11218 46.0307 7.08944V7.04799L11.5985 7.06114ZM14.3995 12.6775L14.5029 12.4339L14.6345 12.2928L14.8612 12.1913H15.1942L15.3485 12.2868L15.3928 12.3603L15.4371 12.4339L15.4336 12.8103L15.3837 12.9382L15.3339 13.0662L15.1447 13.2581L14.9308 13.3309L14.6619 13.3299L14.4762 13.2456L14.428 13.1514L14.38 13.057L14.3995 12.6775ZM13.1882 14.3276C13.1445 14.564 13.1004 14.8002 13.0559 15.0364C13.0143 15.2576 12.9743 15.4792 12.9358 15.701C12.8942 15.9444 12.8532 16.1881 12.8128 16.4318C12.7755 16.6572 12.7157 17.0111 12.6801 17.2182C12.6432 17.4323 12.6067 17.6464 12.5703 17.8606C12.5459 18.0043 12.5232 18.1483 12.5022 18.2926C12.4894 18.3839 12.4684 18.5209 12.4551 18.5972L12.4313 18.7355H11.3505L11.3502 18.7079C11.3501 18.6926 11.3852 18.4857 11.4282 18.2482C11.4713 18.0106 11.5304 17.6917 11.5597 17.5394C11.6011 17.3218 11.6419 17.104 11.6819 16.8861C11.72 16.6789 11.7807 16.35 11.8168 16.155C11.8529 15.9601 11.8937 15.7432 11.9074 15.6728L11.9326 15.5449L11.9165 15.5288L11.9004 15.5128H9.00617L8.99372 15.5252C8.98695 15.532 8.95725 15.6715 8.9278 15.8353C8.89842 15.999 8.84873 16.2825 8.81749 16.4652C8.78626 16.6479 8.72993 16.9818 8.69237 17.2073L8.57056 17.9381C8.54112 18.1148 8.4996 18.3665 8.4784 18.4975L8.43975 18.7356H7.36338V18.6997C7.36338 18.6798 7.38906 18.5378 7.42042 18.384C7.45184 18.2303 7.48608 18.0545 7.49668 17.9936C7.50715 17.9328 7.5403 17.7633 7.57032 17.6171C7.61293 17.4069 7.65432 17.1965 7.69456 16.9858C7.73288 16.7848 7.78775 16.4957 7.81655 16.3434C7.85749 16.1258 7.89767 15.9079 7.93708 15.69C7.98447 15.4246 8.0295 15.1587 8.07223 14.8926L8.19378 14.1284C8.22387 13.9396 8.27905 13.5957 8.31642 13.3642C8.34688 13.1761 8.37684 12.9878 8.40628 12.7994C8.41829 12.7202 8.44378 12.5683 8.46294 12.4617L8.49762 12.2678H9.58313L9.56972 12.3029C9.56224 12.3222 9.53612 12.4518 9.51166 12.5909C9.48713 12.7299 9.45187 12.916 9.43329 13.0043C9.41183 13.109 9.39337 13.2142 9.37785 13.32C9.3659 13.4053 9.3309 13.6096 9.29992 13.774C9.26792 13.944 9.2349 14.1139 9.20092 14.2835C9.17428 14.4158 9.14918 14.5484 9.12561 14.6814C9.10773 14.7844 9.09515 14.8705 9.09764 14.8727C9.10019 14.8747 9.40499 14.8837 9.775 14.8925L10.4477 14.9084L12.0542 14.8759L12.0911 14.6296C12.1241 14.4143 12.1585 14.1993 12.1942 13.9845C12.2306 13.7652 12.2845 13.4512 12.314 13.2867C12.3435 13.1222 12.3873 12.8731 12.4115 12.733C12.4357 12.5929 12.4621 12.4309 12.4702 12.3731L12.4851 12.2678H13.5794L13.5421 12.4284C13.5216 12.5168 13.4739 12.7585 13.4361 12.9656C13.3983 13.1726 13.3422 13.4816 13.3114 13.6522C13.2806 13.8227 13.2253 14.1266 13.1882 14.3276ZM14.6864 16.5427C14.5986 17.0604 14.513 17.5786 14.4294 18.0971C14.3928 18.3246 14.3628 18.5456 14.3628 18.5882C14.3628 18.6306 14.3568 18.6811 14.3493 18.7005L14.3359 18.7355H13.3831L13.3964 18.6857C13.4038 18.6582 13.4292 18.5412 13.4529 18.4254C13.4765 18.3097 13.526 18.0605 13.5629 17.8717C13.5999 17.6828 13.6554 17.3938 13.6863 17.2292C13.7173 17.0648 13.7716 16.7757 13.807 16.5869C13.8499 16.3547 13.8904 16.1222 13.9284 15.8891C13.9597 15.6943 14.0155 15.3504 14.0524 15.125C14.0893 14.8997 14.1376 14.5857 14.1596 14.4273L14.1998 14.1393L15.1634 14.1274L15.1513 14.1469C15.1447 14.1575 15.1039 14.3446 15.0605 14.5626C15.0171 14.7806 14.9563 15.0935 14.9255 15.2579C14.8857 15.4684 14.8456 15.6788 14.8051 15.8891C14.7636 16.1066 14.724 16.3245 14.6864 16.5427ZM19.836 15.9469C19.8181 16.1026 19.7948 16.2579 19.7662 16.412L19.7218 16.6422L19.636 16.9081C19.5887 17.0543 19.5077 17.2736 19.4558 17.3954C19.4039 17.5171 19.3333 17.6586 19.2987 17.7095C19.2642 17.7604 19.2359 17.8076 19.2359 17.8145C19.2359 17.8213 19.1888 17.8893 19.1312 17.9655C19.0737 18.0418 18.9616 18.1693 18.882 18.2487L18.7375 18.3932L18.5824 18.4942C18.4971 18.5497 18.3676 18.6225 18.2945 18.6559L18.1616 18.7165L17.6664 18.8446L17.2092 18.8727L16.8489 18.8261L16.5465 18.7051L16.301 18.4576L16.2456 18.3529C16.2152 18.2953 16.1844 18.2482 16.1772 18.2482C16.17 18.2482 16.1522 18.3354 16.1376 18.442C16.112 18.6213 16.0851 18.8003 16.0568 18.9791C16.027 19.1679 15.9734 19.5069 15.9375 19.7323C15.9016 19.9576 15.8567 20.2437 15.8375 20.3681C15.8183 20.4924 15.8026 20.6236 15.8026 20.6597C15.8026 20.6958 15.7966 20.741 15.7891 20.7603L15.7757 20.7954H14.8232L14.8353 20.7455C14.842 20.7182 14.877 20.5462 14.9133 20.3635C14.9495 20.1808 15.0091 19.8718 15.0457 19.6769C15.0824 19.4819 15.1435 19.1531 15.1814 18.9459C15.2193 18.7388 15.2744 18.4398 15.3036 18.2815C15.3328 18.1231 15.3869 17.829 15.4239 17.628C15.4609 17.4271 15.5208 17.0881 15.557 16.8749C15.6392 16.3915 15.7204 15.9079 15.8007 15.4241C15.8371 15.2048 15.8989 14.8236 15.9382 14.5769L16.0093 14.1283H16.8215L16.8206 14.1559C16.8201 14.1713 16.8015 14.2712 16.779 14.3782L16.7384 14.5728L16.7966 14.5347C16.8285 14.5139 16.8683 14.4832 16.8849 14.4666C16.9015 14.4501 16.9672 14.4033 17.0309 14.3625C17.0945 14.3218 17.2136 14.2574 17.2953 14.2197L17.4441 14.1508L17.7864 14.0634L18.2059 14.0152L18.5824 14.0428L18.959 14.133L19.301 14.3097L19.59 14.6161L19.7397 14.9146L19.8321 15.3134L19.8615 15.7121L19.836 15.9469ZM24.3982 15.2436L24.3974 15.4462L24.3651 15.6871C24.3473 15.8196 24.316 15.999 24.2955 16.0858L24.2584 16.2435L21.7941 16.2277L21.1275 16.2589L21.0515 16.753L21.052 17.3069L21.1376 17.6062L21.2742 17.8448L21.4492 18.003L21.5551 18.0554C21.6134 18.0843 21.721 18.127 21.794 18.1503L21.9269 18.1927L22.7021 18.1912L23.1898 18.0967L23.4222 18.0202C23.5499 17.9781 23.6918 17.9256 23.7374 17.9036L23.8201 17.8637L23.8441 17.8876L23.79 18.151C23.7602 18.2959 23.7298 18.4593 23.7224 18.5141L23.7089 18.614L23.4381 18.6736C23.2892 18.7063 23.0577 18.7486 22.9236 18.7675C22.7896 18.7864 22.5704 18.8118 22.4363 18.8241L22.1927 18.8463L21.9491 18.8435C21.8151 18.8421 21.6364 18.8318 21.5521 18.8211C21.4677 18.8103 21.317 18.7816 21.2171 18.7575L21.0356 18.7136L20.9053 18.6543C20.8337 18.6217 20.7253 18.5578 20.6645 18.5125C20.6035 18.4673 20.5126 18.3867 20.4624 18.3336C20.4122 18.2805 20.3455 18.1922 20.3143 18.1374C20.2831 18.0827 20.2373 17.983 20.2126 17.916C20.1878 17.849 20.1524 17.7293 20.1339 17.6501L20.1003 17.5062L20.0996 16.847L20.135 16.6228C20.1544 16.4995 20.1938 16.2991 20.2227 16.1772C20.2513 16.0554 20.3005 15.8809 20.3318 15.7895C20.363 15.6981 20.4096 15.5735 20.4351 15.5127C20.4607 15.4517 20.517 15.3322 20.5602 15.2468C20.6035 15.1615 20.6791 15.032 20.7286 14.9589C20.778 14.8857 20.8685 14.776 20.9297 14.7148C20.9908 14.6537 21.0858 14.5673 21.1408 14.5229C21.1955 14.4785 21.3051 14.4054 21.3843 14.3605C21.4634 14.3156 21.603 14.2489 21.6943 14.2125L21.8605 14.1461L22.3921 14.044L22.8351 14.0152L23.3119 14.0608L23.6989 14.154L23.8096 14.2129C23.8705 14.2452 23.9559 14.2969 23.9995 14.3276C24.043 14.3584 24.1088 14.4183 24.1456 14.4607C24.1823 14.5033 24.2386 14.5831 24.2704 14.6382L24.3284 14.7383L24.3987 15.0409L24.3982 15.2436ZM26.933 14.7373L26.5998 14.8965L26.3295 15.1468L26.2286 15.2965C26.173 15.3788 26.092 15.5235 26.0486 15.6179C26.0051 15.7124 25.9696 15.8033 25.9696 15.8201C25.9696 15.8367 25.9548 15.8924 25.9366 15.9439C25.9185 15.9953 25.8647 16.2333 25.8171 16.4727C25.7614 16.7574 25.7099 17.0428 25.6627 17.329C25.6253 17.5604 25.5742 17.8815 25.5493 18.0425C25.5245 18.2035 25.4977 18.4254 25.4899 18.5353L25.4756 18.7355H24.5298V18.716C24.5298 18.7053 24.5439 18.6281 24.5612 18.5444C24.5784 18.4606 24.623 18.2376 24.6603 18.0488C24.7475 17.6061 24.8328 17.1632 24.9161 16.7197C24.9471 16.5553 25.002 16.2413 25.0382 16.022C25.0743 15.8028 25.1293 15.4639 25.1602 15.2689C25.191 15.074 25.2414 14.7616 25.2718 14.5747C25.3022 14.3878 25.3272 14.2109 25.3272 14.1816V14.1282H26.1719L26.1601 14.167C26.1536 14.1882 26.1274 14.3253 26.102 14.4715C26.0766 14.6177 26.0471 14.7772 26.0365 14.826L26.0173 14.9145L26.049 14.8702C26.0972 14.8036 26.1458 14.7372 26.1946 14.6709C26.2572 14.5856 26.3572 14.4682 26.4167 14.4099C26.476 14.3517 26.5785 14.2696 26.6444 14.2274C26.7102 14.1852 26.8171 14.1313 26.8819 14.1075C26.9466 14.0837 27.0643 14.0528 27.1435 14.0388L27.2875 14.0133L27.3983 14.027C27.4591 14.0346 27.5812 14.0627 27.6696 14.0895C27.7579 14.1163 27.8302 14.1446 27.8302 14.1524C27.8302 14.1601 27.8052 14.2887 27.7748 14.4383C27.7443 14.5878 27.7194 14.7337 27.7194 14.7625C27.7194 14.7913 27.7135 14.8148 27.7062 14.8148C27.699 14.8148 27.6366 14.7979 27.5678 14.7774L27.4425 14.74L26.933 14.7373ZM31.0373 14.8156L30.9202 14.7719L30.3443 14.6566L29.8571 14.6322L29.6909 14.6581C29.5995 14.6723 29.4604 14.7038 29.3815 14.728L29.2383 14.7722L29.0153 14.9105L28.8047 15.1288L28.7189 15.2764C28.6718 15.3576 28.6005 15.4989 28.5606 15.5902C28.5205 15.6816 28.48 15.7862 28.4703 15.8228C28.4606 15.8594 28.4319 15.959 28.4066 16.0443L28.3606 16.1994L28.2735 16.7753L28.273 17.2507L28.3447 17.6171L28.4951 17.8909L28.7217 18.0892L29.0151 18.191L29.5315 18.2086L30.1391 18.091L30.3523 18.0118C30.4697 17.9682 30.5783 17.9226 30.5939 17.9101C30.6094 17.8979 30.6257 17.8916 30.6301 17.8964C30.6345 17.9012 30.6283 17.9649 30.6163 18.038C30.5967 18.1519 30.5758 18.2655 30.5536 18.3789C30.5312 18.4933 30.5049 18.5938 30.495 18.6023C30.4851 18.6107 30.4006 18.6393 30.3073 18.6657C30.1938 18.6968 30.0793 18.724 29.9639 18.7471C29.8684 18.7657 29.6658 18.7956 29.5136 18.8136L29.2369 18.8465L28.9931 18.8438C28.859 18.8424 28.6914 18.8325 28.62 18.8221C28.5486 18.8117 28.414 18.782 28.321 18.7562L28.1517 18.7091L28.0227 18.6411L27.8938 18.5729L27.6501 18.3331L27.5736 18.2133L27.4969 18.0935L27.3642 17.7622L27.3224 17.4399L27.322 16.8863L27.3634 16.4654L27.4206 16.2328C27.452 16.1048 27.5141 15.8955 27.5586 15.7676L27.6395 15.5351L27.745 15.3202C27.8031 15.202 27.8931 15.0429 27.9452 14.9666L28.04 14.8279L28.2096 14.6609C28.3029 14.5691 28.4074 14.474 28.4419 14.4496C28.4993 14.4104 28.5578 14.3727 28.6173 14.3366C28.6793 14.2988 28.7942 14.2421 28.8726 14.2107L29.0152 14.1537L29.4583 14.0606L30.0564 14.0147L30.4805 14.0391C30.7137 14.0525 30.9867 14.0728 31.0871 14.0843C31.1875 14.0957 31.2741 14.1094 31.2794 14.1148C31.2848 14.1201 31.2743 14.2076 31.2561 14.3093C31.2381 14.4109 31.2105 14.5762 31.1951 14.6767C31.1797 14.7772 31.1642 14.8595 31.1608 14.8595C31.1572 14.8593 31.1017 14.8396 31.0373 14.8156ZM35.4559 15.269L35.3963 15.5901C35.3637 15.7668 35.3083 16.0708 35.2734 16.2657C35.2384 16.4607 35.1843 16.7697 35.1534 16.9524C35.1123 17.1993 35.0742 17.4466 35.0388 17.6944L34.9808 18.1042L34.956 18.7354H34.143L34.1434 18.597C34.1436 18.5209 34.158 18.3591 34.1751 18.2374C34.1924 18.1158 34.2036 18.0134 34.1999 18.0099C34.1964 18.0062 34.1537 18.0559 34.1052 18.1202C34.0567 18.1846 33.9681 18.2856 33.9084 18.3449C33.8486 18.4041 33.7448 18.4892 33.6779 18.5339C33.6108 18.5787 33.5012 18.6412 33.4343 18.6729L33.3124 18.7303L32.9358 18.8268L32.338 18.844L32.2076 18.8235C32.1358 18.812 32.0089 18.7834 31.9255 18.7599L31.7738 18.7171L31.5089 18.556L31.4343 18.4689C31.3933 18.421 31.3327 18.3322 31.2998 18.2716L31.2398 18.1614L31.1752 17.8234V17.4175L31.2429 17.0307L31.3166 16.8587C31.3571 16.7641 31.4239 16.6368 31.4651 16.5759C31.5062 16.515 31.5997 16.4053 31.6731 16.3323L31.8063 16.1993L31.9754 16.0941C32.0685 16.0362 32.1538 15.989 32.165 15.989C32.1763 15.989 32.2271 15.9689 32.2778 15.9444C32.3285 15.9199 32.4873 15.8677 32.6308 15.8283L32.8916 15.7568L34.4856 15.7511L34.562 15.3798L34.5641 15.0415L34.4201 14.8269L34.163 14.7L33.7777 14.6324L33.1796 14.6571L32.8475 14.7137C32.6647 14.7448 32.4214 14.7954 32.307 14.8263C32.1925 14.8571 32.0956 14.8791 32.0917 14.8751C32.0878 14.8712 32.1129 14.7589 32.1477 14.6255C32.1824 14.4921 32.2228 14.3257 32.2372 14.2557L32.2636 14.1283L32.6259 14.1269L32.8917 14.0948C33.0379 14.0769 33.3236 14.0522 33.5266 14.0396L33.8957 14.0168L34.4688 14.0603L34.8852 14.1529L35.1645 14.2945L35.3346 14.4578L35.46 14.7143L35.4559 15.269ZM38.1409 14.7391L38.0137 14.8007C37.9437 14.8347 37.8271 14.9069 37.7547 14.9614L37.623 15.0605L37.3821 15.3804L37.2908 15.5735C37.2406 15.6796 37.1994 15.7791 37.1991 15.7946C37.1989 15.81 37.1831 15.8676 37.1639 15.9224C37.1446 15.9773 37.0991 16.1616 37.0625 16.3322C37.026 16.5027 36.9829 16.7271 36.9665 16.8305C36.9502 16.9342 36.9114 17.1733 36.8803 17.3622C36.8491 17.5509 36.7986 17.8707 36.7678 18.0725L36.7122 18.4395V18.7355H35.745L35.8928 17.9936C35.929 17.8108 35.9882 17.5068 36.0243 17.3179C36.0603 17.1291 36.1149 16.84 36.1456 16.6756C36.1883 16.4433 36.229 16.2108 36.2679 15.9778C36.3044 15.7585 36.364 15.3947 36.4003 15.1693C36.4365 14.9439 36.4868 14.6239 36.5117 14.458C36.5367 14.2922 36.5571 14.1501 36.5571 14.1424V14.1282H37.3766L37.3757 14.1781C37.3752 14.2055 37.3463 14.3725 37.3116 14.5491C37.2769 14.7257 37.2514 14.8735 37.255 14.8773C37.2586 14.8812 37.2998 14.8264 37.3467 14.7555L37.4319 14.6266L37.7491 14.2944L37.993 14.1473L38.318 14.0329L38.7167 14.0319L38.8274 14.0668C38.8883 14.086 38.9644 14.1119 38.9964 14.1245L39.0546 14.1473L39.0028 14.398C38.9743 14.536 38.9506 14.6806 38.9501 14.7195L38.9491 14.7901L38.9308 14.8015L38.9124 14.8129L38.6944 14.7429L38.1409 14.7391ZM43.5567 12.1514C43.5567 12.1605 43.5326 12.2827 43.5031 12.4227C43.4612 12.6255 43.4207 12.8286 43.3814 13.0319C43.3439 13.2268 43.2874 13.5258 43.2559 13.6964C43.2245 13.8669 43.1699 14.161 43.1349 14.3499C43.0998 14.5387 43.0411 14.8576 43.0045 15.0587C42.9679 15.2596 42.913 15.5687 42.8827 15.7453C42.8491 15.941 42.8148 16.1367 42.7802 16.3322C42.7443 16.5385 42.7107 16.7453 42.6794 16.9524C42.65 17.1474 42.5961 17.5609 42.5597 17.8717L42.4936 18.4365V18.7355H41.6245L41.6392 18.5861C41.6473 18.5039 41.6625 18.3867 41.6732 18.3258C41.684 18.2648 41.6978 18.1651 41.7038 18.1043L41.715 17.9935L41.7022 18.0268C41.6952 18.0451 41.6352 18.1323 41.5689 18.2206L41.4485 18.3812L41.2199 18.5825L41.0869 18.6506C41.0139 18.688 40.9042 18.7326 40.8434 18.75C40.7824 18.7672 40.6429 18.7959 40.5333 18.8136L40.3338 18.846L40.1235 18.8433C40.0077 18.842 39.8512 18.8327 39.7758 18.8228C39.7002 18.8131 39.5756 18.7878 39.4988 18.7668C39.4221 18.7457 39.2996 18.6988 39.2264 18.6626L39.0935 18.5965L38.8988 18.437L38.7282 18.2062L38.6815 18.0887C38.6534 18.0173 38.6279 17.9449 38.6051 17.8717L38.5755 17.7721L38.5252 17.2183L38.592 16.5301L38.6598 16.265C38.6971 16.1193 38.754 15.9303 38.7863 15.8449C38.8185 15.7597 38.8992 15.5772 38.9653 15.4393L39.0858 15.1888L39.1882 15.0422C39.2447 14.9615 39.351 14.8309 39.4247 14.7519L39.5586 14.6083L39.8687 14.3788L40.2896 14.1735L40.7327 14.0615L41.2199 14.0161L41.7959 14.061L42.0063 14.1138C42.122 14.1429 42.2335 14.1738 42.2541 14.1826L42.2915 14.1985L42.3033 14.1246C42.3099 14.084 42.3448 13.8713 42.3813 13.6521C42.4176 13.4328 42.4775 13.064 42.5141 12.8326C42.5507 12.601 42.5871 12.3494 42.5947 12.2732L42.6087 12.1348H43.5568L43.5567 12.1514Z" fill="#AD121A"/>
<path d="M40.6687 18.2061L41.0209 18.0944L41.1427 18.0133C41.2097 17.9688 41.2978 17.9014 41.3386 17.8633C41.3794 17.8253 41.4438 17.7493 41.4821 17.6945C41.5203 17.6397 41.579 17.537 41.6125 17.4663C41.646 17.3957 41.6878 17.2859 41.7053 17.2226C41.7229 17.1593 41.7572 17.0328 41.7813 16.9414C41.8056 16.8501 41.8511 16.6408 41.8826 16.4763C41.914 16.3119 41.9691 16.0178 42.0049 15.8229C42.0408 15.628 42.091 15.3489 42.1164 15.2027C42.1418 15.0565 42.1682 14.9096 42.1749 14.8761L42.1871 14.8153L42.1244 14.791C42.09 14.7775 41.9671 14.7403 41.8513 14.7082L41.6409 14.6498L40.91 14.65L40.5617 14.7706L40.4626 14.8316C40.4079 14.8651 40.3161 14.9382 40.2584 14.9938C40.2007 15.0495 40.1132 15.1492 40.0641 15.2153C40.0151 15.2815 39.9437 15.3954 39.9055 15.4685C39.8577 15.5616 39.8123 15.656 39.7695 15.7515C39.7327 15.8341 39.7027 15.9138 39.7025 15.9287C39.7023 15.9436 39.6772 16.0356 39.6466 16.133L39.5911 16.3102L39.5197 16.8197L39.5145 17.3955L39.5759 17.6835L39.7108 17.942L39.8924 18.0908L40.0003 18.137C40.0597 18.1624 40.159 18.1924 40.2211 18.2036L40.3339 18.2238L40.5012 18.2151L40.6687 18.2061Z" fill="#AD121A"/>
</svg>
