<svg width="51" height="32" viewBox="0 0 51 32" fill="none" xmlns="http://www.w3.org/2000/svg">
<path d="M46.808 0H4.01757C2.07837 0 0.503967 1.5744 0.503967 3.5136V28.4864C0.503967 30.4256 2.07837 32 4.01757 32H46.8144C48.7536 32 50.328 30.4256 50.328 28.4864V3.5136C50.3216 1.5744 48.7472 0 46.808 0Z" fill="#F37421"/>
<path d="M6.85277 8.9536V20.1536H9.39357V15.4688H13.5664V20.1536H16.0944V8.9536H13.5664V13.2608H9.39357V8.9536H6.85277Z" fill="white"/>
<path d="M37.9696 16.896C38.0016 16.7104 38.0528 16.3328 38.0528 15.8976C38.0528 13.888 37.0544 11.84 34.4304 11.84C31.608 11.84 30.328 14.1184 30.328 16.1792C30.328 18.72 31.9088 20.32 34.6672 20.32C35.7616 20.32 36.7792 20.1536 37.6112 19.8208L37.2784 18.112C36.6 18.3296 35.896 18.4448 35.032 18.4448C33.8544 18.4448 32.824 17.9456 32.7408 16.9024H37.9696V16.896ZM32.7152 15.168C32.7792 14.4896 33.2144 13.5232 34.2768 13.5232C35.4416 13.5232 35.704 14.5536 35.704 15.168H32.7152Z" fill="white"/>
<path d="M38.8592 20.1536H41.3872V16.032C41.3872 15.8336 41.4064 15.6352 41.4384 15.4688C41.6048 14.688 42.2384 14.1888 43.1664 14.1888C43.448 14.1888 43.6656 14.2208 43.8448 14.2528V11.8784C43.6592 11.8464 43.544 11.8464 43.3136 11.8464C42.5328 11.8464 41.5344 12.3456 41.1184 13.5232H41.0544L40.9712 12.0256H38.7952C38.8272 12.7232 38.8592 13.504 38.8592 14.7008V20.1536Z" fill="white"/>
<path fill-rule="evenodd" clip-rule="evenodd" d="M18.6608 8.5056C19.3776 8.5056 19.96 9.088 19.96 9.8048C19.96 10.5216 19.3776 11.104 18.6608 11.104C17.944 11.104 17.3616 10.5216 17.3616 9.8048C17.3616 9.088 17.944 8.5056 18.6608 8.5056Z" fill="#FFE700"/>
<path fill-rule="evenodd" clip-rule="evenodd" d="M23.9984 18.2592H25.2656C26.5392 18.2592 27.1152 17.4464 27.1152 16.5952C27.1152 15.744 27.0512 13.824 25.4832 13.824C23.6784 13.824 23.9664 16.2112 23.9792 17.4592C23.9728 17.728 23.992 17.9968 23.9984 18.2592ZM17.3616 12.0192H19.96V16.6016C19.96 17.4528 20.4336 18.2656 21.4768 18.2656C21.4832 16.2048 21.4768 14.08 21.4064 12.0192H23.576C23.6208 12.416 23.6656 12.8128 23.704 13.2096C24.728 11.1616 27.96 11.6096 29.048 13.344C30.168 15.1296 30.552 20.2496 25.2656 20.2496H24.0368C24.0496 21.2864 24.0496 22.3296 24.0496 23.3728H21.4512C21.4512 22.3744 21.4576 21.3248 21.464 20.2496C18.6544 20.2368 17.3616 18.4576 17.3616 16.6016V12.0192Z" fill="white"/>
</svg>
