<svg width="140" height="32" viewBox="0 0 140 32" fill="none" xmlns="http://www.w3.org/2000/svg">
<path d="M13.7467 27.4363C11.5542 27.4363 9.36177 27.4411 7.1709 27.4347C5.93664 27.4299 5.61242 27.0977 5.61082 25.8586C5.6076 22.6533 5.60439 19.4497 5.6076 16.2444C5.6076 15.0904 5.92219 14.7678 7.08584 14.7646C11.5446 14.7582 16.0018 14.7566 20.4606 14.7646C21.6258 14.7662 21.9837 15.1386 21.9853 16.3086C21.9901 19.5155 21.9918 22.7239 21.9853 25.9308C21.9837 27.0367 21.6065 27.4235 20.4862 27.4315C18.2408 27.4459 15.9954 27.4363 13.7499 27.4363H13.7467ZM12.3584 20.3902C12.3552 20.6342 12.3487 20.9087 12.5301 21.0708C13.0662 21.5507 13.087 22.159 13.0566 22.8042C13.0325 23.3114 13.2154 23.7512 13.782 23.7576C14.3727 23.7656 14.4963 23.305 14.485 22.8058C14.4722 22.1975 14.461 21.6357 14.9601 21.1237C15.4176 20.6535 15.3196 20.0243 14.9184 19.5107C14.4963 18.9698 13.912 18.8093 13.2748 19.042C12.6713 19.2635 12.3359 19.7177 12.3584 20.3902Z" fill="#033C71"/>
<path d="M74.1199 21.1301C74.1199 19.2057 74.1392 17.2813 74.1071 15.3585C74.0975 14.8192 74.2692 14.686 74.786 14.6908C77.2449 14.7148 79.7038 14.71 82.1627 14.694C82.5897 14.6908 82.7678 14.7823 82.7855 15.2606C82.8593 17.3294 82.8754 17.3294 80.7888 17.3294C79.7472 17.3294 78.7039 17.3407 77.6622 17.3246C77.2722 17.3182 77.1021 17.4129 77.0812 17.8543C76.9849 19.7851 76.9689 19.7835 78.8965 19.7835C79.9125 19.7835 80.9285 19.8012 81.9429 19.7755C82.3682 19.7643 82.4709 19.9135 82.4837 20.326C82.5463 22.2473 82.5608 22.2473 80.662 22.2473C79.699 22.2473 78.736 22.2713 77.7762 22.2376C77.2738 22.22 77.0812 22.3387 77.0764 22.8909C77.0603 24.9469 77.0379 24.9469 79.0747 24.9469C80.2239 24.9469 81.3731 24.963 82.5223 24.9389C82.9476 24.9293 83.1226 25.0127 83.1338 25.499C83.1835 27.6 83.2012 27.6 81.0842 27.6C78.9992 27.6 76.9143 27.5824 74.8294 27.6113C74.2837 27.6193 74.091 27.4829 74.1023 26.9067C74.1376 24.9838 74.1151 23.0578 74.1151 21.135L74.1199 21.1301Z" fill="#033C71"/>
<path d="M125.221 26.767C125.221 28.3239 125.2 29.7941 125.232 31.2611C125.243 31.794 125.133 32.0428 124.54 31.9914C123.958 31.94 123.365 31.9593 122.778 31.9866C122.367 32.0058 122.213 31.8726 122.215 31.4489C122.226 27.3095 122.224 23.1701 122.215 19.0292C122.215 18.6584 122.309 18.4915 122.709 18.5188C123.134 18.5493 123.566 18.5557 123.99 18.5188C124.68 18.4594 125.295 18.4465 125.06 19.477C127.75 17.8671 129.667 17.9666 131.164 19.7402C132.71 21.5715 132.681 24.642 131.1 26.4653C129.648 28.1393 127.574 28.2645 125.221 26.767ZM127.285 20.7482C126.089 20.7514 125.12 21.7914 125.126 23.0626C125.133 24.3001 126.144 25.3674 127.322 25.3803C128.505 25.3931 129.439 24.345 129.424 23.0209C129.41 21.6229 128.583 20.7449 127.285 20.7482Z" fill="#033C71"/>
<path d="M116.417 24.1765C116.77 23.9807 116.733 23.6372 116.819 23.3788C117.276 21.9856 117.711 20.5844 118.112 19.1736C118.241 18.7226 118.401 18.4947 118.92 18.538C119.557 18.591 120.204 18.5798 120.842 18.5412C121.42 18.5075 121.435 18.6873 121.242 19.1704C119.91 22.5105 118.626 25.8682 117.284 29.2051C116.361 31.5019 114.714 32.3429 112.305 31.8774C111.951 31.8084 111.766 31.725 111.854 31.3269C111.906 31.0942 111.912 30.8502 111.925 30.6095C111.97 29.8166 112 29.1954 113.186 29.3816C114.222 29.5437 115.106 27.9644 114.681 26.9548C113.596 24.3771 112.517 21.7962 111.402 19.233C111.142 18.6359 111.276 18.5027 111.88 18.5412C112.519 18.5814 113.166 18.5862 113.804 18.5396C114.334 18.4995 114.536 18.7162 114.695 19.2009C115.238 20.8637 115.835 22.5105 116.417 24.1765Z" fill="#033C71"/>
<path d="M87.8686 19.6856C88.9071 18.5412 90.0033 18.0661 91.358 18.3149C92.7126 18.5637 93.6451 19.416 93.849 20.7835C94.1636 22.9053 93.926 25.0512 93.9838 27.1875C93.9918 27.4764 93.8281 27.539 93.5777 27.5422C92.8843 27.5519 92.1894 27.5583 91.496 27.6032C91.0402 27.6321 90.9711 27.4138 90.976 27.027C90.992 25.6644 90.9888 24.3001 90.9776 22.9374C90.9744 22.5923 90.9374 22.244 90.8813 21.9038C90.7802 21.3083 90.5089 20.8477 89.8412 20.7562C89.1173 20.6567 88.5893 20.9392 88.2618 21.5828C88.0275 22.0466 87.9906 22.5538 87.9906 23.0642C87.989 24.3466 87.9697 25.6307 88.0002 26.9131C88.0115 27.409 87.912 27.6514 87.3486 27.6065C86.7371 27.5583 86.1191 27.5824 85.5044 27.6C85.1609 27.6097 85.039 27.4797 85.0406 27.133C85.0502 24.406 85.0518 21.6807 85.039 18.9537C85.0374 18.5765 85.1979 18.5059 85.5189 18.5204C85.9185 18.5396 86.3214 18.5332 86.721 18.5236C87.4305 18.5059 88.2506 18.3438 87.867 19.684L87.8686 19.6856Z" fill="#033C71"/>
<path d="M46.9901 23.8491C46.1073 23.8491 45.2246 23.8715 44.3434 23.8427C43.6902 23.8202 43.6789 24.0641 43.9566 24.5441C44.5761 25.6146 46.2502 25.9629 47.3384 25.1187C47.8825 24.6965 48.2468 24.772 48.6946 25.1363C48.7572 25.1861 48.8279 25.2262 48.8953 25.2679C50.1151 26.0464 50.1167 26.1298 48.9402 26.9821C47.3047 28.1666 44.5456 28.1746 42.8026 26.9981C41.2168 25.9276 40.4945 23.8394 41.0065 21.8043C41.6277 19.3405 44.0529 17.8832 46.7253 18.3647C49.0189 18.7788 50.5164 20.9247 50.2917 23.4237C50.2579 23.7961 50.1103 23.8555 49.7973 23.8523C48.8616 23.841 47.9258 23.8491 46.9901 23.8491ZM45.6756 22.029C46.1282 22.029 46.584 22.0017 47.035 22.0354C47.5808 22.0771 47.6032 21.8075 47.4716 21.4062C47.2357 20.6856 46.5616 20.2618 45.7157 20.3004C44.7992 20.3421 43.9823 20.9311 43.8089 21.6261C43.7207 21.9792 43.8523 22.0418 44.1572 22.0338C44.6628 22.0209 45.17 22.0306 45.6772 22.0306L45.6756 22.029Z" fill="#033C71"/>
<path d="M17.8572 14.7566C16.8064 14.7566 16.2645 14.2398 16.2313 13.2061C16.1864 11.7648 15.1961 10.6846 13.8864 10.6445C12.4964 10.6028 11.5366 11.4903 11.3616 12.9814C11.3456 13.1146 11.3247 13.2462 11.3183 13.3795C11.2712 14.2975 10.7983 14.7566 9.89946 14.7566C8.66037 14.7566 8.04404 14.1274 8.05046 12.8691C8.06651 9.94148 10.5463 7.47134 13.6087 7.33491C16.4785 7.20651 19.1428 9.47442 19.4414 12.3089C19.5007 12.8658 19.4911 13.4292 19.5537 13.9846C19.6275 14.6314 19.3515 14.84 18.74 14.763C18.4511 14.7261 18.1509 14.7566 17.8572 14.7566Z" fill="#F8A11F"/>
<path d="M31.8852 21.1318C31.8852 19.2073 31.9044 17.2829 31.8723 15.3601C31.8643 14.8192 32.0409 14.6571 32.5593 14.6908C33.1451 14.7293 33.7374 14.7389 34.3216 14.6892C34.8914 14.641 35.0342 14.8432 35.0278 15.4002C35.0005 18.286 35.0391 21.1719 34.9973 24.0577C34.9877 24.7351 35.1707 24.918 35.8368 24.8859C37.0373 24.8297 38.2411 24.8827 39.4433 24.8635C39.8413 24.857 39.9858 24.9549 40.0034 25.3931C40.0885 27.5872 40.1045 27.5856 37.9056 27.5856C36.169 27.5856 34.4307 27.5519 32.6941 27.6032C32.0007 27.6241 31.8531 27.3898 31.8675 26.7429C31.9092 24.8731 31.882 23.0016 31.882 21.1318H31.8852Z" fill="#033C71"/>
<path d="M64.501 27.8729C63.2362 27.8889 62.0774 27.5615 61.0197 26.8601C60.6714 26.629 60.5879 26.4268 60.9491 26.1395C61.0726 26.0415 61.1561 25.8955 61.2669 25.7799C61.5622 25.4718 61.8126 25.0432 62.1753 24.8972C62.5878 24.7318 62.8494 25.2856 63.2282 25.4429C63.7306 25.6515 64.2281 25.8217 64.7771 25.7221C65.1623 25.6531 65.5186 25.5199 65.5491 25.0512C65.5764 24.6388 65.3228 24.4076 64.9632 24.2937C64.4304 24.1251 63.8863 23.9903 63.3518 23.8266C61.8479 23.3644 61.1738 22.5923 61.1625 21.3356C61.1497 20.0066 61.9506 18.9553 63.3534 18.5348C65.0018 18.0405 66.5699 18.2571 68.0449 19.1544C68.4205 19.3839 68.5473 19.6054 68.1412 19.928C67.9534 20.0773 67.7736 20.2458 67.6308 20.4368C67.1894 21.029 66.7528 21.2634 66.0819 20.684C65.663 20.3212 65.0692 20.3758 64.5379 20.4609C64.2217 20.5122 63.9087 20.6422 63.8718 21.0451C63.8333 21.4512 64.1078 21.6229 64.4239 21.724C64.8814 21.8685 65.3484 21.9808 65.8123 22.1028C67.7046 22.6052 68.4991 23.5377 68.3852 25.1235C68.2808 26.56 67.1124 27.6145 65.3789 27.8231C65.0884 27.8584 64.7947 27.8568 64.501 27.8729Z" fill="#033C71"/>
<path d="M100.057 27.8617C97.5245 27.8504 95.7702 26.6547 95.1153 24.5569C94.483 22.5281 95.2036 20.3357 96.8905 19.1511C98.5485 17.9875 101.12 17.9233 102.73 18.9842C103.19 19.2876 103.397 19.5717 102.884 20.0098C102.702 20.1639 102.542 20.3533 102.412 20.5539C102.012 21.1751 101.646 21.4335 100.863 20.944C100.02 20.4175 99.0188 20.7754 98.457 21.5507C97.7909 22.4736 97.7973 23.7945 98.4731 24.6083C99.1119 25.3771 100.28 25.6579 101.153 25.0866C101.712 24.7206 101.925 24.9309 102.21 25.3305C102.38 25.5697 102.576 25.7896 102.762 26.0175C103.413 26.8152 103.396 26.889 102.447 27.3512C101.664 27.7332 100.834 27.9018 100.056 27.86L100.057 27.8617Z" fill="#033C71"/>
<path d="M52.2032 23.1252C52.2032 22.7785 52.2032 22.4302 52.2032 22.0835C52.2032 20.9247 52.2032 20.9183 51.0894 20.7786C50.8791 20.753 50.7298 20.7353 50.733 20.4737C50.7411 19.9392 50.733 19.4047 50.7379 18.8703C50.7427 18.4241 51.0974 18.5284 51.3221 18.5605C52.0171 18.66 52.2289 18.4257 52.1984 17.705C52.1358 16.1963 52.1808 16.1947 53.6638 16.1947C55.0955 16.1947 55.1437 16.1963 55.0762 17.6071C55.0393 18.3807 55.2464 18.6584 56.0328 18.5685C56.402 18.5268 56.983 18.3326 57.1451 18.6985C57.3987 19.2731 57.2719 19.9617 57.2029 20.5941C57.1676 20.9103 56.8 20.7626 56.585 20.7674C55.0698 20.8043 55.0682 20.7979 55.0698 22.3179C55.0698 22.9583 55.0522 23.6019 55.0875 24.2407C55.1437 25.2599 55.5064 25.6002 56.5111 25.4637C57.044 25.3915 57.1371 25.5344 57.1403 26.0239C57.1532 27.7044 57.0488 27.8279 55.3411 27.8231C53.2898 27.8167 52.2193 26.7606 52.2048 24.727C52.2016 24.1926 52.2048 23.6581 52.2048 23.1236L52.2032 23.1252Z" fill="#033C71"/>
<path d="M134.203 23.1027C134.203 22.7288 134.171 22.3516 134.209 21.9824C134.293 21.1799 134.24 20.5379 133.148 20.7674C133 20.7979 132.784 20.7883 132.777 20.5764C132.76 19.9633 132.705 19.3389 132.803 18.7403C132.862 18.3743 133.31 18.5477 133.567 18.5653C134.065 18.6006 134.19 18.4337 134.19 17.941C134.193 16.1947 134.214 16.1947 135.906 16.1963C136.697 16.1963 137.093 16.5879 137.093 17.3712C137.093 17.5317 137.114 17.6954 137.09 17.8511C137.005 18.4096 137.225 18.5749 137.788 18.5653C139.247 18.5428 139.218 18.5717 139.25 20.0339C139.263 20.6246 139.119 20.8091 138.503 20.7899C137.093 20.7466 137.092 20.7835 137.092 22.1943C137.092 22.8347 137.085 23.4767 137.092 24.1171C137.105 25.2406 137.459 25.6018 138.544 25.4589C139.039 25.3947 139.125 25.5199 139.133 25.9757C139.167 27.6995 139.048 27.8344 137.318 27.8247C135.304 27.8119 134.252 26.7927 134.201 24.7864C134.187 24.2263 134.199 23.6645 134.199 23.1043L134.203 23.1027Z" fill="#033C71"/>
<path d="M107.277 19.8525C108.145 18.9216 108.785 18.3567 109.736 18.3005C110.32 18.2668 110.678 18.3534 110.514 19.0484C110.483 19.1768 110.474 19.3117 110.466 19.4449C110.435 19.8975 110.548 20.4288 110.345 20.7803C110.129 21.1558 109.564 20.8477 109.153 20.9295C108.201 21.1221 107.543 21.9022 107.522 23.0145C107.498 24.2969 107.493 25.5809 107.527 26.8633C107.541 27.393 107.434 27.661 106.837 27.6C106.099 27.523 105.137 27.905 104.667 27.4524C104.195 26.9981 104.532 26.0367 104.524 25.2984C104.503 23.2664 104.535 21.2345 104.505 19.2025C104.497 18.6696 104.659 18.4835 105.18 18.5412C105.524 18.5782 105.875 18.5412 106.222 18.5493C106.88 18.5637 107.793 18.2475 107.277 19.8493V19.8525Z" fill="#033C71"/>
<path d="M59.9909 17.4498C58.8272 17.2315 58.4131 16.8768 58.373 16.0502C58.3393 15.3264 58.6956 14.8192 59.3601 14.5672C60.3375 14.1964 61.3567 14.8047 61.6151 15.8785C62.0004 17.4819 61.0325 19.2539 59.4596 19.7803C59.1948 19.8686 58.7004 20.1382 58.6555 19.806C58.5993 19.3983 58.1996 18.7467 59.0054 18.4754C59.4676 18.3197 59.8368 18.0068 59.9909 17.4498Z" fill="#033C71"/>
<path d="M24.0157 11.1693C24.5759 11.1693 25.136 11.1533 25.6946 11.1741C26.2836 11.195 26.6431 11.5064 26.68 12.1083C26.7202 12.7519 26.3703 13.1612 25.7588 13.1869C24.5614 13.2382 23.3608 13.2382 22.1635 13.1869C21.5985 13.1628 21.2262 12.7728 21.2422 12.1773C21.2583 11.5529 21.6338 11.1998 22.2582 11.1741C22.844 11.1501 23.4283 11.1693 24.0157 11.1693Z" fill="#F8A11F"/>
<path d="M14.7884 2.75095C14.7884 3.3111 14.7996 3.87286 14.7852 4.43302C14.7691 5.08145 14.3871 5.43135 13.774 5.43777C13.1866 5.44419 12.8062 5.07182 12.7901 4.48919C12.7564 3.28863 12.7596 2.08646 12.7949 0.885902C12.811 0.317721 13.2251 0.0159752 13.7547 0.00152988C14.3326 -0.0145204 14.729 0.319326 14.7739 0.909977C14.8205 1.51989 14.7836 2.13783 14.7836 2.75095C14.7836 2.75095 14.7868 2.75095 14.7884 2.75095Z" fill="#F8A11F"/>
<path d="M3.61255 11.1693C4.14542 11.1693 4.67829 11.1597 5.21116 11.1709C5.83391 11.1854 6.24159 11.5032 6.26888 12.1291C6.29616 12.7519 5.90935 13.1644 5.30586 13.1901C4.13579 13.2398 2.96091 13.2382 1.79084 13.1885C1.22587 13.166 0.843875 12.7776 0.8519 12.1901C0.859925 11.577 1.22106 11.1998 1.85504 11.1758C2.44088 11.1533 3.02672 11.1693 3.61255 11.1693Z" fill="#F8A11F"/>
<path d="M22.5615 3.5984C23.0061 3.65779 23.3063 3.82953 23.4828 4.20831C23.6626 4.59352 23.6369 4.97552 23.3336 5.23714C22.3689 6.06854 21.3915 6.89193 20.3739 7.65753C19.9421 7.98335 19.4333 7.85173 19.0995 7.42159C18.7945 7.02835 18.7464 6.52437 19.13 6.18892C20.1091 5.33505 21.1379 4.53735 22.1571 3.73002C22.271 3.64013 22.4524 3.63211 22.5615 3.5984Z" fill="#F8A11F"/>
<path d="M7.64439 7.79716C7.32338 7.82284 7.09065 7.65271 6.86113 7.46171C6.06183 6.80204 5.25289 6.15201 4.45519 5.48913C3.9159 5.04133 3.79713 4.39289 4.21123 3.96275C4.66545 3.49087 5.16622 3.47161 5.69107 3.91459C6.54494 4.63525 7.42771 5.3206 8.27998 6.04126C8.63148 6.33819 8.77433 6.725 8.5737 7.18565C8.39554 7.59332 8.10022 7.81482 7.64439 7.79716Z" fill="#F8A11F"/>
</svg>
