<svg width="47" height="32" viewBox="0 0 47 32" fill="none" xmlns="http://www.w3.org/2000/svg">
<path d="M43.9288 0H2.90317C1.31712 0 0.0313721 1.28575 0.0313721 2.87179V29.1282C0.0313721 30.7143 1.31712 32 2.90317 32H43.9288C45.5149 32 46.8006 30.7143 46.8006 29.1282V2.87179C46.8006 1.28575 45.5149 0 43.9288 0Z" fill="#DDDDDF"/>
<path fill-rule="evenodd" clip-rule="evenodd" d="M17.0561 24.9359V27.3594H16.525V27.0652C16.3565 27.2834 16.101 27.4204 15.7535 27.4204C15.0686 27.4204 14.5316 26.8882 14.5316 26.1476C14.5316 25.4077 15.0686 24.8749 15.7535 24.8749C16.101 24.8749 16.3565 25.0119 16.525 25.2301V24.9359H17.0561ZM15.8196 25.3717C15.3599 25.3717 15.0785 25.7217 15.0785 26.1476C15.0785 26.5736 15.3599 26.9236 15.8196 26.9236C16.2589 26.9236 16.5554 26.5887 16.5554 26.1476C16.5554 25.7066 16.2589 25.3717 15.8196 25.3717ZM35.0039 26.1476C35.0039 25.7217 35.2853 25.3717 35.745 25.3717C36.1849 25.3717 36.4808 25.7066 36.4808 26.1476C36.4808 26.5887 36.1849 26.9236 35.745 26.9236C35.2853 26.9236 35.0039 26.5736 35.0039 26.1476ZM36.9822 23.9626V27.3594H36.4505V27.0652C36.282 27.2834 36.0264 27.4204 35.679 27.4204C34.994 27.4204 34.4571 26.8882 34.4571 26.1476C34.4571 25.4077 34.994 24.8749 35.679 24.8749C36.0264 24.8749 36.282 25.0119 36.4505 25.2301V23.9626H36.9822ZM23.6488 25.3468C23.991 25.3468 24.2109 25.5597 24.2671 25.9347H22.9996C23.0563 25.5847 23.2703 25.3468 23.6488 25.3468ZM22.4427 26.1476C22.4427 25.392 22.9434 24.8749 23.6593 24.8749C24.3437 24.8749 24.814 25.392 24.8192 26.1476C24.8192 26.2184 24.814 26.2846 24.8087 26.3502H22.9949C23.0715 26.7866 23.3832 26.9439 23.7254 26.9439C23.9705 26.9439 24.2314 26.8522 24.4361 26.6903L24.6964 27.0809C24.3999 27.3292 24.063 27.4204 23.695 27.4204C22.9639 27.4204 22.4427 26.9184 22.4427 26.1476ZM30.0725 26.1476C30.0725 25.7217 30.3538 25.3717 30.8136 25.3717C31.2528 25.3717 31.5494 25.7066 31.5494 26.1476C31.5494 26.5887 31.2528 26.9236 30.8136 26.9236C30.3538 26.9236 30.0725 26.5736 30.0725 26.1476ZM32.0501 24.9359V27.3594H31.519V27.0652C31.3499 27.2834 31.0949 27.4204 30.7474 27.4204C30.0625 27.4204 29.5255 26.8882 29.5255 26.1476C29.5255 25.4077 30.0625 24.8749 30.7474 24.8749C31.0949 24.8749 31.3499 25.0119 31.519 25.2301V24.9359H32.0501ZM27.0729 26.1476C27.0729 26.883 27.5889 27.4204 28.3762 27.4204C28.7441 27.4204 28.9892 27.3392 29.2548 27.1313L28.9997 26.7054C28.8003 26.8476 28.5908 26.9236 28.3604 26.9236C27.9363 26.9184 27.6246 26.6142 27.6246 26.1476C27.6246 25.6811 27.9363 25.3769 28.3604 25.3717C28.5908 25.3717 28.8003 25.4477 28.9997 25.5899L29.2548 25.1639C28.9892 24.9561 28.7441 24.8749 28.3762 24.8749C27.5889 24.8749 27.0729 25.4123 27.0729 26.1476ZM33.2767 25.2301C33.4147 25.0171 33.6141 24.8749 33.9207 24.8749C34.0283 24.8749 34.1815 24.8953 34.2991 24.941L34.1353 25.4379C34.023 25.392 33.9107 25.3769 33.8031 25.3769C33.4556 25.3769 33.2819 25.5998 33.2819 26.0008V27.3594H32.7502V24.9359H33.2767V25.2301ZM19.6831 25.1285C19.4274 24.9614 19.0753 24.8749 18.6869 24.8749C18.068 24.8749 17.6697 25.1691 17.6697 25.6509C17.6697 26.0461 17.9663 26.2898 18.5126 26.3659L18.7635 26.4012C19.0548 26.4419 19.1923 26.5179 19.1923 26.6548C19.1923 26.8423 18.9981 26.9491 18.6354 26.9491C18.2675 26.9491 18.002 26.8325 17.823 26.6955L17.5726 27.1058C17.8639 27.3188 18.2318 27.4204 18.6302 27.4204C19.3356 27.4204 19.7444 27.0907 19.7444 26.6293C19.7444 26.2033 19.4227 25.9805 18.891 25.9045L18.6407 25.8685C18.4109 25.8383 18.2266 25.7931 18.2266 25.6305C18.2266 25.453 18.4003 25.3468 18.6916 25.3468C19.0034 25.3468 19.3051 25.4634 19.4532 25.5545L19.6831 25.1285ZM25.8926 25.2301C26.0301 25.0171 26.2295 24.8749 26.536 24.8749C26.6436 24.8749 26.7969 24.8953 26.9144 24.941L26.7506 25.4379C26.6384 25.392 26.5261 25.3769 26.4184 25.3769C26.071 25.3769 25.8973 25.5998 25.8973 26.0008V27.3594H25.3662V24.9359H25.8926V25.2301ZM22.0034 24.9359H21.1348V24.2005H20.5979V24.9359H20.1024V25.4175H20.5979V26.5232C20.5979 27.0855 20.8177 27.4204 21.446 27.4204C21.6764 27.4204 21.942 27.3496 22.1105 27.2329L21.9572 26.7814C21.7987 26.8725 21.625 26.9184 21.487 26.9184C21.2214 26.9184 21.1348 26.7559 21.1348 26.5127V25.4175H22.0034V24.9359ZM14.0619 25.8383V27.3594H13.525V26.0107C13.525 25.5998 13.3512 25.3717 12.9886 25.3717C12.6358 25.3717 12.3908 25.5952 12.3908 26.0159V27.3594H11.8538V26.0107C11.8538 25.5998 11.6754 25.3717 11.3227 25.3717C10.9595 25.3717 10.7244 25.5952 10.7244 26.0159V27.3594H10.188V24.9359H10.7197V25.2347C10.9192 24.951 11.1742 24.8749 11.435 24.8749C11.8082 24.8749 12.0738 25.0375 12.2422 25.3061C12.4674 24.9661 12.7891 24.8697 13.1009 24.8749C13.694 24.8802 14.0619 25.2655 14.0619 25.8383Z" fill="#2B2B2F"/>
<path d="M27.5567 20.8176H19.507V6.46425H27.5567V20.8176Z" fill="#FF5F00"/>
<path d="M20.0177 13.6413C20.0177 10.7296 21.3916 8.13596 23.5313 6.46455C21.9666 5.24231 19.9919 4.5128 17.8459 4.5128C12.7652 4.5128 8.64676 8.59971 8.64676 13.6413C8.64676 18.6828 12.7652 22.7697 17.8459 22.7697C19.9919 22.7697 21.9666 22.0402 23.5313 20.818C21.3916 19.1466 20.0177 16.5529 20.0177 13.6413Z" fill="#EB001B"/>
<path d="M38.4164 13.6413C38.4164 18.6828 34.298 22.7697 29.2173 22.7697C27.0712 22.7697 25.0966 22.0402 23.5313 20.818C25.6715 19.1466 27.0455 16.5529 27.0455 13.6413C27.0455 10.7296 25.6715 8.13596 23.5313 6.46455C25.0966 5.24231 27.0712 4.5128 29.2173 4.5128C34.298 4.5128 38.4164 8.59971 38.4164 13.6413Z" fill="#F79E1B"/>
</svg>
