<svg width="111" height="32" viewBox="0 0 111 32" fill="none" xmlns="http://www.w3.org/2000/svg">
<path d="M51.6621 31.9951C51.6621 31.9951 51.6474 31.9754 51.6375 31.9754C50.9343 31.8967 50.3687 31.341 50.3589 30.4411C50.354 29.8854 50.4917 29.3936 50.9687 29.0493C51.7162 28.5133 52.9407 28.7493 53.3391 29.5165C53.644 30.1017 53.6292 30.7115 53.3194 31.2918C53.1079 31.6853 52.7489 31.8918 52.3112 31.9607C52.2817 31.9607 52.2473 31.9508 52.2276 31.9902H51.6621V31.9951ZM52.7047 30.387C52.7096 30.1558 52.6752 29.9247 52.5571 29.7132C52.4244 29.4772 52.2129 29.3641 51.9473 29.3641C51.6818 29.3641 51.4605 29.4772 51.3424 29.7181C51.131 30.1509 51.1261 30.5984 51.3326 31.0312C51.4457 31.2722 51.6572 31.3902 51.9277 31.4C52.2031 31.4049 52.4145 31.2918 52.5522 31.0558C52.6752 30.8492 52.7047 30.623 52.6997 30.382L52.7047 30.387Z" fill="#004184"/>
<path d="M72.961 31.9951C72.961 31.9951 72.9463 31.9754 72.9364 31.9754C72.2283 31.8967 71.6676 31.341 71.6578 30.446C71.6529 29.8903 71.7906 29.3985 72.2676 29.0542C73.02 28.5133 74.2544 28.7543 74.6478 29.5313C74.933 30.0968 74.9281 30.682 74.6478 31.2525C74.4413 31.6656 74.0823 31.882 73.6348 31.9656C73.6003 31.9705 73.561 31.9656 73.5315 31.9951H72.961ZM74.0036 30.3575C74.0085 30.1804 73.9839 29.9788 73.8954 29.787C73.7626 29.5067 73.5413 29.3641 73.2364 29.369C72.9266 29.3739 72.7053 29.5313 72.5971 29.8165C72.4545 30.1755 72.4496 30.5443 72.5774 30.9083C72.6954 31.2427 72.9315 31.4099 73.261 31.4049C73.5856 31.4049 73.8216 31.223 73.9397 30.8935C73.9987 30.7263 74.0134 30.5591 74.0085 30.3575H74.0036Z" fill="#004184"/>
<path d="M44.4576 31.9951C44.4576 31.9951 44.4428 31.9754 44.433 31.9754C43.7248 31.8967 43.1642 31.3361 43.1543 30.446C43.1494 29.8903 43.2871 29.3985 43.7641 29.0542C44.5166 28.5133 45.746 28.7543 46.1444 29.5313C46.4296 30.0919 46.4247 30.6722 46.1444 31.2377C45.9378 31.6558 45.5788 31.882 45.1215 31.9656C45.087 31.9705 45.0477 31.9656 45.0182 31.9951H44.4526H44.4576ZM45.5001 30.3673C45.51 30.1558 45.4706 29.9345 45.3575 29.7231C45.2247 29.4821 45.0083 29.3641 44.7379 29.3641C44.4625 29.3641 44.2412 29.487 44.1281 29.7329C43.9314 30.1558 43.9215 30.5935 44.1281 31.0214C44.2461 31.2673 44.4576 31.3902 44.7329 31.4C45.0083 31.4049 45.2198 31.2918 45.3575 31.0509C45.4804 30.8443 45.51 30.6181 45.505 30.3624L45.5001 30.3673Z" fill="#004184"/>
<path d="M16.077 31.9951C16.0328 31.9557 15.9787 31.9705 15.9295 31.9557C15.2951 31.8131 14.8574 31.3312 14.7886 30.6771C14.7591 30.3919 14.7591 30.1017 14.8427 29.8214C15 29.3051 15.3345 28.9706 15.8607 28.8329C16.6032 28.6362 17.3507 28.8674 17.695 29.4182C18.0294 29.9493 18.0392 30.5296 17.8229 31.105C17.6606 31.5377 17.3311 31.8082 16.8786 31.9311C16.8 31.9508 16.7164 31.9705 16.6377 31.9902H16.0721L16.077 31.9951ZM17.1196 30.3673C17.1245 30.1903 17.0999 29.9935 17.0163 29.8067C16.8885 29.5214 16.6475 29.3591 16.3524 29.369C16.0377 29.3788 15.8164 29.5362 15.7033 29.8263C15.5705 30.1755 15.5656 30.5345 15.6787 30.8886C15.7869 31.2279 16.0377 31.4049 16.3672 31.4049C16.6967 31.4049 16.9327 31.223 17.0508 30.8837C17.1049 30.7214 17.1196 30.5591 17.1196 30.3673Z" fill="#004184"/>
<path d="M84.0654 31.9951C84.0014 31.941 83.9178 31.9508 83.8441 31.9312C83.2441 31.7541 82.8507 31.2476 82.8064 30.564C82.7769 30.0476 82.8556 29.5509 83.2638 29.187C83.8096 28.7002 84.4588 28.6756 85.103 28.9215C85.7177 29.1575 85.9538 29.669 85.9833 30.3034C85.9931 30.5099 85.9833 30.7115 85.9243 30.9083C85.762 31.4935 85.3833 31.8475 84.7883 31.9705C84.7538 31.9754 84.7145 31.9656 84.6899 32H84.0604L84.0654 31.9951ZM85.162 30.387C85.1522 30.1607 85.1276 29.9395 85.0145 29.7378C84.8768 29.487 84.6653 29.369 84.385 29.3739C84.1047 29.3739 83.8883 29.5018 83.7703 29.7575C83.5834 30.1657 83.5785 30.5886 83.7605 31.0017C83.8785 31.2722 84.0949 31.4049 84.3948 31.4099C84.6899 31.4099 84.9014 31.2722 85.0342 31.0115C85.1325 30.8148 85.1571 30.6033 85.162 30.387Z" fill="#004184"/>
<path d="M99.5465 31.9951C99.517 31.9459 99.4629 31.9607 99.4187 31.9508C98.8236 31.8033 98.4548 31.4295 98.3368 30.8394C98.2089 30.2099 98.2679 29.6001 98.7892 29.1526C99.3301 28.6854 99.9744 28.6756 100.609 28.9215C101.204 29.1575 101.445 29.6641 101.474 30.2788C101.489 30.6132 101.45 30.9378 101.287 31.2377C101.071 31.6459 100.727 31.8721 100.279 31.9607C100.245 31.9656 100.206 31.9557 100.181 31.9902H99.5515L99.5465 31.9951ZM100.643 30.4066C100.643 30.1509 100.609 29.9149 100.481 29.7034C100.206 29.251 99.517 29.251 99.2761 29.7231C99.0548 30.1509 99.0597 30.5984 99.2662 31.0361C99.3842 31.2869 99.5957 31.4 99.8711 31.4049C100.146 31.4049 100.353 31.2918 100.491 31.0558C100.609 30.8492 100.633 30.623 100.643 30.4066Z" fill="#004184"/>
<path d="M76.1084 31.9951C75.8773 31.9213 75.6363 31.8918 75.4101 31.8082C75.3117 31.7738 75.2675 31.7295 75.2773 31.6164C75.2871 31.4541 75.2773 31.2918 75.2773 31.1296C75.2773 31.0902 75.2576 31.0361 75.3019 31.0164C75.3511 30.9919 75.3904 31.0263 75.4297 31.0509C75.7346 31.2722 76.074 31.3951 76.4477 31.4099C76.5903 31.4148 76.7329 31.4099 76.8657 31.3656C76.9838 31.3263 77.087 31.2673 77.087 31.1148C77.087 30.9673 76.9887 30.9033 76.8707 30.8591C76.669 30.7804 76.4526 30.7656 76.2461 30.7115C76.0494 30.6624 75.8527 30.6033 75.6805 30.4952C75.2281 30.2099 75.1543 29.5755 75.5281 29.1919C75.7838 28.9313 76.1084 28.828 76.4625 28.7985C76.8854 28.7592 77.2985 28.828 77.7018 28.9608C77.7804 28.9854 77.8099 29.0247 77.805 29.1083C77.8001 29.2706 77.805 29.4329 77.805 29.5952C77.805 29.6345 77.8247 29.6837 77.7755 29.7083C77.7263 29.7329 77.687 29.6985 77.6477 29.6739C77.4116 29.5116 77.146 29.4132 76.8657 29.3788C76.6887 29.3542 76.5117 29.369 76.3395 29.428C76.2264 29.4673 76.1281 29.5362 76.1281 29.669C76.1281 29.8067 76.2166 29.8755 76.3395 29.905C76.5412 29.9591 76.7477 30.0034 76.9493 30.0476C77.1411 30.0919 77.3329 30.146 77.51 30.2444C77.987 30.5148 78.0755 31.164 77.687 31.5771C77.4706 31.8082 77.1903 31.9115 76.8854 31.9656C76.8559 31.9705 76.8215 31.9557 76.8067 31.9951H76.1084Z" fill="#004184"/>
<path d="M102.723 31.9951C102.502 31.9164 102.261 31.8918 102.04 31.8082C101.937 31.7689 101.892 31.7197 101.902 31.6066C101.912 31.4492 101.902 31.2918 101.902 31.1345C101.902 31.0902 101.873 31.0361 101.932 31.0115C101.981 30.9919 102.02 31.0263 102.06 31.0558C102.286 31.223 102.541 31.3312 102.817 31.3804C103.033 31.4197 103.255 31.4295 103.471 31.3705C103.599 31.3361 103.712 31.2771 103.722 31.1246C103.732 30.9673 103.614 30.8886 103.486 30.8542C103.284 30.7951 103.077 30.7607 102.876 30.7115C102.684 30.6673 102.492 30.6083 102.32 30.5001C101.828 30.1952 101.779 29.5116 102.222 29.1329C102.482 28.9067 102.797 28.8182 103.132 28.7936C103.535 28.7641 103.923 28.8329 104.307 28.951C104.391 28.9756 104.435 29.0149 104.43 29.1133C104.42 29.2755 104.43 29.4378 104.43 29.6001C104.43 29.6395 104.454 29.6886 104.4 29.7083C104.356 29.7231 104.322 29.6985 104.287 29.6739C104.051 29.5116 103.791 29.4132 103.505 29.3739C103.318 29.3493 103.137 29.3592 102.964 29.4231C102.851 29.4624 102.758 29.5313 102.763 29.6739C102.763 29.8067 102.856 29.8706 102.964 29.9001C103.235 29.9739 103.51 30.0329 103.786 30.1067C103.874 30.1312 103.963 30.1657 104.051 30.2001C104.725 30.4853 104.646 31.2574 104.312 31.582C104.086 31.8033 103.81 31.9115 103.505 31.9656C103.476 31.9656 103.441 31.9557 103.427 31.9951H102.723Z" fill="#004184"/>
<path d="M0.281128 31.8721C0.448332 31.5377 0.551606 31.1787 0.684386 30.8296C0.920439 30.2099 1.14666 29.5903 1.37288 28.9657C1.40238 28.8772 1.44172 28.8428 1.54008 28.8477C1.77122 28.8526 2.00235 28.8526 2.23349 28.8477C2.31217 28.8477 2.35151 28.8674 2.38102 28.9461C2.7351 29.9149 3.0941 30.8837 3.4531 31.8525C3.46293 31.8771 3.46293 31.9016 3.46785 31.941C3.21704 31.941 2.97115 31.941 2.72527 31.941C2.6515 31.941 2.64166 31.8967 2.62199 31.8475C2.57281 31.7049 2.52364 31.5623 2.47938 31.4197C2.45479 31.3459 2.42528 31.3115 2.33676 31.3115C2.02202 31.3164 1.70728 31.3164 1.39255 31.3115C1.3237 31.3115 1.28927 31.3361 1.2696 31.4C1.22534 31.5426 1.17125 31.6853 1.12699 31.8328C1.1024 31.9164 1.06306 31.9459 0.974535 31.9459C0.743399 31.9361 0.512264 31.9459 0.281128 31.9459V31.8721ZM1.86957 29.6493C1.74171 30.023 1.62368 30.3771 1.50074 30.7312H2.2384C2.11546 30.3722 1.99743 30.023 1.86957 29.6493Z" fill="#004184"/>
<path d="M13.0231 31.9951C12.9542 31.9459 12.8756 31.9607 12.7969 31.941C12.2412 31.8033 11.8871 31.459 11.7543 30.9083C11.6412 30.4558 11.6609 30.0034 11.8674 29.5755C12.1084 29.0838 12.5313 28.8477 13.0575 28.7936C13.4755 28.7493 13.8837 28.8084 14.2673 28.9903C14.346 29.0297 14.3755 29.069 14.3706 29.1575C14.3657 29.3346 14.3706 29.5116 14.3706 29.6936C14.3706 29.728 14.3853 29.7722 14.3411 29.7919C14.2968 29.8116 14.2624 29.7919 14.228 29.7624C14.0903 29.6493 13.9476 29.546 13.7804 29.4723C13.1903 29.2165 12.6444 29.5264 12.5461 30.1558C12.5166 30.3525 12.5215 30.5443 12.5657 30.7312C12.6838 31.2476 13.1706 31.5082 13.6968 31.341C13.8935 31.2771 14.0608 31.164 14.2181 31.0312C14.2525 31.0017 14.2919 30.9673 14.346 30.9919C14.3952 31.0164 14.3706 31.0656 14.3706 31.105C14.3706 31.2722 14.3657 31.4394 14.3706 31.6066C14.3755 31.7049 14.3361 31.7443 14.2525 31.7787C14.0214 31.8869 13.7706 31.941 13.5247 31.9951H13.0231Z" fill="#004184"/>
<path d="M61.6354 31.9951C61.5665 31.9459 61.4878 31.9607 61.4091 31.941C60.8584 31.8033 60.4994 31.459 60.3666 30.9083C60.2535 30.4558 60.2731 30.0034 60.4797 29.5755C60.7207 29.0838 61.1436 28.8477 61.6698 28.7985C62.0829 28.7543 62.4861 28.8133 62.8648 28.9903C62.9435 29.0297 62.9878 29.0641 62.9828 29.1624C62.973 29.3346 62.9828 29.5067 62.9828 29.6788C62.9828 29.7181 63.0074 29.7673 62.9533 29.7919C62.9042 29.8116 62.8648 29.7821 62.8255 29.7526C62.7025 29.6493 62.5697 29.5559 62.4222 29.487C61.8173 29.2116 61.2518 29.5165 61.1583 30.1755C61.1288 30.3673 61.1338 30.5542 61.178 30.7361C61.3059 31.2771 61.8419 31.5377 62.3878 31.3213C62.555 31.2574 62.7025 31.1541 62.8353 31.0361C62.8697 31.0066 62.9091 30.9722 62.9632 30.9968C63.0123 31.0214 62.9878 31.0705 62.9878 31.1099C62.9878 31.2771 62.9828 31.4443 62.9878 31.6115C62.9927 31.7099 62.9484 31.7443 62.8697 31.7836C62.6484 31.8869 62.4075 31.9361 62.1714 32H61.6354V31.9951Z" fill="#004184"/>
<path d="M41.4036 31.9951C41.3397 31.9459 41.2659 31.9607 41.1971 31.9459C40.6266 31.8082 40.2725 31.459 40.1348 30.8935C40.0561 30.5738 40.0561 30.2493 40.1299 29.9296C40.2824 29.2706 40.7741 28.8477 41.4626 28.7936C41.8708 28.7592 42.2642 28.8133 42.6429 28.9903C42.7216 29.0297 42.7658 29.0641 42.7609 29.1624C42.7511 29.3346 42.7609 29.5067 42.7609 29.6788C42.7609 29.7181 42.7855 29.7673 42.7314 29.7919C42.6822 29.8116 42.6429 29.7821 42.6035 29.7526C42.4806 29.6493 42.3478 29.5559 42.2003 29.487C41.5954 29.2116 41.0299 29.5165 40.9364 30.1755C40.9069 30.3673 40.9118 30.5542 40.9561 30.7361C41.0741 31.2525 41.561 31.5131 42.0872 31.3459C42.2839 31.282 42.4511 31.1689 42.6085 31.0361C42.6429 31.0066 42.6822 30.9722 42.7363 30.9968C42.7855 31.0214 42.7609 31.0705 42.7609 31.1099C42.7609 31.2771 42.756 31.4443 42.7609 31.6115C42.7658 31.7099 42.7216 31.7443 42.6429 31.7836C42.4216 31.8918 42.1806 31.9361 41.9446 32H41.4085L41.4036 31.9951Z" fill="#004184"/>
<path d="M81.0163 31.9951C80.9622 31.9459 80.8934 31.9557 80.8295 31.941C80.2393 31.7934 79.841 31.3509 79.7574 30.746C79.718 30.446 79.718 30.1509 79.8016 29.8608C79.9688 29.2411 80.4459 28.8526 81.1098 28.7936C81.5229 28.7592 81.9261 28.8133 82.3048 28.9903C82.3835 29.0297 82.413 29.0641 82.4081 29.1526C82.3982 29.3198 82.4081 29.487 82.4081 29.6542C82.4081 29.6985 82.4327 29.7575 82.3884 29.7821C82.3294 29.8165 82.2802 29.7624 82.2359 29.728C82.1278 29.6444 82.0196 29.5657 81.8966 29.5018C81.2376 29.1723 80.6082 29.5362 80.5787 30.2739C80.5737 30.4017 80.5688 30.5394 80.5934 30.6673C80.6967 31.2328 81.1885 31.5131 81.7392 31.341C81.9409 31.2771 82.1032 31.164 82.2605 31.0312C82.295 31.0017 82.3343 30.9623 82.3835 30.9919C82.4277 31.0164 82.4032 31.0656 82.4032 31.105C82.4032 31.223 82.4032 31.3459 82.4032 31.464C82.4032 31.7344 82.4032 31.7295 82.1474 31.8377C81.9753 31.9115 81.7884 31.9312 81.6114 31.9902H81.0114L81.0163 31.9951Z" fill="#004184"/>
<path d="M110.405 0C109.987 2.26218 109.569 4.49485 109.156 6.73244C108.753 8.91102 108.349 11.0945 107.946 13.2731C107.553 15.3976 107.159 17.5221 106.766 19.6416C106.466 21.2497 106.171 22.8578 105.876 24.4709C105.851 24.6086 105.802 24.643 105.669 24.643C70.9447 24.643 36.2203 24.643 1.49582 24.643C1.31386 24.643 1.30894 24.643 1.34829 24.461C2.04661 21.1366 2.74985 17.8122 3.44818 14.4878C4.12191 11.2814 4.79565 8.07008 5.4743 4.86369C5.80871 3.28508 6.14312 1.70155 6.47261 0.122945C6.49228 0.0344245 6.51687 -0.00983556 6.61031 0.00491778C6.64474 0.00983556 6.68408 0.00491778 6.7185 0.00491778C41.2069 0.00491778 75.6953 0.00491778 110.184 0.00491778H110.4L110.405 0ZM43.951 20.3154C44.0002 20.3154 44.0199 20.3203 44.0395 20.3203C45.51 20.3203 46.9755 20.3203 48.4459 20.3203C48.5442 20.3203 48.5934 20.2809 48.6377 20.1973C49.2573 19.1105 49.8819 18.0286 50.4966 16.9418C50.5556 16.8434 50.6146 16.809 50.7277 16.809C52.7096 16.809 54.6915 16.809 56.6733 16.809C56.8897 16.809 56.8897 16.809 56.9143 17.0204C57.0323 18.0827 57.1503 19.14 57.2635 20.2022C57.2733 20.2908 57.3077 20.3154 57.3913 20.3154C58.8027 20.3154 60.2141 20.3154 61.6206 20.3154C61.714 20.3154 61.7386 20.2858 61.7239 20.1973C61.6895 19.9711 61.6599 19.74 61.6255 19.5138C61.355 17.5909 61.0846 15.668 60.819 13.7501C60.5731 11.9797 60.3321 10.2044 60.0813 8.43399C59.8453 6.73244 59.6043 5.03581 59.3732 3.33426C59.3535 3.20148 59.3191 3.16705 59.1863 3.16705C57.5979 3.17197 56.0094 3.17197 54.421 3.16705C54.2833 3.16705 54.2095 3.20148 54.1357 3.32442C50.9736 8.60612 47.8016 13.8829 44.6346 19.1597C44.4084 19.5334 44.1822 19.9121 43.9461 20.3104L43.951 20.3154ZM36.1858 3.17689C34.9662 3.17689 33.7417 3.17689 32.5221 3.17689C32.4139 3.17689 32.3696 3.20148 32.3451 3.30967C31.9713 4.95712 31.5877 6.59966 31.2091 8.2422C30.2943 12.2108 29.3747 16.1746 28.4551 20.1432C28.4158 20.3252 28.4108 20.3252 28.5928 20.3252C29.9501 20.3252 31.3074 20.3252 32.6647 20.3252C32.827 20.3252 32.8713 20.2711 32.9057 20.1285C33.304 18.3827 33.7122 16.6369 34.1105 14.8861C34.14 14.7632 34.1843 14.7337 34.3073 14.7337C35.4334 14.7337 36.5596 14.7583 37.6858 14.6452C38.8955 14.5271 40.0758 14.2862 41.202 13.819C42.3527 13.3419 43.3609 12.6633 44.1625 11.6994C45.1608 10.4945 45.5395 9.09298 45.4657 7.54879C45.4214 6.68326 45.2149 5.87675 44.6936 5.16859C44.074 4.32765 43.2084 3.86538 42.2298 3.58014C41.1135 3.25557 39.9627 3.1818 38.807 3.17197C37.9317 3.16213 37.0563 3.17197 36.1809 3.17197L36.1858 3.17689ZM72.3119 20.6498C73.2659 20.6891 74.3822 20.4924 75.4887 20.1777C76.3149 19.9416 77.0969 19.5777 77.8886 19.2629C78.0263 19.2089 78.0902 19.1351 78.1247 18.9925C78.2673 18.3679 78.4247 17.7434 78.5771 17.1188C78.7345 16.4844 78.8869 15.85 79.0394 15.2156C79.0492 15.1714 79.1033 15.0927 79.0197 15.0927C78.8378 15.0927 78.6558 15.0386 78.4788 15.1763C77.9378 15.614 77.3477 15.9877 76.7379 16.327C75.3068 17.1385 73.7823 17.5024 72.1348 17.286C70.6988 17.0991 69.7546 16.2188 69.494 14.8025C69.2432 13.4206 69.3563 12.0486 69.7399 10.7011C70.0989 9.43722 70.7382 8.3258 71.7414 7.46027C73.438 5.99477 75.3756 5.81773 77.4263 6.53081C78.3361 6.84555 79.0689 7.47011 79.7279 8.16352C79.9197 8.36515 80.1115 8.45366 80.3819 8.42908C80.4655 8.41924 80.5098 8.40449 80.5295 8.31597C80.8442 6.998 81.1639 5.68495 81.4884 4.37191C81.5081 4.28339 81.4884 4.24896 81.4147 4.21454C81.2032 4.11126 80.9967 3.99324 80.7852 3.89488C79.5853 3.34409 78.3165 3.04411 77.0034 2.91624C75.7248 2.78838 74.4511 2.79822 73.1872 3.07361C70.03 3.7621 67.64 5.48333 66.081 8.33072C65.3729 9.62901 64.9549 11.0158 64.7975 12.4813C64.6844 13.5583 64.6549 14.6353 64.8614 15.7025C65.2844 17.9056 66.5581 19.3859 68.6678 20.1432C69.7792 20.5416 70.93 20.6547 72.302 20.6448L72.3119 20.6498Z" fill="#004184"/>
<path d="M20.9702 29.9542C20.8129 30.328 20.6457 30.6968 20.4932 31.0705C20.4489 31.1787 20.3949 31.2181 20.2768 31.2132C19.8736 31.2033 19.8736 31.2132 19.7211 30.8492C19.5933 30.5493 19.4654 30.2493 19.3129 29.9542C19.3129 30.2591 19.3129 30.5689 19.3129 30.8738C19.3129 31.1886 19.3129 31.5033 19.3129 31.818C19.3129 31.9016 19.2982 31.941 19.2048 31.9361C19.0228 31.9262 18.8359 31.9311 18.654 31.9361C18.5654 31.9361 18.5507 31.9066 18.5507 31.8279C18.5507 30.8689 18.5507 29.9099 18.5507 28.951C18.5507 28.8575 18.5802 28.8379 18.6687 28.8428C18.9048 28.8477 19.1408 28.8477 19.3769 28.8428C19.4703 28.8428 19.5047 28.8772 19.5392 28.9559C19.7457 29.4231 19.9572 29.8903 20.1785 30.382C20.2522 30.2198 20.3162 30.087 20.3752 29.9493C20.5227 29.6198 20.6702 29.2952 20.8129 28.9608C20.8473 28.8772 20.8915 28.8428 20.985 28.8428C21.2161 28.8526 21.4473 28.8477 21.6784 28.8428C21.7718 28.8428 21.8063 28.8625 21.8063 28.9608C21.8063 29.9149 21.8063 30.8689 21.8063 31.818C21.8063 31.9066 21.7817 31.9361 21.6931 31.9311C21.5161 31.9262 21.3341 31.9213 21.1571 31.9311C21.0391 31.9361 20.9997 31.9066 20.9997 31.7787C21.0047 31.1738 20.9997 30.564 20.9997 29.9591C20.9899 29.9591 20.9801 29.9542 20.9702 29.9493V29.9542Z" fill="#004184"/>
<path d="M56.5602 29.9542C56.4078 30.3083 56.2455 30.6525 56.1127 31.0115C56.0537 31.1689 55.975 31.2082 55.8078 31.2181C55.5373 31.2427 55.4094 31.1492 55.3258 30.8935C55.2177 30.5689 55.0603 30.264 54.9029 29.9493V30.1903C54.9029 30.7312 54.9029 31.2673 54.9029 31.8082C54.9029 31.9016 54.8882 31.941 54.7849 31.9361C54.6078 31.9262 54.4308 31.9312 54.2489 31.9361C54.1702 31.9361 54.1407 31.9262 54.1407 31.8377C54.1407 30.8738 54.1407 29.9099 54.1407 28.951C54.1407 28.8674 54.1652 28.8477 54.2489 28.8477C54.4849 28.8477 54.721 28.8526 54.957 28.8477C55.0505 28.8477 55.0947 28.8821 55.1291 28.9657C55.3111 29.3887 55.5029 29.8067 55.6898 30.2247C55.7094 30.2739 55.734 30.3181 55.7684 30.387C55.9455 29.9886 56.1422 29.6198 56.275 29.2313C56.3832 28.9215 56.5455 28.7887 56.875 28.8477C56.9979 28.8723 57.1258 28.8575 57.2536 28.8477C57.3667 28.8379 57.3913 28.8772 57.3913 28.9854C57.3864 29.6985 57.3913 30.4066 57.3913 31.1197C57.3913 31.3558 57.3913 31.5918 57.3913 31.8279C57.3913 31.9164 57.3667 31.9459 57.2782 31.941C57.0962 31.9361 56.9094 31.9312 56.7274 31.941C56.6192 31.9459 56.5848 31.9164 56.5897 31.8033C56.5946 31.1886 56.5897 30.5788 56.5897 29.964C56.5799 29.964 56.57 29.9591 56.5602 29.9542Z" fill="#004184"/>
<path d="M10.3478 30.5493C10.3478 30.0378 10.3478 29.5264 10.3478 29.0149C10.3478 28.8821 10.3675 28.828 10.515 28.8428C10.6675 28.8575 10.8199 28.8526 10.9724 28.8428C11.0757 28.8379 11.0904 28.8723 11.0904 28.9657C11.0904 29.9149 11.0904 30.8591 11.0904 31.8082C11.0904 31.9164 11.056 31.9361 10.9576 31.9361C10.7462 31.9262 10.5101 31.9951 10.338 31.9115C10.1659 31.8279 10.1019 31.582 9.98883 31.4049C9.67409 30.8984 9.35935 30.3919 9.03969 29.8755C8.99052 29.9296 9.01019 29.9788 9.01019 30.028C9.01019 30.6132 9.00527 31.1984 9.01019 31.7885C9.01019 31.9164 8.97085 31.9459 8.85282 31.941C8.69053 31.9311 8.52825 31.9361 8.36596 31.941C8.29219 31.941 8.2676 31.9164 8.2676 31.8426C8.2676 30.8787 8.2676 29.9149 8.2676 28.951C8.2676 28.8674 8.29711 28.8477 8.37579 28.8477C8.61185 28.8477 8.8479 28.8526 9.08395 28.8477C9.19215 28.8477 9.25116 28.8772 9.31017 28.9657C9.64458 29.4968 9.98391 30.028 10.3183 30.5542C10.3282 30.5542 10.338 30.5542 10.3478 30.5542V30.5493Z" fill="#004184"/>
<path d="M27.5551 30.5542C27.5551 30.0378 27.5551 29.5214 27.5551 29.0051C27.5551 28.8772 27.5797 28.828 27.7174 28.8428C27.86 28.8575 28.0027 28.8526 28.1404 28.8428C28.2584 28.833 28.2977 28.8674 28.2977 28.9952C28.2928 29.6739 28.2977 30.3575 28.2977 31.0361C28.2977 31.2968 28.2977 31.5574 28.2977 31.823C28.2977 31.9115 28.2781 31.941 28.1846 31.941C28.0076 31.9361 27.8256 31.9312 27.6486 31.941C27.5502 31.941 27.501 31.9066 27.4519 31.8279C27.0732 31.2082 26.6896 30.5935 26.306 29.9739C26.2864 29.9395 26.2618 29.905 26.2175 29.8411C26.2175 30.1706 26.2175 30.4657 26.2175 30.7607C26.2175 31.1148 26.2175 31.4738 26.2175 31.8279C26.2175 31.9164 26.1929 31.9459 26.1044 31.941C25.9421 31.9361 25.7798 31.9312 25.6175 31.941C25.5093 31.9459 25.4798 31.9164 25.4798 31.8033C25.4848 30.9869 25.4798 30.1706 25.4798 29.3542C25.4798 29.2165 25.4798 29.0838 25.4798 28.9461C25.4798 28.8723 25.4995 28.8477 25.5733 28.8477C25.829 28.8477 26.0847 28.8526 26.3454 28.8477C26.4388 28.8477 26.4732 28.9018 26.5126 28.9608C26.8519 29.4968 27.1912 30.028 27.5306 30.564H27.5601L27.5551 30.5542Z" fill="#004184"/>
<path d="M47.6738 29.8411C47.6738 30.5148 47.6738 31.1541 47.6738 31.7935C47.6738 31.9115 47.6443 31.9459 47.5262 31.941C47.364 31.9311 47.2017 31.9361 47.0394 31.941C46.9558 31.941 46.9361 31.9164 46.9361 31.8377C46.9361 30.8787 46.9361 29.9198 46.9361 28.9657C46.9361 28.8772 46.9607 28.8477 47.0492 28.8526C47.2951 28.8575 47.541 28.8575 47.7869 28.8526C47.8754 28.8526 47.9147 28.887 47.959 28.9559C48.2983 29.4968 48.6426 30.0329 48.9868 30.5738C49.036 30.5443 49.0114 30.4952 49.0114 30.4607C49.0114 29.969 49.0114 29.4772 49.0114 28.9854C49.0114 28.8821 49.036 28.8477 49.1393 28.8575C49.2966 28.8674 49.454 28.8674 49.6114 28.8575C49.7196 28.8526 49.7491 28.8821 49.7491 28.9952C49.7442 29.7821 49.7491 30.564 49.7491 31.3509C49.7491 31.5131 49.7491 31.6754 49.7491 31.8377C49.7491 31.9262 49.7294 31.9557 49.636 31.9508C49.4589 31.9459 49.277 31.941 49.0999 31.9508C49.0016 31.9508 48.9524 31.9164 48.9032 31.8377C48.5196 31.2132 48.136 30.5935 47.7475 29.969C47.7279 29.9394 47.7082 29.9099 47.6689 29.8509L47.6738 29.8411Z" fill="#004184"/>
<path d="M89.5782 31.9361C89.2438 31.9361 88.9487 31.9361 88.6487 31.9361C88.575 31.9361 88.5553 31.8771 88.5209 31.8328C88.2897 31.5279 88.0635 31.2181 87.8373 30.9132C87.7684 30.8197 87.5373 30.7607 87.434 30.805C87.3799 30.8296 87.3996 30.8738 87.3996 30.9132C87.3996 31.2082 87.3898 31.4984 87.3996 31.7935C87.3996 31.9164 87.3652 31.9459 87.2472 31.9361C87.0701 31.9262 86.8882 31.9311 86.7111 31.9361C86.6177 31.9361 86.5833 31.9164 86.5833 31.8131C86.5833 30.8591 86.5833 29.905 86.5833 28.951C86.5833 28.892 86.5833 28.8379 86.6669 28.8379C87.2373 28.8526 87.8127 28.7985 88.3783 28.8723C88.7717 28.9215 89.0569 29.1674 89.1258 29.4772C89.2143 29.8903 89.0717 30.2591 88.7323 30.4902C88.611 30.5755 88.5963 30.6771 88.6881 30.7951C88.9733 31.164 89.2585 31.5279 89.5733 31.9311L89.5782 31.9361ZM87.4094 29.8263C87.4094 29.8263 87.4045 29.8263 87.3996 29.8263C87.3996 29.9345 87.3996 30.0476 87.3996 30.1558C87.3996 30.2001 87.3996 30.2444 87.4586 30.2394C87.6553 30.2345 87.857 30.2591 88.0488 30.2001C88.2406 30.1411 88.334 29.9837 88.3192 29.7575C88.3094 29.5755 88.2209 29.4821 88.0143 29.4428C87.9504 29.428 87.8816 29.4231 87.8127 29.4231C87.6799 29.4231 87.498 29.3641 87.4242 29.4477C87.3603 29.5214 87.4094 29.6936 87.4094 29.8263Z" fill="#004184"/>
<path d="M29.0747 30.3771C29.0747 29.9149 29.0797 29.4575 29.0747 28.9952C29.0747 28.8674 29.1141 28.8379 29.2321 28.8428C29.7239 28.8625 30.2157 28.8133 30.7074 28.8821C31.5238 28.9952 32.0205 29.5952 32.0008 30.4558C31.9861 31.223 31.4205 31.823 30.6484 31.9066C30.1566 31.9607 29.6649 31.9213 29.1731 31.9361C29.06 31.9361 29.0797 31.8721 29.0797 31.8033C29.0797 31.3263 29.0797 30.8492 29.0797 30.3771H29.0747ZM30.1911 31.3459C30.2599 31.3459 30.3288 31.3459 30.3927 31.3361C30.7468 31.3115 31.0271 31.0902 31.1205 30.746C31.1894 30.505 31.1845 30.264 31.1156 30.0181C31.032 29.7378 30.8501 29.5657 30.5747 29.4772C30.3927 29.4182 30.2009 29.428 30.014 29.4182C29.9009 29.4132 29.8763 29.4526 29.8763 29.5559C29.8813 30.0526 29.8763 30.5493 29.8763 31.0459C29.8763 31.2459 29.978 31.3427 30.1812 31.3361L30.1911 31.3459Z" fill="#004184"/>
<path d="M68.3088 30.382C68.3088 29.9099 68.3088 29.4428 68.3088 28.9706C68.3088 28.9116 68.2891 28.8428 68.3924 28.8428C68.9088 28.8575 69.43 28.8084 69.9464 28.8821C70.7578 28.9952 71.2496 29.6001 71.2349 30.4656C71.2201 31.223 70.6497 31.823 69.8874 31.9066C69.3956 31.9607 68.9038 31.9213 68.4121 31.9361C68.3039 31.9361 68.3088 31.882 68.3088 31.8082C68.3088 31.3312 68.3088 30.8542 68.3088 30.382ZM69.1202 30.3771C69.1202 30.5394 69.1202 30.7017 69.1202 30.864C69.1202 31.0214 69.0514 31.2279 69.1448 31.3164C69.253 31.4197 69.4645 31.3459 69.6268 31.3361C69.9857 31.3164 70.2661 31.0853 70.3595 30.7361C70.4234 30.5001 70.4185 30.264 70.3497 30.023C70.2661 29.7378 70.0792 29.5608 69.7989 29.4772C69.6169 29.4231 69.4251 29.4329 69.2382 29.4231C69.1399 29.4231 69.1104 29.4477 69.1153 29.546C69.1202 29.8214 69.1153 30.1017 69.1153 30.3771H69.1202Z" fill="#004184"/>
<path d="M92.8977 31.9361C92.5731 31.9361 92.2781 31.9361 91.983 31.9361C91.9141 31.9361 91.8945 31.8918 91.865 31.8525C91.6289 31.5377 91.3978 31.223 91.1617 30.9083C91.0978 30.8246 90.847 30.7607 90.7535 30.8099C90.6994 30.8345 90.724 30.8837 90.724 30.9181C90.724 31.2181 90.724 31.5131 90.724 31.8131C90.724 31.9066 90.7044 31.941 90.6011 31.9361C90.4093 31.9262 90.2126 31.9312 90.0208 31.9361C89.947 31.9361 89.9224 31.9164 89.9224 31.8426C89.9224 30.8738 89.9224 29.905 89.9224 28.9362C89.9224 28.8821 89.9224 28.8428 89.9962 28.8477C90.5617 28.8625 91.1322 28.8084 91.6928 28.8772C92.1207 28.9264 92.401 29.1723 92.4698 29.5018C92.5584 29.9198 92.401 30.2984 92.0272 30.5247C91.8994 30.6034 91.8945 30.6427 91.9879 30.7558C92.2682 31.0951 92.5289 31.4492 92.7993 31.7935C92.8288 31.8328 92.8583 31.8721 92.9026 31.9361H92.8977ZM90.7142 29.7968C90.7142 29.9296 90.7142 30.0378 90.7142 30.1509C90.7142 30.1903 90.7093 30.2394 90.7732 30.2394C90.9798 30.2394 91.1912 30.264 91.3929 30.1952C91.5699 30.1312 91.6633 29.964 91.6486 29.7575C91.6338 29.5805 91.5404 29.4821 91.3338 29.4428C91.265 29.428 91.1863 29.4231 91.1175 29.4231C90.9896 29.4231 90.8224 29.3641 90.7388 29.4477C90.6601 29.5264 90.724 29.6936 90.7142 29.8018V29.7968Z" fill="#004184"/>
<path d="M66.4007 31.9361C66.1597 31.9361 65.9237 31.9361 65.6827 31.9361C65.6139 31.9361 65.5794 31.9164 65.5598 31.8475C65.5155 31.7 65.4565 31.5525 65.4122 31.4049C65.3876 31.3312 65.3532 31.3115 65.2794 31.3115C64.9696 31.3115 64.6598 31.3115 64.35 31.3115C64.2713 31.3115 64.227 31.3312 64.2074 31.4148C64.168 31.5623 64.109 31.7 64.0647 31.8426C64.0451 31.9016 64.0254 31.941 63.9467 31.941C63.7353 31.9361 63.5287 31.941 63.3172 31.941C63.2238 31.941 63.2287 31.9066 63.2533 31.8377C63.6123 30.8689 63.9713 29.9001 64.3254 28.9313C64.35 28.8625 64.3844 28.8477 64.4533 28.8477C64.6991 28.8477 64.945 28.8477 65.1909 28.8477C65.2499 28.8477 65.2893 28.8575 65.3089 28.9215C65.6729 29.9198 66.0417 30.9181 66.4056 31.9164C66.4056 31.9164 66.4056 31.9262 66.4056 31.941L66.4007 31.9361ZM65.1762 30.7312C65.0532 30.3722 64.9352 30.028 64.8024 29.6493C64.6696 30.0329 64.5516 30.382 64.4336 30.7312H65.1762Z" fill="#004184"/>
<path d="M35.4482 31.9361C35.1974 31.9361 34.9515 31.9361 34.7056 31.9361C34.6367 31.9361 34.6171 31.9066 34.5974 31.8475C34.5482 31.7 34.4941 31.5525 34.445 31.4049C34.4253 31.3312 34.3859 31.3066 34.3122 31.3115C34.0023 31.3115 33.6925 31.3115 33.3876 31.3115C33.3089 31.3115 33.2647 31.3263 33.2401 31.4099C33.2007 31.5525 33.1417 31.6853 33.1024 31.823C33.0778 31.9066 33.0434 31.941 32.9499 31.9361C32.7237 31.9262 32.5024 31.9361 32.2565 31.9361C32.3401 31.7 32.4188 31.4787 32.5024 31.2623C32.7827 30.505 33.068 29.7477 33.3434 28.9854C33.3827 28.8723 33.4368 28.8379 33.5548 28.8428C33.7761 28.8526 33.9925 28.8477 34.2138 28.8428C34.2827 28.8428 34.3269 28.8526 34.3564 28.9264C34.7154 29.9099 35.0793 30.8935 35.4433 31.8771C35.4482 31.8918 35.4433 31.9066 35.4531 31.9311L35.4482 31.9361ZM33.4811 30.7263H34.2187C34.0958 30.3722 33.9778 30.028 33.8499 29.6493C33.7171 30.0329 33.5991 30.382 33.4811 30.7263Z" fill="#004184"/>
<path d="M37.3464 30.387C37.3464 29.9198 37.3464 29.4526 37.3464 28.9903C37.3464 28.887 37.3612 28.8428 37.4792 28.8477C38.1382 28.8526 38.8021 28.8526 39.4611 28.8477C39.5644 28.8477 39.5988 28.8723 39.589 28.9756C39.5742 29.128 39.6529 29.3296 39.5545 29.428C39.466 29.5165 39.2644 29.4526 39.1168 29.4526C38.8316 29.4526 38.5513 29.4526 38.2661 29.4526C38.1825 29.4526 38.1431 29.4723 38.148 29.5657C38.1579 29.6641 38.1579 29.7673 38.148 29.8657C38.1382 29.969 38.1874 29.9837 38.2759 29.9837C38.6398 29.9837 38.9988 29.9837 39.3627 29.9837C39.4562 29.9837 39.4955 30.0034 39.4857 30.1017C39.4758 30.2591 39.5349 30.4607 39.4562 30.5591C39.3726 30.6574 39.1611 30.5886 39.0087 30.5886C38.7628 30.5935 38.5169 30.5935 38.271 30.5886C38.1726 30.5886 38.148 30.6181 38.148 30.7115C38.1579 30.8787 38.1579 31.0459 38.148 31.2132C38.148 31.3115 38.1677 31.3459 38.2759 31.3459C38.6644 31.341 39.0529 31.3459 39.4414 31.341C39.5496 31.341 39.6037 31.3558 39.589 31.4836C39.5742 31.6017 39.5791 31.7246 39.589 31.8426C39.589 31.9262 39.5594 31.9459 39.4808 31.9459C38.8119 31.9459 38.1382 31.9459 37.4694 31.9459C37.3563 31.9459 37.3464 31.9016 37.3464 31.8082C37.3464 31.3361 37.3464 30.864 37.3464 30.3968V30.387Z" fill="#004184"/>
<path d="M5.37595 30.387C5.37595 29.9149 5.37595 29.4428 5.37595 28.9706C5.37595 28.8674 5.40546 28.8428 5.50873 28.8428C6.16771 28.8428 6.83161 28.8428 7.49059 28.8428C7.58895 28.8428 7.63321 28.8625 7.62338 28.9706C7.61354 29.0887 7.61354 29.2116 7.62338 29.3296C7.63321 29.4329 7.58895 29.4526 7.50043 29.4477C7.10701 29.4477 6.71359 29.4477 6.32016 29.4477C6.21689 29.4477 6.17263 29.4624 6.17755 29.5805C6.17755 29.9739 6.17755 29.9739 6.57589 29.9739C6.84637 29.9739 7.12176 29.9788 7.39224 29.9739C7.50043 29.9739 7.52994 30.0083 7.5201 30.1067C7.50535 30.2591 7.57911 30.4509 7.49059 30.5493C7.39716 30.6476 7.20536 30.5788 7.05291 30.5788C6.80702 30.5837 6.56113 30.5886 6.31525 30.5788C6.1923 30.5738 6.16771 30.6181 6.17263 30.7263C6.18247 30.8886 6.18247 31.0509 6.17263 31.2132C6.16771 31.3115 6.19722 31.3361 6.29557 31.3361C6.69391 31.3312 7.09225 31.3361 7.49059 31.3361C7.58895 31.3361 7.63321 31.3558 7.62338 31.464C7.61354 31.5771 7.61354 31.6951 7.62338 31.8082C7.63321 31.9262 7.58403 31.941 7.48076 31.941C6.82669 31.941 6.16771 31.9361 5.51365 31.941C5.40054 31.941 5.37595 31.9115 5.37595 31.8033C5.38087 31.3312 5.37595 30.8591 5.37595 30.387Z" fill="#004184"/>
<path d="M93.2469 30.3771C93.2469 29.9149 93.2469 29.4575 93.2469 28.9952C93.2469 28.887 93.2616 28.8428 93.3895 28.8428C94.0435 28.8526 94.7025 28.8477 95.3566 28.8428C95.4697 28.8428 95.5041 28.8723 95.4943 28.9854C95.4844 29.0985 95.4844 29.2165 95.4943 29.3296C95.4992 29.428 95.4648 29.4526 95.3713 29.4526C94.973 29.4477 94.5747 29.4526 94.1763 29.4526C94.073 29.4526 94.0386 29.4821 94.0485 29.5854C94.0632 29.7132 93.9894 29.8854 94.078 29.9591C94.1517 30.0231 94.3189 29.9788 94.4419 29.9837C94.7074 29.9837 94.9779 29.9886 95.2435 29.9837C95.3517 29.9837 95.3959 30.0034 95.3861 30.1214C95.3713 30.2739 95.4451 30.4657 95.3566 30.564C95.2681 30.6624 95.0664 30.5886 94.9189 30.5935C94.6681 30.5984 94.4173 30.5984 94.1616 30.5935C94.0632 30.5935 94.0386 30.623 94.0435 30.7165C94.0534 30.8787 94.0534 31.041 94.0435 31.2033C94.0386 31.3164 94.0632 31.3558 94.1862 31.3509C94.5747 31.341 94.9632 31.3509 95.3517 31.3459C95.4549 31.3459 95.5041 31.3656 95.4943 31.4787C95.4844 31.5967 95.4894 31.7197 95.4943 31.8377C95.4943 31.9164 95.4795 31.9459 95.391 31.9459C94.7074 31.9459 94.0288 31.9459 93.3452 31.9459C93.2469 31.9459 93.2518 31.8967 93.2518 31.8279C93.2518 31.3459 93.2518 30.864 93.2518 30.382L93.2469 30.3771Z" fill="#004184"/>
<path d="M22.5783 30.3771C22.5783 29.9099 22.5783 29.4428 22.5783 28.9805C22.5783 28.8674 22.6079 28.8428 22.716 28.8428C23.3701 28.8477 24.0291 28.8477 24.6832 28.8428C24.7913 28.8428 24.8356 28.8674 24.8258 28.9805C24.8159 29.0887 24.8159 29.2018 24.8258 29.31C24.8356 29.4182 24.8012 29.4526 24.6881 29.4526C24.2947 29.4477 23.9012 29.4526 23.5078 29.4477C23.4045 29.4477 23.375 29.4723 23.375 29.5755C23.375 29.9739 23.375 29.9739 23.7684 29.9739C24.0389 29.9739 24.3143 29.9739 24.5848 29.9739C24.6733 29.9739 24.7225 29.9837 24.7127 30.0919C24.7028 30.2493 24.7618 30.4509 24.6832 30.5493C24.5996 30.6525 24.3881 30.5788 24.2307 30.5788C23.9799 30.5837 23.7291 30.5788 23.4734 30.5788C23.3898 30.5788 23.3652 30.6033 23.3701 30.682C23.375 30.864 23.375 31.0509 23.3701 31.2328C23.3701 31.3213 23.4045 31.3361 23.4783 31.3361C23.8766 31.3361 24.275 31.3361 24.6733 31.3361C24.7766 31.3361 24.8307 31.3509 24.8159 31.4689C24.8012 31.6164 24.875 31.8131 24.7864 31.9066C24.6979 32.0049 24.5012 31.9361 24.3487 31.9361C23.798 31.9361 23.2472 31.9361 22.6964 31.9361C22.5931 31.9361 22.5636 31.9066 22.5685 31.8082C22.5734 31.3312 22.5685 30.8542 22.5685 30.3771H22.5783Z" fill="#004184"/>
<path d="M58.9306 31.9361C58.665 31.9361 58.3945 31.9361 58.129 31.9361C58.0454 31.9361 58.0159 31.9115 58.0208 31.8279C58.0257 31.7148 58.0257 31.5967 58.0208 31.4836C58.0208 31.4 58.0503 31.3656 58.129 31.3754C58.1437 31.3754 58.1585 31.3754 58.1782 31.3754C58.4109 31.3754 58.5273 31.2541 58.5273 31.0115C58.5273 30.5148 58.5273 30.0181 58.5273 29.5214C58.5273 29.4182 58.5027 29.3837 58.3945 29.3887C58.2765 29.3936 58.1142 29.428 58.0454 29.369C57.9618 29.2952 58.0355 29.1329 58.0159 29.01C57.9962 28.8674 58.0552 28.8379 58.188 28.8428C58.6847 28.8526 59.1814 28.8477 59.683 28.8428C59.7961 28.8428 59.86 28.8575 59.8404 28.9903C59.8207 29.1182 59.8945 29.2854 59.8109 29.369C59.7371 29.4477 59.5748 29.3936 59.4469 29.3887C59.3633 29.3887 59.3289 29.4034 59.3289 29.4968C59.3289 30.087 59.3289 30.682 59.3289 31.2722C59.3289 31.3607 59.3584 31.3853 59.4371 31.3754C59.4469 31.3754 59.4568 31.3754 59.4666 31.3754C59.5846 31.3853 59.7764 31.3213 59.8059 31.4C59.865 31.5377 59.8305 31.7197 59.8305 31.8771C59.8305 31.9508 59.7617 31.9262 59.7223 31.9262C59.4568 31.9262 59.1863 31.9262 58.9207 31.9262L58.9306 31.9361Z" fill="#004184"/>
<path d="M96.9155 31.9361C96.6598 31.9361 96.4041 31.9361 96.1434 31.9361C96.0402 31.9361 95.9861 31.9164 96.0008 31.8033C96.0156 31.6705 95.9467 31.4984 96.0303 31.4099C96.109 31.3213 96.2762 31.3853 96.409 31.3804C96.4926 31.3804 96.5172 31.3509 96.5123 31.2722C96.5123 30.682 96.5123 30.087 96.5123 29.4968C96.5123 29.4083 96.4778 29.3837 96.3992 29.3936C96.3942 29.3936 96.3893 29.3936 96.3844 29.3936C96.2615 29.3837 96.0647 29.4477 96.0254 29.369C95.9615 29.2411 96.0057 29.0641 96.0008 28.9067C96.0008 28.8428 96.0402 28.8428 96.0844 28.8428C96.6352 28.8428 97.186 28.8428 97.7368 28.8428C97.8007 28.8428 97.8204 28.8674 97.8155 28.9264C97.8155 28.9411 97.8155 28.9559 97.8155 28.9756C97.8155 29.1083 97.8548 29.2805 97.7909 29.369C97.727 29.4526 97.545 29.3936 97.4171 29.3936C97.3385 29.3936 97.3089 29.4132 97.3089 29.4968C97.3089 30.087 97.3089 30.682 97.3089 31.2722C97.3089 31.3509 97.3237 31.3804 97.4122 31.3804C97.5401 31.3804 97.7171 31.3213 97.7909 31.4C97.8745 31.4935 97.8056 31.6705 97.8204 31.8082C97.8351 31.9213 97.7811 31.9361 97.6876 31.9311C97.4319 31.9262 97.1762 31.9311 96.9155 31.9311V31.9361Z" fill="#004184"/>
<path d="M52.8866 28.5084C52.6948 28.5084 52.5473 28.5084 52.3949 28.5084C52.3309 28.5084 52.3014 28.4739 52.267 28.4346C52.1785 28.3313 52.09 28.2281 52.0063 28.1199C51.9621 28.0658 51.9277 28.0559 51.8883 28.1199C51.8785 28.1346 51.8687 28.1445 51.8588 28.1543C51.6769 28.469 51.4113 28.5871 51.0523 28.4838C51.0671 28.41 51.1408 28.3559 51.1949 28.292C51.2834 28.1789 51.3965 28.0854 51.4556 27.9625C51.6129 27.6478 51.8883 27.6773 52.1637 27.6871C52.208 27.6871 52.2326 27.7068 52.2522 27.7363C52.4539 27.9822 52.6555 28.2281 52.8817 28.5084H52.8866Z" fill="#004184"/>
<path d="M43.951 20.3154C44.1871 19.917 44.4133 19.5433 44.6395 19.1646C47.8066 13.8878 50.9736 8.60612 54.1407 3.32934C54.2144 3.20639 54.2882 3.17197 54.4259 3.17197C56.0143 3.17197 57.6028 3.17689 59.1912 3.17197C59.3289 3.17197 59.3584 3.20639 59.3781 3.33917C59.6092 5.04073 59.8502 6.73736 60.0863 8.43891C60.3321 10.2093 60.5731 11.9846 60.8239 13.755C61.0895 15.6779 61.36 17.6007 61.6304 19.5187C61.66 19.7449 61.6895 19.976 61.7288 20.2022C61.7435 20.2908 61.719 20.3203 61.6255 20.3203C60.2141 20.3203 58.8027 20.3203 57.3962 20.3203C57.3126 20.3203 57.2782 20.3006 57.2684 20.2072C57.1553 19.1449 57.0372 18.0876 56.9192 17.0254C56.8946 16.8139 56.8995 16.8139 56.6782 16.8139C54.6964 16.8139 52.7145 16.8139 50.7326 16.8139C50.6195 16.8139 50.5605 16.8483 50.5015 16.9467C49.8868 18.0335 49.2622 19.1154 48.6426 20.2022C48.5983 20.2809 48.5491 20.3252 48.4508 20.3252C46.9804 20.3252 45.5149 20.3252 44.0445 20.3252C44.0248 20.3252 44.0051 20.3252 43.9559 20.3203L43.951 20.3154ZM55.8619 7.58814C54.6718 9.65852 53.5063 11.6896 52.3358 13.7304C52.3801 13.7354 52.3998 13.7403 52.4194 13.7403C53.7571 13.7403 55.0947 13.7403 56.4323 13.7403C56.5356 13.7403 56.5553 13.7059 56.5455 13.6124C56.4864 13.101 56.4323 12.5944 56.3733 12.083C56.2602 11.0945 56.152 10.106 56.0389 9.11757C55.9848 8.62087 55.9258 8.12417 55.8668 7.5783L55.8619 7.58814Z" fill="#FDDE04"/>
<path d="M36.1858 3.17689C37.0612 3.17689 37.9366 3.16705 38.8119 3.17689C39.9676 3.19164 41.1184 3.26049 42.2347 3.58506C43.2084 3.87029 44.074 4.33257 44.6985 5.17351C45.2198 5.88167 45.4264 6.68818 45.4706 7.55371C45.5493 9.09789 45.1657 10.4995 44.1674 11.7043C43.3658 12.6682 42.3577 13.3469 41.2069 13.8239C40.0807 14.2911 38.9005 14.5271 37.6907 14.6501C36.5645 14.7632 35.4383 14.7386 34.3122 14.7386C34.1892 14.7386 34.145 14.7681 34.1155 14.891C33.7171 16.6369 33.3089 18.3827 32.9106 20.1334C32.8762 20.276 32.8319 20.335 32.6696 20.3301C31.3123 20.3203 29.955 20.3301 28.5977 20.3301C28.4158 20.3301 28.4158 20.3301 28.46 20.1481C29.3796 16.1795 30.2943 12.2158 31.214 8.24712C31.5926 6.60458 31.9762 4.95712 32.35 3.31458C32.3746 3.20639 32.4188 3.1818 32.527 3.1818C33.7466 3.1818 34.9711 3.1818 36.1908 3.1818L36.1858 3.17689ZM36.1662 11.5125C36.6875 11.5224 37.3366 11.5125 37.9759 11.3797C38.4726 11.2814 38.9447 11.124 39.3824 10.8585C40.3905 10.2437 40.8086 9.32411 40.7495 8.16843C40.7151 7.51437 40.4053 7.02751 39.8152 6.73244C39.4267 6.53573 39.0087 6.44721 38.5759 6.41279C37.7792 6.34394 36.9825 6.39311 36.1858 6.37836C36.0973 6.37836 36.0826 6.42262 36.0678 6.48655C35.6891 8.11926 35.3154 9.75688 34.9318 11.3896C34.9121 11.483 34.922 11.5174 35.0302 11.5174C35.3646 11.5125 35.699 11.5174 36.1662 11.5174V11.5125Z" fill="#FDDE04"/>
<path d="M72.3119 20.6498C70.9398 20.6596 69.789 20.5465 68.6776 20.1481C66.5679 19.3908 65.2942 17.9106 64.8713 15.7074C64.6647 14.6353 64.6893 13.5632 64.8073 12.4862C64.9647 11.0207 65.3827 9.62901 66.0909 8.33564C67.6498 5.48824 70.0398 3.76702 73.1971 3.07853C74.4609 2.80314 75.7346 2.7933 77.0133 2.92116C78.3263 3.04902 79.5902 3.34901 80.795 3.8998C81.0065 3.99816 81.2131 4.11126 81.4245 4.21946C81.4934 4.25388 81.5179 4.2883 81.4983 4.37682C81.1737 5.68987 80.854 7.00784 80.5393 8.32088C80.5196 8.4094 80.4754 8.42416 80.3918 8.43399C80.1213 8.4635 79.9344 8.37498 79.7377 8.16843C79.0787 7.47994 78.3509 6.85539 77.4362 6.53573C75.3855 5.82265 73.4479 5.99969 71.7512 7.46519C70.7529 8.33072 70.1087 9.43722 69.7497 10.706C69.3661 12.0535 69.2481 13.4206 69.5038 14.8074C69.7645 16.2238 70.7087 17.104 72.1447 17.2909C73.7921 17.5073 75.3166 17.1385 76.7477 16.3319C77.3575 15.9877 77.9427 15.6189 78.4886 15.1812C78.6607 15.0386 78.8476 15.0976 79.0296 15.0976C79.1132 15.0976 79.0591 15.1763 79.0492 15.2205C78.8968 15.8549 78.7394 16.4893 78.5869 17.1237C78.4345 17.7483 78.2771 18.3728 78.1345 18.9974C78.1001 19.14 78.0362 19.2138 77.8985 19.2679C77.1018 19.5875 76.3248 19.9465 75.4986 20.1826C74.3921 20.5022 73.2757 20.694 72.3217 20.6547L72.3119 20.6498Z" fill="#FDDE04"/>
<path d="M55.8619 7.58814C55.9258 8.13401 55.9799 8.63071 56.034 9.1274C56.1471 10.1159 56.2553 11.1043 56.3684 12.0928C56.4274 12.6043 56.4815 13.1108 56.5405 13.6223C56.5504 13.7157 56.5356 13.7501 56.4274 13.7501C55.0898 13.7501 53.7522 13.7501 52.4145 13.7501C52.3949 13.7501 52.3752 13.7452 52.3309 13.7403C53.5063 11.6945 54.6718 9.66836 55.857 7.59797L55.8619 7.58814Z" fill="#004184"/>
<path d="M36.1662 11.5125C35.699 11.5125 35.3646 11.5125 35.0302 11.5125C34.922 11.5125 34.9072 11.4781 34.9318 11.3847C35.3105 9.75196 35.6891 8.11926 36.0678 6.48163C36.0826 6.4177 36.0973 6.37344 36.1858 6.37344C36.9825 6.39312 37.7792 6.33902 38.5759 6.40787C39.0037 6.44721 39.4267 6.53573 39.8152 6.72752C40.4053 7.02259 40.72 7.50453 40.7495 8.16352C40.8086 9.31919 40.3955 10.2388 39.3824 10.8535C38.9496 11.1191 38.4726 11.2716 37.9759 11.3748C37.3366 11.5027 36.6875 11.5174 36.1662 11.5076V11.5125Z" fill="#004184"/>
</svg>
