<svg width="91" height="32" viewBox="0 0 91 32" fill="none" xmlns="http://www.w3.org/2000/svg">
<g clip-path="url(#clip0_8_2)">
<path d="M37.4226 30.445C37.1099 30.445 36.8558 30.1908 36.8558 29.8781V11.5257C36.8558 7.84223 39.8525 4.84554 43.536 4.84554L48.955 4.85309C52.6271 4.86065 55.6144 7.85357 55.6134 11.5257V15.4313C55.6134 19.1148 52.6168 22.1115 48.9332 22.1124H41.2752C40.9625 22.1124 40.7084 21.8583 40.7084 21.5456C40.7084 21.2329 40.9625 20.9787 41.2752 20.9787H48.9332C51.9913 20.9787 54.4798 18.4894 54.4798 15.4313V11.5257C54.4798 8.47803 52.0008 5.99339 48.9531 5.98677L43.535 5.97922C40.4779 5.97922 37.9895 8.46764 37.9895 11.5257V29.8781C37.9895 30.1908 37.7353 30.445 37.4226 30.445Z" fill="#939598"/>
<path d="M61.4207 22.1956C61.108 22.1956 60.8539 21.9414 60.8539 21.6287V7.92064C60.8539 6.84931 59.9828 5.97827 58.9115 5.97827H56.561C56.2483 5.97827 55.9942 5.72414 55.9942 5.41143C55.9942 5.09872 56.2483 4.84459 56.561 4.84459H58.9115C60.6073 4.84459 61.9876 6.22484 61.9876 7.92064V21.6287C61.9876 21.9414 61.7334 22.1956 61.4207 22.1956Z" fill="#939598"/>
<path d="M60.9162 3.28767L59.8506 2.22107C59.586 1.95749 59.586 1.52858 59.8506 1.26405L60.9162 0.198394C61.1807 -0.0661313 61.6106 -0.0661313 61.8751 0.198394L62.9398 1.26405C63.2044 1.52763 63.2044 1.95654 62.9398 2.22107L61.8704 3.28767C61.6059 3.5522 61.177 3.5522 60.9124 3.28767" fill="#32BCAD"/>
<path d="M78.1916 13.2697C77.5832 13.2697 76.9748 13.0383 76.5119 12.5744L71.0598 7.12234C70.3135 6.37694 69.3206 5.96599 68.2653 5.96599H65.9327C65.62 5.96599 65.3659 5.71185 65.3659 5.39915C65.3659 5.08644 65.62 4.83231 65.9327 4.83231H68.2653C69.6229 4.83231 70.9002 5.36041 71.8609 6.32121L77.313 11.7733C77.7967 12.257 78.5837 12.2579 79.0674 11.7742C79.0683 11.7733 79.0702 11.7714 79.0712 11.7704L84.5005 6.34199C85.4604 5.38214 86.7367 4.85309 88.0943 4.85309H89.9923C90.305 4.85309 90.5591 5.10722 90.5591 5.41993C90.5591 5.73264 90.305 5.98677 89.9923 5.98677H88.0952C87.04 5.98677 86.048 6.39773 85.3026 7.14312L79.8704 12.5744C79.8704 12.5744 79.8676 12.5772 79.8666 12.5782C79.4046 13.0392 78.7972 13.2697 78.1907 13.2697H78.1916Z" fill="#939598"/>
<path d="M68.2653 22.0756H65.9327C65.62 22.0756 65.3659 21.8214 65.3659 21.5087C65.3659 21.196 65.62 20.9419 65.9327 20.9419H68.2643C69.3206 20.9419 70.3125 20.5309 71.0598 19.7846L76.5119 14.3325C77.4377 13.4076 78.9446 13.4076 79.8704 14.3325L85.3026 19.7648C86.0489 20.5101 87.0409 20.9211 88.0962 20.9211H89.9932C90.3059 20.9211 90.56 21.1752 90.56 21.4879C90.56 21.8007 90.3059 22.0548 89.9932 22.0548H88.0962C86.7386 22.0548 85.4613 21.5267 84.5015 20.5659L79.0693 15.1337C78.5856 14.65 77.7976 14.65 77.313 15.1337L71.8609 20.5857C70.9002 21.5456 69.6229 22.0746 68.2643 22.0746L68.2653 22.0756Z" fill="#939598"/>
<path d="M23.5265 24.991C22.3654 24.9948 21.2497 24.5347 20.4297 23.7128L15.9563 19.2366C15.6276 18.9221 15.1099 18.9221 14.7811 19.2366L10.2927 23.7251C9.47264 24.5489 8.35786 25.0099 7.19584 25.0071H6.32007L11.9885 30.6755C13.7589 32.4421 16.6243 32.4421 18.3947 30.6755L24.0744 24.9948L23.5265 24.991Z" fill="#32BCAD"/>
<path d="M7.19678 9.17241C8.3588 9.16958 9.47359 9.63061 10.2936 10.4544L14.782 14.9438C15.107 15.2678 15.6323 15.2678 15.9573 14.9438L20.4297 10.4714C21.2487 9.64667 22.3645 9.18469 23.5265 9.18847H24.065L18.3853 3.50874C16.6167 1.73925 13.7495 1.73925 11.98 3.50779C11.98 3.50779 11.98 3.50779 11.979 3.50874L6.32007 9.17241H7.19678Z" fill="#32BCAD"/>
<path d="M28.7632 13.8876L25.3309 10.4554C25.2535 10.4865 25.1713 10.5035 25.0872 10.5045H23.5265C22.714 10.5064 21.9356 10.8295 21.3602 11.402L16.8879 15.8715C16.0489 16.7086 14.6914 16.7086 13.8524 15.8715L9.36306 11.385C8.78772 10.8115 8.00926 10.4884 7.19679 10.4865H5.28087C5.20151 10.4846 5.12405 10.4695 5.05036 10.4402L1.59641 13.8876C-0.170239 15.658 -0.170239 18.5234 1.59641 20.2938L5.0428 23.7402C5.11649 23.7109 5.19395 23.6949 5.27331 23.6939H7.19679C8.00926 23.6911 8.78772 23.3689 9.36306 22.7955L13.8515 18.307C14.663 17.4965 16.0773 17.4965 16.8879 18.307L21.3602 22.7785C21.9356 23.351 22.714 23.6741 23.5265 23.676H25.0872C25.1713 23.676 25.2535 23.693 25.3309 23.7251L28.7632 20.2929C30.5326 18.5243 30.5326 15.6571 28.7641 13.8876C28.7641 13.8876 28.7641 13.8876 28.7632 13.8866" fill="#32BCAD"/>
<path d="M42.082 28.3184C41.7986 28.3307 41.5171 28.3732 41.2422 28.4459V29.5645C41.4519 29.6382 41.673 29.675 41.8959 29.6741C42.4571 29.6741 42.7226 29.4851 42.7226 28.991C42.7226 28.5262 42.5053 28.3184 42.082 28.3184ZM41.0532 30.3968V28.1833H41.2072L41.2233 28.2777C41.5095 28.2012 41.8024 28.1549 42.0981 28.137C42.3031 28.1228 42.5062 28.1814 42.6715 28.3033C42.8605 28.4601 42.9247 28.7133 42.9247 28.9891C42.9247 29.265 42.8303 29.5503 42.5657 29.7005C42.3636 29.8016 42.1406 29.8507 41.9148 29.8451C41.6871 29.8432 41.4604 29.8092 41.2422 29.7421V30.393L41.0532 30.3968Z" fill="#939598"/>
<path d="M44.3324 28.3118C43.7722 28.3118 43.5218 28.4875 43.5218 28.9816C43.5218 29.4757 43.7684 29.6741 44.3324 29.6741C44.8964 29.6741 45.1401 29.5002 45.1401 29.0071C45.1401 28.5139 44.8936 28.3118 44.3324 28.3118ZM45.0542 29.6741C44.8652 29.8082 44.6177 29.8469 44.3324 29.8469C44.0471 29.8469 43.7911 29.8054 43.6087 29.6741C43.4037 29.5295 43.3196 29.2962 43.3196 28.9948C43.3196 28.6934 43.4037 28.4591 43.6087 28.3118C43.7911 28.1804 44.0414 28.1389 44.3324 28.1389C44.6234 28.1389 44.8681 28.1804 45.0542 28.3118C45.262 28.4591 45.3423 28.6991 45.3423 28.991C45.3423 29.2829 45.2592 29.5295 45.0542 29.6741Z" fill="#939598"/>
<path d="M47.7088 29.8016L47.0834 28.4591H47.0711L46.4552 29.8016H46.2823L45.621 28.1833H45.8288L46.3834 29.5418H46.3966L46.9993 28.1833H47.1722L47.7901 29.5418H47.8033L48.3446 28.1833H48.5496L47.8827 29.8016H47.7088Z" fill="#939598"/>
<path d="M49.7542 28.308C49.2346 28.308 49.0589 28.5394 49.0268 28.8748H50.4817C50.4656 28.5064 50.2767 28.308 49.7542 28.308ZM49.7476 29.847C49.4368 29.847 49.2346 29.8016 49.074 29.6675C48.8851 29.504 48.8218 29.2669 48.8218 28.9948C48.8218 28.7227 48.9077 28.4591 49.1231 28.3023C49.3111 28.1842 49.5322 28.1266 49.7542 28.1389C49.981 28.1257 50.2058 28.1795 50.4014 28.2957C50.6347 28.4525 50.6801 28.7284 50.6801 29.042H49.0221C49.0287 29.3755 49.1373 29.6703 49.7656 29.6703C50.0462 29.6627 50.3258 29.6316 50.6017 29.5758V29.7459C50.322 29.8035 50.0367 29.8366 49.7514 29.8451" fill="#939598"/>
<path d="M51.2233 29.8016V28.1833H51.3763L51.3924 28.2778C51.7353 28.1908 51.8959 28.137 52.1973 28.137H52.22V28.3165H52.1746C51.9214 28.3165 51.7674 28.3514 51.4122 28.444V29.7997L51.2233 29.8016Z" fill="#939598"/>
<path d="M53.3177 28.308C52.799 28.308 52.6224 28.5394 52.5903 28.8748H54.0452C54.0291 28.5064 53.8401 28.308 53.3177 28.308ZM53.3111 29.847C53.0003 29.847 52.799 29.8016 52.6384 29.6675C52.4495 29.504 52.3853 29.2669 52.3853 28.9948C52.3853 28.7227 52.4722 28.4591 52.6866 28.3023C52.8746 28.1842 53.0957 28.1266 53.3177 28.1389C53.5444 28.1257 53.7693 28.1795 53.9649 28.2957C54.1991 28.4525 54.2483 28.7284 54.2483 29.042H52.5836C52.5903 29.3755 52.6989 29.6703 53.3272 29.6703C53.6087 29.6627 53.8883 29.6316 54.1642 29.5758V29.7459C53.8845 29.8035 53.5992 29.8366 53.3139 29.8451" fill="#939598"/>
<path d="M56.3154 28.4204C56.1057 28.3467 55.8846 28.3099 55.6616 28.3118C55.1005 28.3118 54.835 28.5007 54.835 28.9948C54.835 29.4624 55.0532 29.6674 55.4755 29.6674C55.7589 29.6542 56.0405 29.6127 56.3154 29.5418V28.4204ZM56.3513 29.8016L56.3343 29.7071C56.048 29.7837 55.7552 29.8318 55.4595 29.8488C55.2544 29.864 55.0504 29.8044 54.886 29.6816C54.6971 29.5248 54.6328 29.2716 54.6328 28.9967C54.6328 28.7076 54.7273 28.4355 54.9918 28.2881C55.194 28.1852 55.4188 28.1341 55.6456 28.1408C55.8723 28.1436 56.0981 28.1785 56.3154 28.2428V27.5012H56.5043V29.8016H56.3513Z" fill="#939598"/>
<path d="M59.2771 28.3184C58.9937 28.3307 58.7122 28.3732 58.4372 28.4459V29.5616C58.647 29.6372 58.868 29.675 59.091 29.6741C59.6522 29.6741 59.9176 29.4851 59.9176 28.991C59.9176 28.5262 59.7003 28.3184 59.2771 28.3184ZM59.7608 29.7024C59.5596 29.8035 59.3357 29.8526 59.1108 29.8469C58.8643 29.8451 58.6196 29.8044 58.3862 29.7251L58.3768 29.8016H58.2483V27.5012H58.4372V28.273C58.7178 28.2012 59.0041 28.1568 59.2932 28.1389C59.4982 28.1247 59.7013 28.1833 59.8666 28.3051C60.0556 28.462 60.1198 28.7152 60.1198 28.991C60.1198 29.2669 60.0253 29.5522 59.7608 29.7024Z" fill="#939598"/>
<path d="M60.3711 30.4204V30.2447C60.4656 30.2541 60.5506 30.2608 60.6111 30.2608C60.8454 30.2608 60.989 30.1927 61.1175 29.9273L61.1789 29.7988L60.3286 28.1805H60.5478L61.2724 29.5777H61.2847L61.9734 28.1805H62.1888L61.2781 29.9981C61.1118 30.3278 60.9323 30.4365 60.6016 30.4365C60.5232 30.4365 60.4458 30.4308 60.3683 30.4204" fill="#939598"/>
<path d="M64.7991 28.8786H64.1718V29.4454H64.7991C65.2318 29.4454 65.3952 29.3973 65.3952 29.162C65.3952 28.9088 65.1704 28.8786 64.7953 28.8786M64.6819 27.9641H64.1699V28.5404H64.6857C65.1118 28.5404 65.2818 28.4894 65.2818 28.2494C65.2818 27.9924 65.0664 27.966 64.6819 27.966M65.6569 29.6552C65.4254 29.8026 65.1467 29.8082 64.6375 29.8082H63.6786V27.607H64.6149C65.0542 27.607 65.3234 27.6127 65.5473 27.7478C65.6994 27.8385 65.7863 28.0076 65.7722 28.1833C65.7722 28.4138 65.6777 28.5678 65.4254 28.6708V28.683C65.7089 28.7473 65.8902 28.8918 65.8902 29.2026C65.9044 29.384 65.8137 29.5569 65.6569 29.6486" fill="#939598"/>
<path d="M67.8071 29.1223C67.6182 29.1063 67.4292 29.0968 67.2242 29.0968C66.8945 29.0968 66.7783 29.1639 66.7783 29.3151C66.7783 29.4662 66.8728 29.5324 67.1278 29.5324C67.3574 29.5248 67.5851 29.4936 67.8071 29.4379V29.1223ZM67.9016 29.8016L67.8893 29.7071C67.603 29.7874 67.3083 29.8356 67.0107 29.8488C66.8388 29.8602 66.6678 29.8186 66.5204 29.7298C66.3088 29.5522 66.2814 29.2357 66.459 29.0241C66.5024 28.9731 66.5553 28.9306 66.6149 28.9003C66.7849 28.82 67.0126 28.8134 67.2214 28.8134C67.3905 28.8134 67.6182 28.8229 67.8071 28.8361V28.8068C67.8071 28.5536 67.6408 28.4705 67.1855 28.4705C67.0098 28.4705 66.7944 28.4799 66.5893 28.4988V28.1719C66.817 28.153 67.074 28.1408 67.2856 28.1408C67.569 28.1408 67.8591 28.1625 68.0414 28.291C68.2237 28.4195 68.2625 28.6056 68.2625 28.8455V29.8035L67.9016 29.8016Z" fill="#939598"/>
<path d="M70.373 29.8016V28.9088C70.373 28.6141 70.2228 28.5083 69.9535 28.5083C69.7296 28.5177 69.5086 28.5527 69.2922 28.6103V29.8026H68.8406V28.1833H69.2091L69.2251 28.2863C69.5067 28.2031 69.7977 28.154 70.0905 28.1389C70.2899 28.1228 70.4873 28.1823 70.6451 28.3052C70.7726 28.4204 70.8208 28.581 70.8208 28.8115V29.8016H70.373Z" fill="#939598"/>
<path d="M72.0981 29.8469C71.8893 29.8469 71.6616 29.8177 71.4953 29.6769C71.2969 29.5163 71.2393 29.264 71.2393 28.991C71.2393 28.735 71.3225 28.4554 71.569 28.2985C71.7712 28.1672 72.0206 28.1389 72.2804 28.1389C72.4694 28.1389 72.6489 28.1512 72.8473 28.17V28.5168C72.6838 28.5007 72.4883 28.4884 72.3314 28.4884C71.9016 28.4884 71.6994 28.6226 71.6994 28.9948C71.6994 29.3434 71.8506 29.4946 72.2029 29.4946C72.4316 29.487 72.6583 29.4596 72.8822 29.4114V29.744C72.6234 29.8044 72.3598 29.8384 72.0943 29.8469" fill="#939598"/>
<path d="M74.2209 28.478C73.7911 28.478 73.6021 28.6131 73.6021 28.9816C73.6021 29.35 73.7911 29.5068 74.2209 29.5068C74.6508 29.5068 74.8331 29.3755 74.8331 29.0071C74.8331 28.6386 74.6508 28.478 74.2209 28.478ZM74.9965 29.6769C74.7981 29.811 74.5383 29.8469 74.2209 29.8469C73.9035 29.8469 73.638 29.8082 73.4424 29.6769C73.2176 29.5295 73.1373 29.2858 73.1373 28.9948C73.1373 28.7038 73.2176 28.4554 73.4424 28.308C73.638 28.1767 73.8969 28.1389 74.2209 28.1389C74.5449 28.1389 74.7981 28.1767 74.9965 28.308C75.2204 28.4554 75.2979 28.7029 75.2979 28.991C75.2979 29.2792 75.2176 29.5295 74.9965 29.6769Z" fill="#939598"/>
<path d="M77.9063 29.847C77.6342 29.847 77.3395 29.8016 77.1184 29.6193C76.8558 29.401 76.7755 29.0647 76.7755 28.7029C76.7755 28.3788 76.8784 27.9943 77.2204 27.7704C77.4868 27.5975 77.8166 27.5616 78.15 27.5616C78.3938 27.5616 78.6441 27.5777 78.9162 27.6004V27.9943C78.6829 27.9754 78.3938 27.9594 78.1699 27.9594C77.5445 27.9594 77.279 28.1965 77.279 28.7029C77.279 29.2093 77.5256 29.4492 77.9866 29.4492C78.3163 29.4379 78.6432 29.3935 78.9644 29.3179V29.709C78.6167 29.7893 78.2625 29.8356 77.9063 29.847Z" fill="#939598"/>
<path d="M80.2927 28.427C79.9148 28.427 79.7731 28.5621 79.7438 28.8049H80.834C80.8208 28.5423 80.6668 28.427 80.2927 28.427ZM80.2247 29.8441C79.9592 29.8441 79.7183 29.812 79.5388 29.6646C79.3593 29.5172 79.279 29.2641 79.279 28.9882C79.279 28.7416 79.3593 28.4658 79.5841 28.3052C79.7825 28.1644 80.0357 28.136 80.2927 28.136C80.5232 28.136 80.7953 28.1616 80.9937 28.2995C81.2535 28.4818 81.2771 28.7643 81.2771 29.0968H79.741C79.7504 29.3444 79.8817 29.504 80.3371 29.504C80.6262 29.4974 80.9143 29.47 81.1996 29.4209V29.7383C80.8784 29.7997 80.5515 29.8347 80.2247 29.8441Z" fill="#939598"/>
<path d="M83.2894 29.8016V28.9088C83.2894 28.6141 83.1392 28.5083 82.8699 28.5083C82.646 28.5177 82.4249 28.5527 82.2086 28.6103V29.8026H81.757V28.1833H82.1255L82.1415 28.2863C82.4231 28.2031 82.714 28.154 83.0069 28.1389C83.2062 28.1228 83.4037 28.1823 83.5615 28.3052C83.689 28.4204 83.7372 28.581 83.7372 28.8115V29.8016H83.2894Z" fill="#939598"/>
<path d="M85.0249 29.847C84.8066 29.847 84.6082 29.7855 84.4996 29.6155C84.4108 29.4681 84.3692 29.2981 84.3806 29.1261V28.5196H84.0537V28.1833H84.3806L84.4287 27.693H84.8274V28.1833H85.4651V28.5196H84.8274V29.0392C84.8217 29.1441 84.8369 29.2489 84.8718 29.3472C84.92 29.4558 85.0258 29.4974 85.1675 29.4974C85.2762 29.4955 85.3839 29.4851 85.4906 29.4653V29.7893C85.3366 29.8224 85.1807 29.8422 85.023 29.847" fill="#939598"/>
<path d="M85.9082 29.8016V28.1833H86.2766L86.2927 28.2863C86.5516 28.1984 86.8208 28.1493 87.0938 28.1389C87.1127 28.1379 87.1326 28.1379 87.1515 28.1389V28.5309H86.9946C86.7802 28.5309 86.5667 28.5593 86.3598 28.6141V29.8092L85.9082 29.8016Z" fill="#939598"/>
<path d="M88.7953 29.1223C88.6063 29.1063 88.4174 29.0968 88.2114 29.0968C87.8817 29.0968 87.7665 29.1639 87.7665 29.3151C87.7665 29.4662 87.8609 29.5324 88.1151 29.5324C88.3446 29.5248 88.5723 29.4936 88.7953 29.4379V29.1223ZM88.8898 29.8016L88.8765 29.7071C88.5903 29.7874 88.2955 29.8356 87.9979 29.8488C87.826 29.8602 87.655 29.8186 87.5076 29.7298C87.3867 29.6372 87.3196 29.4908 87.3281 29.3387C87.3196 29.1497 87.4283 28.9759 87.6011 28.9003C87.7712 28.82 87.9979 28.8134 88.2067 28.8134C88.3768 28.8134 88.6044 28.8229 88.7934 28.8361V28.8068C88.7934 28.5536 88.6262 28.4705 88.1718 28.4705C87.9951 28.4705 87.7806 28.4799 87.5756 28.4988V28.1719C87.8033 28.153 88.0593 28.1408 88.271 28.1408C88.5544 28.1408 88.8444 28.1625 89.0267 28.291C89.2091 28.4195 89.2478 28.6056 89.2478 28.8455V29.8035L88.8898 29.8016Z" fill="#939598"/>
<path d="M89.8269 27.5012H90.2795V29.8016H89.8269V27.5012Z" fill="#939598"/>
</g>
<defs>
<clipPath id="clip0_8_2">
<rect width="90.2881" height="32" fill="white" transform="translate(0.271912)"/>
</clipPath>
</defs>
</svg>
