<svg width="145" height="32" viewBox="0 0 145 32" fill="none" xmlns="http://www.w3.org/2000/svg">
<path d="M138.185 31.8707C92.6941 31.8707 47.2002 31.8707 1.70931 31.8403C1.32844 31.8403 0.399122 32.4557 0.496624 31.2705C0.761708 31.1303 0.737333 30.8652 0.789131 30.6245C2.85801 20.9657 4.96345 11.313 6.96834 1.63894C7.23951 0.337894 7.70874 0.00273023 9.00979 0.00273023C53.5348 0.0392936 98.0628 0.0301527 142.588 0.0392936C143.109 0.0392936 143.67 -0.125241 144.197 0.219063C143.715 2.78764 143.243 5.34098 142.758 7.88822C141.238 15.8834 139.708 23.8755 138.185 31.8677V31.8707ZM56.143 28.2266C60.4605 28.2266 64.6622 28.3241 68.8548 28.1931C71.5361 28.1108 74.187 27.608 76.457 25.9932C81.9476 22.087 83.3613 16.5019 82.8677 10.2618C82.5935 6.80656 80.2595 4.4665 76.783 3.95766C71.9048 3.23859 66.9779 3.80532 62.0784 3.63469C61.3197 3.60727 61.3441 4.10087 61.2405 4.59448C60.7134 7.08383 60.1558 9.57014 59.6195 12.0564C58.4648 17.413 57.316 22.7725 56.146 28.2266H56.143ZM82.2492 28.2662C88.1755 28.2662 93.9434 28.2814 99.7112 28.257C101.168 28.251 103.102 28.8786 103.956 28.0163C104.854 27.1083 104.675 25.201 105.086 23.7628C105.382 22.7329 104.992 22.608 104.087 22.6202C101.152 22.6629 98.2152 22.6354 95.2779 22.6385C91.4296 22.6385 91.454 22.6446 92.2919 18.9243C92.4839 18.0681 92.8709 17.8213 93.7362 17.8426C96.1646 17.9035 98.5961 17.8913 101.024 17.8517C102.329 17.8304 103.977 18.3941 104.836 17.6019C105.601 16.898 105.467 15.2771 105.826 14.0888C106.131 13.0863 105.881 12.7694 104.806 12.7908C101.972 12.8517 99.1354 12.8121 96.3017 12.8121C93.5808 12.8121 93.6082 12.8182 94.1597 10.2191C94.3517 9.32029 94.6624 8.89981 95.7197 8.93942C98.3493 9.03387 100.985 9.0034 103.617 8.9577C105.016 8.93332 106.82 9.56709 107.706 8.68348C108.553 7.83947 108.407 6.0692 108.822 4.74378C109.102 3.84188 108.88 3.64078 107.972 3.64688C101.542 3.67735 95.1134 3.67125 88.6843 3.64992C87.9165 3.64992 87.5753 3.79008 87.3924 4.65541C85.738 12.4647 84.0073 20.2588 82.2523 28.2692L82.2492 28.2662ZM58.4251 3.64078C51.5969 3.64078 44.9668 3.67735 38.3366 3.60422C37.2001 3.59203 36.8985 4.00946 36.6974 4.96011C35.1373 12.285 33.559 19.6068 31.935 26.9164C31.7065 27.9493 31.8284 28.2845 32.9984 28.2692C38.3153 28.2113 43.6322 28.2631 48.9491 28.2296C50.4543 28.2205 52.3648 28.8573 53.3489 27.9676C54.2356 27.1632 54.068 25.271 54.4793 23.8938C54.8145 22.7695 54.4306 22.5593 53.352 22.5714C49.2569 22.6263 45.1618 22.5928 40.9479 22.5928C41.2373 21.2674 41.5908 20.073 41.734 18.8542C41.8467 17.9005 42.3007 17.7603 43.1295 17.7756C45.5579 17.8182 47.9894 17.7908 50.4208 17.7908C54.4672 17.7908 54.394 17.7756 55.2716 13.8968C55.5488 12.6628 55.0522 12.7176 54.1929 12.7268C51.3562 12.7511 48.5226 12.7359 45.6859 12.7359C43.0899 12.7359 43.163 12.7481 43.5804 10.2009C43.7602 9.09177 44.2203 8.83582 45.2654 8.86934C47.642 8.93942 50.0247 8.92723 52.4044 8.87848C54.0101 8.84801 56.0698 9.5549 57.1028 8.59816C58.2301 7.55306 58.0138 5.43543 58.419 3.64078H58.4251ZM11.8526 19.8201C11.8526 19.8627 11.8526 19.9054 11.8526 19.948C10.7892 19.948 9.72887 19.9389 8.66548 19.9511C8.18102 19.9572 7.86109 20.073 7.77273 20.6945C7.33397 23.7506 9.21089 27.0261 12.2304 27.8945C16.356 29.0828 20.5425 29.0828 24.6101 27.6294C27.5261 26.5873 29.729 24.6495 30.9204 21.7396C32.4926 17.9005 31.2433 14.9114 27.4072 13.3423C26.7125 13.0589 25.9874 12.8304 25.2591 12.6323C23.4127 12.1265 21.5388 11.7121 19.7137 11.1424C18.4827 10.7554 18.172 9.86874 18.8636 8.96379C19.9026 7.6079 21.42 7.6658 22.8886 7.88213C24.0465 8.05276 24.7991 8.79621 24.86 10.015C24.8935 10.7188 25.1495 10.9595 25.8838 10.9047C27.8003 10.7584 29.7229 10.6366 31.6455 10.6031C32.584 10.5848 32.6876 10.1491 32.6663 9.38732C32.581 6.48663 31.094 4.47869 28.1568 3.73524C24.5583 2.8242 20.9233 2.89123 17.3676 3.9729C14.6497 4.79862 12.5199 6.42264 11.3224 9.05825C9.997 11.9742 10.8898 14.6555 13.696 16.2368C14.9757 16.959 16.3712 17.3916 17.785 17.7725C19.147 18.1412 20.512 18.4977 21.8496 18.9456C22.8551 19.2807 23.4493 20.0029 23.2908 21.1211C23.0836 22.5775 21.353 23.7141 19.3267 23.7598C17.3188 23.8055 15.7313 22.9036 15.7344 21.3161C15.7374 19.494 14.8752 19.4179 13.5132 19.6616C12.9678 19.7591 12.4041 19.7713 11.8495 19.8231L11.8526 19.8201ZM120.939 20.3807C122 22.8365 122.953 25.076 123.934 27.3034C124.117 27.7177 124.145 28.2845 124.873 28.2753C127.633 28.2479 130.391 28.2631 133.331 28.2631C131.384 24.2168 129.541 20.3533 127.658 16.508C127.335 15.8499 127.304 15.4172 127.856 14.8231C130.208 12.2758 132.493 9.66459 134.797 7.07469C135.741 6.01435 136.668 4.93878 137.786 3.66211C135.181 3.66211 132.914 3.74438 130.656 3.62859C129.434 3.56461 128.724 4.03384 128.036 4.93878C126.448 7.01375 124.775 9.02473 123.014 11.2185C122.115 8.89981 121.284 6.81875 120.507 4.7194C120.235 3.98813 119.912 3.60117 119.008 3.63469C116.835 3.72 114.653 3.71086 112.481 3.64078C111.412 3.60727 111.287 3.85712 111.747 4.78339C113.343 8.00401 114.855 11.2673 116.451 14.491C116.789 15.1735 116.774 15.6183 116.226 16.179C114.995 17.4343 113.834 18.7597 112.652 20.0608C110.235 22.7147 107.825 25.3716 105.214 28.2449C107.652 28.2449 109.769 28.1321 111.869 28.2814C113.554 28.4002 114.669 27.8579 115.689 26.5294C117.295 24.4392 119.114 22.5044 120.945 20.3837L120.939 20.3807Z" fill="#034184"/>
<path d="M56.143 28.2266C57.313 22.7725 58.4617 17.413 59.6165 12.0564C60.1528 9.56709 60.7103 7.08383 61.2375 4.59447C61.3411 4.10087 61.3167 3.60727 62.0754 3.63469C66.9779 3.80532 71.9018 3.23858 76.7799 3.95766C80.2565 4.46955 82.5874 6.80656 82.8647 10.2618C83.3613 16.5019 81.9475 22.09 76.4539 25.9932C74.1839 27.605 71.5361 28.1077 68.8518 28.1931C64.6592 28.3241 60.4574 28.2266 56.1399 28.2266L56.143 28.2266ZM68.02 22.5867C70.0797 22.736 72.1851 22.1632 73.3369 19.9145C74.5374 17.5714 75.098 15.0333 74.9639 12.3886C74.8908 10.9352 74.1199 10.0272 72.6848 9.57318C71.6214 9.23802 70.6129 9.57928 69.5952 9.54576C68.3612 9.50615 68.1022 9.99671 67.9011 11.0449C67.3009 14.1771 66.5757 17.288 65.8962 20.4081C65.5753 21.8788 66.2832 22.605 68.02 22.5867Z" fill="#FCDD06"/>
<path d="M82.2492 28.2662C84.0042 20.2588 85.7349 12.4647 87.3894 4.65237C87.5722 3.78704 87.9135 3.64688 88.6813 3.64688C95.1103 3.6682 101.539 3.6743 107.968 3.64383C108.879 3.64078 109.102 3.84188 108.819 4.74073C108.404 6.06615 108.55 7.83642 107.703 8.68043C106.82 9.56404 105.016 8.92723 103.614 8.95465C100.982 9.0034 98.3462 9.03083 95.7167 8.93637C94.6594 8.89676 94.3456 9.31724 94.1567 10.2161C93.6052 12.8151 93.5777 12.809 96.2987 12.809C99.1323 12.809 101.969 12.8486 104.803 12.7877C105.881 12.7664 106.131 13.0833 105.823 14.0857C105.464 15.274 105.598 16.895 104.833 17.5988C103.974 18.391 102.326 17.8274 101.021 17.8487C98.593 17.8852 96.1615 17.8974 93.7331 17.8395C92.8678 17.8182 92.4808 18.065 92.2889 18.9212C91.451 22.6415 91.4266 22.6354 95.2749 22.6354C98.2121 22.6354 101.149 22.6629 104.084 22.6172C104.989 22.605 105.379 22.7299 105.083 23.7598C104.672 25.1979 104.851 27.1053 103.953 28.0133C103.096 28.8756 101.165 28.2479 99.7082 28.254C93.9403 28.2784 88.1724 28.2631 82.2461 28.2631L82.2492 28.2662Z" fill="#FCDD06"/>
<path d="M58.4251 3.64078C58.0199 5.43543 58.2332 7.55306 57.1089 8.59816C56.0759 9.55795 54.0162 8.84801 52.4105 8.87848C50.0308 8.92723 47.6481 8.93942 45.2715 8.86934C44.2264 8.83887 43.7663 9.09481 43.5865 10.2009C43.1691 12.7481 43.096 12.7359 45.692 12.7359C48.5287 12.7359 51.3623 12.7511 54.199 12.7268C55.0583 12.7207 55.5549 12.6658 55.2776 13.8968C54.4001 17.7756 54.4732 17.7908 50.4269 17.7908C47.9954 17.7908 45.564 17.8182 43.1356 17.7756C42.3038 17.7603 41.8498 17.9035 41.7401 18.8542C41.5969 20.073 41.2434 21.2674 40.954 22.5928C45.1648 22.5928 49.263 22.6263 53.3581 22.5714C54.4367 22.5562 54.8206 22.7665 54.4854 23.8938C54.0741 25.2741 54.2417 27.1662 53.355 27.9676C52.3709 28.8573 50.4604 28.2205 48.9552 28.2296C43.6383 28.2631 38.3214 28.2083 33.0045 28.2692C31.8345 28.2814 31.7126 27.9493 31.9411 26.9164C33.5651 19.6037 35.1434 12.285 36.7035 4.96011C36.9046 4.00946 37.2062 3.59203 38.3427 3.60422C44.9729 3.67735 51.603 3.64078 58.4312 3.64078H58.4251Z" fill="#FCDD06"/>
<path d="M11.8526 19.8201C12.4071 19.7683 12.9678 19.7561 13.5162 19.6586C14.8752 19.4148 15.7405 19.491 15.7374 21.3131C15.7344 22.9005 17.3219 23.8024 19.3298 23.7567C21.356 23.711 23.0867 22.5745 23.2939 21.1181C23.4554 19.9968 22.8612 19.2777 21.8527 18.9425C20.5181 18.4977 19.15 18.1381 17.788 17.7695C16.3743 17.3886 14.9788 16.9559 13.699 16.2338C10.8958 14.6524 10 11.9711 11.3255 9.0552C12.5229 6.42264 14.6527 4.79557 17.3706 3.96985C20.9264 2.88819 24.5614 2.82115 28.1598 3.73219C31.0971 4.47564 32.584 6.48358 32.6693 9.38427C32.6906 10.146 32.587 10.5848 31.6486 10.6C29.726 10.6335 27.8033 10.7554 25.8868 10.9017C25.1525 10.9565 24.8966 10.7158 24.863 10.0119C24.8021 8.79316 24.0495 8.04971 22.8917 7.87908C21.4261 7.66275 19.9057 7.60486 18.8667 8.96075C18.175 9.86569 18.4858 10.7554 19.7168 11.1393C21.5419 11.7121 23.4157 12.1235 25.2622 12.6293C25.9904 12.8273 26.7125 13.0558 27.4103 13.3392C31.2464 14.9053 32.4926 17.8974 30.9234 21.7366C29.7321 24.6495 27.5291 26.5873 24.6132 27.6263C20.5455 29.0797 16.356 29.0767 12.2335 27.8914C9.21393 27.023 7.33701 23.7476 7.77577 20.6915C7.86414 20.0699 8.18407 19.9541 8.66853 19.948C9.73191 19.9358 10.7922 19.945 11.8556 19.945C11.8556 19.9023 11.8556 19.8597 11.8556 19.817L11.8526 19.8201Z" fill="#FCDD06"/>
<path d="M120.939 20.3807C119.108 22.5014 117.289 24.4362 115.683 26.5264C114.663 27.8549 113.547 28.3972 111.862 28.2784C109.763 28.1321 107.645 28.2418 105.208 28.2418C107.819 25.3685 110.232 22.7116 112.646 20.0577C113.831 18.7567 114.989 17.4313 116.22 16.1759C116.768 15.6153 116.783 15.1704 116.445 14.4879C114.848 11.2673 113.337 8.00096 111.741 4.78034C111.28 3.85407 111.405 3.60422 112.475 3.63774C114.65 3.70477 116.829 3.71391 119.001 3.63164C119.909 3.59508 120.229 3.98204 120.501 4.71635C121.278 6.8157 122.109 8.89981 123.008 11.2155C124.772 9.02169 126.445 7.0107 128.03 4.93573C128.718 4.03384 129.428 3.56461 130.65 3.62555C132.908 3.74133 135.178 3.65906 137.78 3.65906C136.662 4.93573 135.735 6.0113 134.791 7.07164C132.487 9.66459 130.202 12.2728 127.85 14.82C127.298 15.4172 127.329 15.8499 127.652 16.505C129.535 20.3502 131.378 24.2138 133.325 28.2601C130.385 28.2601 127.624 28.2449 124.867 28.2723C124.136 28.2784 124.111 27.7147 123.928 27.3003C122.944 25.073 121.99 22.8335 120.933 20.3776L120.939 20.3807Z" fill="#FCDD06"/>
<path d="M68.02 22.5867C66.2832 22.6029 65.5753 21.8767 65.8962 20.4081C66.5757 17.288 67.3009 14.1802 67.9011 11.0449C68.1022 9.99671 68.3612 9.50615 69.5952 9.54576C70.616 9.57928 71.6245 9.23802 72.6848 9.57318C74.1199 10.0241 74.8908 10.9321 74.9639 12.3886C75.095 15.0333 74.5374 17.5714 73.3369 19.9145C72.1851 22.1632 70.0797 22.736 68.02 22.5867Z" fill="#034184"/>
</svg>
