<svg width="82" height="32" viewBox="0 0 82 32" fill="none" xmlns="http://www.w3.org/2000/svg">
<path fill-rule="evenodd" clip-rule="evenodd" d="M10.7523 0.000976562C14.3067 0.000976562 17.2146 2.90886 17.2146 6.46329V12.3228H14.4228V6.64452C14.4228 4.62549 12.7714 2.97504 10.7533 2.97504C8.73533 2.97504 7.08386 4.62651 7.08386 6.64452V12.3228H4.29205V6.46329C4.29103 2.90886 7.19892 0.000976562 10.7523 0.000976562Z" fill="#808080"/>
<path fill-rule="evenodd" clip-rule="evenodd" d="M0.699951 12.3228H10.7523V32.001H10.5385C5.12694 32.001 0.699951 27.573 0.699951 22.1614V12.3228Z" fill="#9AC201"/>
<path fill-rule="evenodd" clip-rule="evenodd" d="M20.8057 12.3228H10.7523V32.001H10.9672C16.3787 32.001 20.8057 27.574 20.8057 22.1624V12.3228Z" fill="#B1CE00"/>
<path d="M6.54627 21.7053L7.60313 22.7631C7.89433 23.0543 8.36981 23.5308 8.66101 23.821L9.71888 24.8779C10.0091 25.168 10.4835 25.1691 10.7747 24.8799C10.7747 24.8799 10.7757 24.8789 10.7768 24.8779L11.8336 23.821C12.1248 23.5298 12.6013 23.0533 12.8915 22.7631L13.9484 21.7053C14.0461 21.6075 14.1652 21.4884 14.2905 21.3632C14.5033 21.1504 14.7344 20.9192 14.9176 20.7349C14.9482 20.7044 14.9787 20.6749 15.0062 20.6464L16.0631 19.5895C16.3543 19.2983 16.3543 18.8228 16.0631 18.5316L15.0062 17.4748C14.716 17.1836 14.2385 17.1836 13.9484 17.4748L12.8915 18.5316C12.8701 18.554 12.8447 18.5785 12.8212 18.6019C12.6329 18.7902 12.3906 19.0326 12.1686 19.2545C12.1197 19.3034 12.0729 19.3502 12.0271 19.3961C11.9578 19.4663 11.8906 19.5325 11.8326 19.5895L10.7757 20.6464C10.4845 20.9355 10.008 20.9365 9.71786 20.6464L8.65999 19.5895C8.36879 19.2983 7.89331 19.2983 7.60211 19.5895L6.54627 20.6453C6.25508 20.9365 6.25508 21.413 6.54627 21.7032V21.7053Z" fill="white"/>
<path d="M27.8891 18.9114C27.2741 18.9114 26.7274 18.776 26.2478 18.5062C25.7683 18.2353 25.3966 17.8607 25.1319 17.3811C24.8672 16.9015 24.7358 16.3548 24.7358 15.7398V15.2786L26.6164 15.076V15.5555C26.6164 16.0229 26.7274 16.3914 26.9483 16.6623C27.1693 16.9331 27.4767 17.0675 27.8708 17.0675C28.2648 17.0675 28.556 16.9565 28.7841 16.7356C29.0111 16.5146 29.1252 16.2133 29.1252 15.8325C29.1252 15.414 29.005 15.0149 28.7658 14.6341C28.5265 14.2533 28.05 13.7249 27.3362 13.0478C26.3771 12.1386 25.7224 11.3821 25.3722 10.7793C25.0219 10.1765 24.8468 9.51881 24.8468 8.80609C24.8468 7.83476 25.1115 7.06299 25.64 6.4918C26.1684 5.9206 26.8944 5.6345 27.8158 5.6345C28.7372 5.6345 29.4632 5.92366 29.9916 6.50096C30.5201 7.07826 30.7848 7.85309 30.7848 8.82442V9.15634L28.9042 9.35896V8.99038C28.9042 8.49861 28.8116 8.12392 28.6273 7.8653C28.443 7.60669 28.1783 7.4784 27.8341 7.4784C27.49 7.4784 27.2253 7.58327 27.041 7.792C26.8567 8.00072 26.764 8.30821 26.764 8.71446C26.764 9.12071 26.8872 9.51067 27.1326 9.88535C27.378 10.26 27.8514 10.7976 28.553 11.4991C29.5121 12.4583 30.1668 13.229 30.517 13.8134C30.8673 14.3979 31.0424 15.0393 31.0424 15.7408C31.0424 16.3558 30.91 16.9026 30.6463 17.3821C30.3816 17.8617 30.01 18.2364 29.5304 18.5072C29.0508 18.778 28.5041 18.9114 27.8891 18.9114Z" fill="#808080"/>
<path d="M32.702 5.81879H38.252V7.66269H34.6569V11.2589H37.5149V13.1028H34.6569V16.8832H38.252V18.7271H32.702V5.81879Z" fill="#808080"/>
<path d="M42.789 18.9114C41.8797 18.9114 41.1416 18.6284 40.5765 18.0633C40.0114 17.4982 39.7284 16.76 39.7284 15.8508V8.69613C39.7284 7.78589 40.0114 7.04873 40.5765 6.48365C41.1416 5.91857 41.8797 5.63552 42.789 5.63552C43.6982 5.63552 44.4364 5.91857 45.0015 6.48365C45.5665 7.04873 45.8496 7.78691 45.8496 8.69613V10.2081H43.9314V8.69613C43.9314 8.32755 43.8265 8.03229 43.6178 7.81134C43.409 7.5904 43.1382 7.47942 42.8063 7.47942C42.4744 7.47942 42.2035 7.5904 41.9948 7.81134C41.7861 8.03229 41.6812 8.32755 41.6812 8.69613V15.8508C41.6812 16.2194 41.7861 16.5146 41.9948 16.7356C42.2035 16.9565 42.4744 17.0675 42.8063 17.0675C43.1382 17.0675 43.409 16.9565 43.6178 16.7356C43.8265 16.5146 43.9314 16.2194 43.9314 15.8508V14.0069H45.8496V15.8508C45.8496 16.761 45.5665 17.4982 45.0015 18.0633C44.4364 18.6284 43.6982 18.9114 42.789 18.9114Z" fill="#808080"/>
<path d="M50.6075 18.9114C49.7105 18.9114 48.9784 18.6314 48.4133 18.0724C47.8483 17.5135 47.5652 16.7845 47.5652 15.8874V5.81879H49.5201V15.8874C49.5201 16.256 49.6219 16.5452 49.8245 16.7539C50.0271 16.9626 50.2888 17.0675 50.6085 17.0675C50.9282 17.0675 51.1899 16.9626 51.3925 16.7539C51.5951 16.5452 51.6969 16.256 51.6969 15.8874V5.81879H53.6152V15.8874C53.6152 16.7845 53.3382 17.5135 52.7853 18.0724C52.2325 18.6314 51.5065 18.9114 50.6095 18.9114H50.6075Z" fill="#808080"/>
<path d="M60.0673 18.7271L58.6469 13.398H57.6329V18.7271H55.678V5.81879H58.7386C59.6733 5.81879 60.4165 6.09878 60.9694 6.65776C61.5223 7.21673 61.7992 7.96407 61.7992 8.89875V10.3191C61.7992 10.9096 61.6821 11.4319 61.4489 11.8861C61.2158 12.3412 60.8839 12.6975 60.4532 12.9551L62.0945 18.7271H60.0673ZM57.6329 11.5531H58.6469C59.0277 11.5531 59.323 11.4482 59.5317 11.2395C59.7405 11.0308 59.8453 10.7355 59.8453 10.3547V8.86107C59.8453 8.48028 59.7405 8.18501 59.5317 7.97629C59.323 7.76756 59.0277 7.66269 58.6469 7.66269H57.6329V11.5531Z" fill="#808080"/>
<path d="M63.7001 5.81879H65.655V18.7271H63.7001V5.81879Z" fill="#808080"/>
<path d="M67.167 5.81879H73.4002V7.66269H71.261V18.7271H69.3062V7.66269H67.167V5.81879Z" fill="#808080"/>
<path d="M81.403 5.81879L78.7843 13.3237V18.7271H76.8294V13.3237L74.2107 5.81879H76.2949L77.8068 10.7426L79.3565 5.81879H81.403Z" fill="#808080"/>
<path d="M26.7966 27.9925C26.2835 27.9925 25.868 27.8326 25.5494 27.5139C25.2307 27.1952 25.0708 26.7798 25.0708 26.2667V22.2347C25.0708 21.7216 25.2307 21.3061 25.5494 20.9875C25.868 20.6688 26.2835 20.5089 26.7966 20.5089C27.3098 20.5089 27.7252 20.6688 28.0439 20.9875C28.3626 21.3061 28.5224 21.7216 28.5224 22.2347V23.0869H27.4411V22.2347C27.4411 22.027 27.3821 21.861 27.264 21.7358C27.1458 21.6116 26.9941 21.5485 26.8068 21.5485C26.6195 21.5485 26.4677 21.6106 26.3496 21.7358C26.2315 21.861 26.1725 22.027 26.1725 22.2347V26.2667C26.1725 26.4744 26.2315 26.6403 26.3496 26.7656C26.4677 26.8898 26.6195 26.9529 26.8068 26.9529C26.9941 26.9529 27.1458 26.8908 27.264 26.7656C27.3821 26.6413 27.4411 26.4744 27.4411 26.2667V25.2271H28.5224V26.2667C28.5224 26.7798 28.3626 27.1952 28.0439 27.5139C27.7252 27.8326 27.3098 27.9925 26.7966 27.9925Z" fill="#808080"/>
<path d="M29.5304 20.6138H32.6582V21.6533H30.6321V23.6805H32.2428V24.719H30.6321V26.8501H32.6582V27.8886H29.5304V20.6138Z" fill="#808080"/>
<path d="M36.0569 27.8886L35.2566 24.885H34.6854V27.8886H33.5837V20.6138H35.3085C35.8349 20.6138 36.2544 20.7716 36.5659 21.0862C36.8775 21.4018 37.0333 21.8224 37.0333 22.3487V23.149C37.0333 23.482 36.9671 23.7762 36.8358 24.0328C36.7044 24.2894 36.5171 24.49 36.2747 24.6355L37.1992 27.8886H36.0569ZM34.6844 23.8465H35.2556C35.4704 23.8465 35.6364 23.7874 35.7545 23.6693C35.8726 23.5512 35.9316 23.3852 35.9316 23.1704V22.3284C35.9316 22.1135 35.8726 21.9476 35.7545 21.8295C35.6364 21.7114 35.4704 21.6523 35.2556 21.6523H34.6844V23.8465Z" fill="#808080"/>
<path d="M37.7297 20.6138H41.2424V21.6533H40.0369V27.8886H38.9352V21.6533H37.7297V20.6138Z" fill="#808080"/>
<path d="M42.0946 20.6138H43.1962V27.8886H42.0946V20.6138Z" fill="#808080"/>
<path d="M44.4018 20.6138H47.4776V21.6533H45.5034V23.7844H47.0622V24.8229H45.5034V27.8886H44.4018V20.6138Z" fill="#808080"/>
<path d="M48.3298 20.6138H49.4315V27.8886H48.3298V20.6138Z" fill="#808080"/>
<path d="M52.2691 27.9925C51.756 27.9925 51.3406 27.8326 51.0219 27.5139C50.7032 27.1952 50.5434 26.7798 50.5434 26.2667V22.2347C50.5434 21.7216 50.7022 21.3061 51.0219 20.9875C51.3406 20.6688 51.756 20.5089 52.2691 20.5089C52.7823 20.5089 53.1977 20.6688 53.5164 20.9875C53.8351 21.3061 53.9949 21.7216 53.9949 22.2347V23.0869H52.9136V22.2347C52.9136 22.027 52.8546 21.861 52.7365 21.7358C52.6184 21.6116 52.4667 21.5485 52.2793 21.5485C52.092 21.5485 51.9403 21.6106 51.8222 21.7358C51.7041 21.86 51.645 22.027 51.645 22.2347V26.2667C51.645 26.4744 51.7041 26.6403 51.8222 26.7656C51.9403 26.8898 52.092 26.9529 52.2793 26.9529C52.4667 26.9529 52.6184 26.8908 52.7365 26.7656C52.8546 26.6413 52.9136 26.4744 52.9136 26.2667V25.2271H53.9949V26.2667C53.9949 26.7798 53.8351 27.1952 53.5164 27.5139C53.1977 27.8326 52.7823 27.9925 52.2691 27.9925Z" fill="#808080"/>
<path d="M57.1737 26.2779H55.9885L55.7492 27.8886H54.6476L55.8531 20.6138H57.3284L58.5339 27.8886H57.4119L57.1737 26.2779ZM57.0291 25.2179L56.5821 22.1726L56.1351 25.2179H57.0291Z" fill="#808080"/>
<path d="M58.5981 20.6138H62.1108V21.6533H60.9052V27.8886H59.8036V21.6533H58.5981V20.6138Z" fill="#808080"/>
<path d="M62.963 20.6138H66.0908V21.6533H64.0646V23.6805H65.6754V24.719H64.0646V26.8501H66.0908V27.8886H62.963V20.6138Z" fill="#808080"/>
<path d="M70.6216 27.9924C70.2754 27.9924 69.9669 27.9161 69.6971 27.7634C69.4273 27.6106 69.2176 27.3999 69.0679 27.129C68.9192 26.8592 68.8449 26.5507 68.8449 26.2045V25.9449L69.9048 25.8309V26.1007C69.9048 26.3644 69.9669 26.5721 70.0922 26.7238C70.2164 26.8765 70.3905 26.9529 70.6114 26.9529C70.8324 26.9529 70.9973 26.8908 71.1256 26.7656C71.2539 26.6413 71.318 26.4713 71.318 26.2565C71.318 26.0213 71.2508 25.7963 71.1154 25.5814C70.98 25.3666 70.7122 25.0683 70.3101 24.6875C69.7694 24.1743 69.4008 23.7487 69.2033 23.4097C69.0058 23.0706 68.907 22.7 68.907 22.2978C68.907 21.7501 69.0557 21.3153 69.354 20.9936C69.6523 20.6718 70.0606 20.5099 70.5799 20.5099C71.0991 20.5099 71.5084 20.6728 71.8057 20.9987C72.1041 21.3245 72.2527 21.7613 72.2527 22.308V22.4954L71.1928 22.6094V22.4017C71.1928 22.1247 71.1409 21.913 71.037 21.7674C70.9332 21.6218 70.7845 21.5495 70.59 21.5495C70.3956 21.5495 70.2469 21.6085 70.1431 21.7266C70.0392 21.8447 69.9873 22.0178 69.9873 22.2459C69.9873 22.474 70.0565 22.6949 70.195 22.9057C70.3335 23.1175 70.6002 23.4199 70.9953 23.8149C71.5359 24.3556 71.9045 24.7903 72.102 25.1192C72.2996 25.448 72.3983 25.8105 72.3983 26.2056C72.3983 26.5517 72.324 26.8602 72.1753 27.1301C72.0267 27.3999 71.8169 27.6117 71.5471 27.7644C71.2773 27.9171 70.9678 27.9924 70.6216 27.9924Z" fill="#808080"/>
<path d="M74.8623 27.9924C74.5161 27.9924 74.2076 27.9161 73.9378 27.7634C73.668 27.6106 73.4582 27.3999 73.3086 27.129C73.1599 26.8592 73.0856 26.5507 73.0856 26.2045V25.9449L74.1455 25.8309V26.1007C74.1455 26.3644 74.2076 26.5721 74.3328 26.7238C74.4571 26.8765 74.6312 26.9529 74.8521 26.9529C75.073 26.9529 75.238 26.8908 75.3663 26.7656C75.4946 26.6413 75.5587 26.4713 75.5587 26.2565C75.5587 26.0213 75.4915 25.7963 75.3561 25.5814C75.2207 25.3666 74.9529 25.0683 74.5507 24.6875C74.0101 24.1743 73.6415 23.7487 73.444 23.4097C73.2465 23.0706 73.1477 22.7 73.1477 22.2978C73.1477 21.7501 73.2963 21.3153 73.5947 20.9936C73.893 20.6718 74.3013 20.5099 74.8205 20.5099C75.3398 20.5099 75.7491 20.6728 76.0464 20.9987C76.3447 21.3245 76.4934 21.7613 76.4934 22.308V22.4954L75.4335 22.6094V22.4017C75.4335 22.1247 75.3816 21.913 75.2777 21.7674C75.1739 21.6218 75.0252 21.5495 74.8307 21.5495C74.6363 21.5495 74.4876 21.6085 74.3838 21.7266C74.2799 21.8447 74.228 22.0178 74.228 22.2459C74.228 22.474 74.2972 22.6949 74.4357 22.9057C74.5742 23.1175 74.8409 23.4199 75.236 23.8149C75.7766 24.3556 76.1452 24.7903 76.3427 25.1192C76.5402 25.448 76.639 25.8105 76.639 26.2056C76.639 26.5517 76.5647 26.8602 76.416 27.1301C76.2674 27.3999 76.0576 27.6117 75.7878 27.7644C75.518 27.9171 75.2085 27.9924 74.8623 27.9924Z" fill="#808080"/>
<path d="M77.5747 20.6138H78.6763V26.8501H80.6404V27.8886H77.5747V20.6138Z" fill="#808080"/>
</svg>
