<svg width="131" height="18" viewBox="0 0 131 18" fill="none" xmlns="http://www.w3.org/2000/svg">
<path d="M1.98095 6.10352e-05C1.07671 6.10352e-05 0.343079 0.75592 0.343079 1.68756V12.9376C0.343079 13.8692 1.07671 14.6251 1.98095 14.6251H2.5269C2.5269 16.4883 3.99416 18.0001 5.80264 18.0001C7.61112 18.0001 9.07838 16.4883 9.07838 14.6251H13.446C13.446 16.4883 14.9133 18.0001 16.7218 18.0001C18.5302 18.0001 19.9975 16.4883 19.9975 14.6251H21.0894C21.6934 14.6251 22.1813 14.1223 22.1813 13.5001C22.1813 12.8778 21.6934 12.3751 21.0894 12.3751V8.34264C21.0894 7.74498 20.8608 7.17194 20.4513 6.75006L17.8137 4.03248C17.4042 3.61061 16.848 3.37506 16.2679 3.37506H14.5379V1.68756C14.5379 0.75592 13.8043 6.10352e-05 12.9001 6.10352e-05H1.98095ZM14.5379 5.62506H16.2679L18.9056 8.34264V9.00006H14.5379V5.62506ZM4.16477 14.6251C4.16477 14.1775 4.33733 13.7483 4.64449 13.4318C4.95165 13.1153 5.36825 12.9376 5.80264 12.9376C6.23703 12.9376 6.65363 13.1153 6.96079 13.4318C7.26795 13.7483 7.44051 14.1775 7.44051 14.6251C7.44051 15.0726 7.26795 15.5018 6.96079 15.8183C6.65363 16.1348 6.23703 16.3126 5.80264 16.3126C5.36825 16.3126 4.95165 16.1348 4.64449 15.8183C4.33733 15.5018 4.16477 15.0726 4.16477 14.6251ZM16.7218 12.9376C17.1562 12.9376 17.5728 13.1153 17.8799 13.4318C18.1871 13.7483 18.3596 14.1775 18.3596 14.6251C18.3596 15.0726 18.1871 15.5018 17.8799 15.8183C17.5728 16.1348 17.1562 16.3126 16.7218 16.3126C16.2874 16.3126 15.8708 16.1348 15.5636 15.8183C15.2565 15.5018 15.0839 15.0726 15.0839 14.6251C15.0839 14.1775 15.2565 13.7483 15.5636 13.4318C15.8708 13.1153 16.2874 12.9376 16.7218 12.9376Z" fill="#2B2B2B"/>
<path d="M26.9367 6.18197V4.75574H33.4587V6.18197H31.0275V12.9376H29.3679V6.18197H26.9367Z" fill="#2B2B2B"/>
<path d="M34.3144 12.9376V4.75574H37.4475C38.0472 4.75574 38.559 4.86627 38.983 5.08733C39.4095 5.30572 39.7339 5.61601 39.9562 6.01817C40.1811 6.41767 40.2936 6.88776 40.2936 7.42842C40.2936 7.97174 40.1799 8.43916 39.9524 8.83067C39.7249 9.21952 39.3953 9.51782 38.9636 9.72556C38.5345 9.9333 38.0149 10.0372 37.4048 10.0372H35.3071V8.6469H37.1334C37.4539 8.6469 37.7202 8.60162 37.9322 8.51107C38.1441 8.42052 38.3018 8.28468 38.4052 8.10358C38.5112 7.92247 38.5642 7.69742 38.5642 7.42842C38.5642 7.15675 38.5112 6.92771 38.4052 6.74127C38.3018 6.55484 38.1429 6.41368 37.9283 6.3178C37.7163 6.21925 37.4488 6.16998 37.1256 6.16998H35.9934V12.9376H34.3144ZM38.603 9.21419L40.5766 12.9376H38.7232L36.7922 9.21419H38.603Z" fill="#2B2B2B"/>
<path d="M42.6305 12.9376H40.8313L43.5727 4.75574H45.7364L48.4739 12.9376H46.6748L44.6856 6.62542H44.6236L42.6305 12.9376ZM42.5181 9.72156H46.7678V11.0719H42.5181V9.72156Z" fill="#2B2B2B"/>
<path d="M55.8536 4.75574V12.9376H54.4034L50.9485 7.78797H50.8903V12.9376H49.2114V4.75574H50.6848L54.1126 9.90134H54.1824V4.75574H55.8536Z" fill="#2B2B2B"/>
<path d="M61.3303 7.10881C61.2993 6.78655 61.1662 6.53619 60.9309 6.35775C60.6957 6.1793 60.3764 6.09008 59.9732 6.09008C59.6992 6.09008 59.4678 6.13003 59.2791 6.20993C59.0904 6.28717 58.9456 6.39504 58.8448 6.53353C58.7466 6.67202 58.6975 6.82916 58.6975 7.00494C58.6923 7.15143 58.722 7.27927 58.7867 7.38847C58.8539 7.49766 58.9456 7.59221 59.062 7.67211C59.1783 7.74935 59.3127 7.81727 59.4652 7.87586C59.6177 7.93179 59.7806 7.97973 59.9538 8.01968L60.6673 8.19546C61.0137 8.27536 61.3316 8.3819 61.6211 8.51506C61.9107 8.64823 62.1614 8.81203 62.3734 9.00645C62.5853 9.20088 62.7495 9.42993 62.8658 9.6936C62.9847 9.95727 63.0455 10.2596 63.0481 10.6005C63.0455 11.1012 62.9214 11.5353 62.6758 11.9028C62.4328 12.2677 62.0813 12.5514 61.6211 12.7538C61.1636 12.9535 60.6117 13.0534 59.9654 13.0534C59.3243 13.0534 58.766 12.9522 58.2903 12.7498C57.8173 12.5474 57.4476 12.2478 57.1814 11.8509C56.9177 11.4514 56.7794 10.9574 56.7665 10.3688H58.3912C58.4092 10.6431 58.4855 10.8721 58.6199 11.0559C58.7569 11.237 58.9392 11.3742 59.1667 11.4674C59.3967 11.5579 59.6565 11.6032 59.946 11.6032C60.2304 11.6032 60.4773 11.5606 60.6866 11.4754C60.8986 11.3902 61.0628 11.2716 61.1791 11.1198C61.2954 10.968 61.3536 10.7936 61.3536 10.5965C61.3536 10.4127 61.3006 10.2582 61.1946 10.1331C61.0912 10.0079 60.9387 9.90134 60.7371 9.81345C60.538 9.72556 60.2937 9.64566 60.0042 9.57375L59.1395 9.35003C58.47 9.18223 57.9414 8.91989 57.5536 8.563C57.1659 8.20611 56.9733 7.72538 56.9759 7.1208C56.9733 6.62542 57.1012 6.19262 57.3597 5.82242C57.6208 5.45221 57.9788 5.16324 58.4338 4.95549C58.8888 4.74775 59.4058 4.64388 59.9848 4.64388C60.5742 4.64388 61.0886 4.74775 61.5281 4.95549C61.9701 5.16324 62.3139 5.45221 62.5595 5.82242C62.8051 6.19262 62.9317 6.62142 62.9395 7.10881H61.3303Z" fill="#2B2B2B"/>
<path d="M63.959 12.9376V4.75574H67.0921C67.6944 4.75574 68.2075 4.87426 68.6314 5.1113C69.0554 5.34567 69.3785 5.67194 69.6008 6.09008C69.8257 6.50557 69.9382 6.98497 69.9382 7.52829C69.9382 8.07162 69.8244 8.55102 69.5969 8.9665C69.3695 9.38199 69.0399 9.70558 68.6082 9.93729C68.1791 10.169 67.6595 10.2849 67.0494 10.2849H65.0525V8.89859H66.778C67.1011 8.89859 67.3674 8.84132 67.5768 8.7268C67.7887 8.60961 67.9464 8.44848 68.0498 8.2434C68.1558 8.03566 68.2088 7.79729 68.2088 7.52829C68.2088 7.25663 68.1558 7.01959 68.0498 6.81718C67.9464 6.6121 67.7887 6.45363 67.5768 6.34177C67.3648 6.22724 67.0959 6.16998 66.7702 6.16998H65.638V12.9376H63.959Z" fill="#2B2B2B"/>
<path d="M78.1078 8.84665C78.1078 9.73887 77.9437 10.4979 77.6154 11.1238C77.2897 11.7497 76.8451 12.2278 76.2815 12.558C75.7206 12.8856 75.0898 13.0494 74.3893 13.0494C73.6836 13.0494 73.0503 12.8843 72.4893 12.554C71.9284 12.2238 71.485 11.7457 71.1593 11.1198C70.8336 10.4939 70.6707 9.73621 70.6707 8.84665C70.6707 7.95443 70.8336 7.19537 71.1593 6.56949C71.485 5.9436 71.9284 5.46686 72.4893 5.13927C73.0503 4.80901 73.6836 4.64388 74.3893 4.64388C75.0898 4.64388 75.7206 4.80901 76.2815 5.13927C76.8451 5.46686 77.2897 5.9436 77.6154 6.56949C77.9437 7.19537 78.1078 7.95443 78.1078 8.84665ZM76.4056 8.84665C76.4056 8.2687 76.3216 7.78131 76.1536 7.38447C75.9881 6.98763 75.7542 6.68667 75.4518 6.4816C75.1493 6.27652 74.7952 6.17398 74.3893 6.17398C73.9835 6.17398 73.6293 6.27652 73.3269 6.4816C73.0244 6.68667 72.7892 6.98763 72.6211 7.38447C72.4557 7.78131 72.373 8.2687 72.373 8.84665C72.373 9.4246 72.4557 9.91199 72.6211 10.3088C72.7892 10.7057 73.0244 11.0066 73.3269 11.2117C73.6293 11.4168 73.9835 11.5193 74.3893 11.5193C74.7952 11.5193 75.1493 11.4168 75.4518 11.2117C75.7542 11.0066 75.9881 10.7057 76.1536 10.3088C76.3216 9.91199 76.4056 9.4246 76.4056 8.84665Z" fill="#2B2B2B"/>
<path d="M79.1332 12.9376V4.75574H82.2662C82.866 4.75574 83.3778 4.86627 83.8017 5.08733C84.2283 5.30572 84.5527 5.61601 84.775 6.01817C84.9999 6.41767 85.1123 6.88776 85.1123 7.42842C85.1123 7.97174 84.9986 8.43916 84.7711 8.83067C84.5436 9.21952 84.214 9.51782 83.7823 9.72556C83.3532 9.9333 82.8336 10.0372 82.2236 10.0372H80.1258V8.6469H81.9521C82.2727 8.6469 82.539 8.60162 82.7509 8.51107C82.9629 8.42052 83.1206 8.28468 83.224 8.10358C83.33 7.92247 83.383 7.69742 83.383 7.42842C83.383 7.15675 83.33 6.92771 83.224 6.74127C83.1206 6.55484 82.9616 6.41368 82.747 6.3178C82.5351 6.21925 82.2675 6.16998 81.9444 6.16998H80.8122V12.9376H79.1332ZM83.4217 9.21419L85.3954 12.9376H83.5419L81.6109 9.21419H83.4217Z" fill="#2B2B2B"/>
<path d="M85.778 6.18197V4.75574H92.3V6.18197H89.8688V12.9376H88.2093V6.18197H85.778Z" fill="#2B2B2B"/>
<path d="M93.5542 12.9376H91.755L94.4964 4.75574H96.6601L99.3976 12.9376H97.5984L95.6092 6.62542H95.5472L93.5542 12.9376ZM93.4417 9.72156H97.6915V11.0719H93.4417V9.72156Z" fill="#2B2B2B"/>
<path d="M102.95 12.9376H100.135V4.75574H102.973C103.772 4.75574 104.46 4.91954 105.036 5.24713C105.613 5.57206 106.056 6.03948 106.366 6.64939C106.679 7.25929 106.835 7.98905 106.835 8.83866C106.835 9.69093 106.679 10.4234 106.366 11.0359C106.056 11.6485 105.61 12.1186 105.028 12.4462C104.449 12.7738 103.757 12.9376 102.95 12.9376ZM101.814 11.4554H102.88C103.377 11.4554 103.794 11.3649 104.133 11.1837C104.474 11 104.73 10.7163 104.901 10.3328C105.074 9.94662 105.16 9.44857 105.16 8.83866C105.16 8.23408 105.074 7.74003 104.901 7.35651C104.73 6.97298 104.475 6.69067 104.137 6.50956C103.798 6.32845 103.381 6.2379 102.884 6.2379H101.814V11.4554Z" fill="#2B2B2B"/>
<path d="M115.158 8.84665C115.158 9.73887 114.994 10.4979 114.666 11.1238C114.34 11.7497 113.895 12.2278 113.332 12.558C112.771 12.8856 112.14 13.0494 111.44 13.0494C110.734 13.0494 110.101 12.8843 109.54 12.554C108.979 12.2238 108.535 11.7457 108.21 11.1198C107.884 10.4939 107.721 9.73621 107.721 8.84665C107.721 7.95443 107.884 7.19537 108.21 6.56949C108.535 5.9436 108.979 5.46686 109.54 5.13927C110.101 4.80901 110.734 4.64388 111.44 4.64388C112.14 4.64388 112.771 4.80901 113.332 5.13927C113.895 5.46686 114.34 5.9436 114.666 6.56949C114.994 7.19537 115.158 7.95443 115.158 8.84665ZM113.456 8.84665C113.456 8.2687 113.372 7.78131 113.204 7.38447C113.039 6.98763 112.805 6.68667 112.502 6.4816C112.2 6.27652 111.846 6.17398 111.44 6.17398C111.034 6.17398 110.68 6.27652 110.377 6.4816C110.075 6.68667 109.84 6.98763 109.672 7.38447C109.506 7.78131 109.423 8.2687 109.423 8.84665C109.423 9.4246 109.506 9.91199 109.672 10.3088C109.84 10.7057 110.075 11.0066 110.377 11.2117C110.68 11.4168 111.034 11.5193 111.44 11.5193C111.846 11.5193 112.2 11.4168 112.502 11.2117C112.805 11.0066 113.039 10.7057 113.204 10.3088C113.372 9.91199 113.456 9.4246 113.456 8.84665Z" fill="#2B2B2B"/>
<path d="M116.184 12.9376V4.75574H119.317C119.916 4.75574 120.428 4.86627 120.852 5.08733C121.279 5.30572 121.603 5.61601 121.825 6.01817C122.05 6.41767 122.163 6.88776 122.163 7.42842C122.163 7.97174 122.049 8.43916 121.822 8.83067C121.594 9.21952 121.264 9.51782 120.833 9.72556C120.404 9.9333 119.884 10.0372 119.274 10.0372H117.176V8.6469H119.003C119.323 8.6469 119.589 8.60162 119.801 8.51107C120.013 8.42052 120.171 8.28468 120.274 8.10358C120.38 7.92247 120.433 7.69742 120.433 7.42842C120.433 7.15675 120.38 6.92771 120.274 6.74127C120.171 6.55484 120.012 6.41368 119.797 6.3178C119.585 6.21925 119.318 6.16998 118.995 6.16998H117.863V12.9376H116.184ZM120.472 9.21419L122.446 12.9376H120.592L118.661 9.21419H120.472Z" fill="#2B2B2B"/>
<path d="M124.5 12.9376H122.7L125.442 4.75574H127.606L130.343 12.9376H128.544L126.555 6.62542H126.493L124.5 12.9376ZM124.387 9.72156H128.637V11.0719H124.387V9.72156Z" fill="#2B2B2B"/>
</svg>
