<svg width="51" height="32" viewBox="0 0 51 32" fill="none" xmlns="http://www.w3.org/2000/svg">
<path d="M3.01599 0H47.816C49.2299 0 50.376 1.14618 50.376 2.56V29.44C50.376 30.8539 49.2299 32 47.816 32H3.01599C1.60217 32 0.455994 30.8539 0.455994 29.44V2.56C0.455994 1.14618 1.60217 0 3.01599 0Z" fill="#0E4595"/>
<path d="M19.2208 22.3187L21.3559 9.79008H24.7709L22.6343 22.3187H19.2208ZM34.9718 10.0602C34.2953 9.80634 33.2351 9.53395 31.9112 9.53395C28.5368 9.53395 26.1599 11.2332 26.1397 13.6685C26.1206 15.4689 27.8366 16.4732 29.1318 17.0724C30.4612 17.6865 30.908 18.0781 30.9017 18.6266C30.8933 19.4663 29.8402 19.85 28.8587 19.85C27.4918 19.85 26.7657 19.6601 25.6441 19.1923L25.2041 18.9933L24.7248 21.7979C25.5224 22.1476 26.9974 22.4506 28.5288 22.4663C32.1186 22.4663 34.4488 20.7866 34.4754 18.1859C34.4882 16.7606 33.5784 15.676 31.6082 14.7818C30.4146 14.2023 29.6836 13.8155 29.6913 13.2287C29.6913 12.7079 30.3101 12.151 31.647 12.151C32.7637 12.1337 33.5727 12.3772 34.203 12.631L34.509 12.7756L34.9718 10.0602ZM43.7597 9.78989H41.1208C40.3033 9.78989 39.6916 10.0131 39.3326 10.8289L34.261 22.3105H37.847C37.847 22.3105 38.4332 20.7666 38.5658 20.4277C38.9578 20.4277 42.4413 20.4331 42.9394 20.4331C43.0416 20.8717 43.3548 22.3105 43.3548 22.3105H46.5237L43.7597 9.78989ZM39.5729 17.8801C39.8553 17.1583 40.9336 14.3779 40.9336 14.3779C40.9133 14.4113 41.2138 13.6525 41.3863 13.1821L41.617 14.2623C41.617 14.2623 42.271 17.253 42.4077 17.8801H39.5729ZM16.3217 9.78989L12.9784 18.3339L12.6221 16.5976C11.9997 14.5961 10.0605 12.4276 7.8926 11.342L10.9496 22.2988L14.5628 22.2947L19.9391 9.78976L16.3217 9.78989Z" fill="white"/>
<path d="M9.85887 9.78944H4.35225L4.30867 10.0501C8.5927 11.0872 11.4274 13.5933 12.6043 16.6044L11.4069 10.8469C11.2002 10.0536 10.6006 9.81715 9.85887 9.78944Z" fill="#F2AE14"/>
</svg>
